<svg viewBox="0 0 330 200" xmlns="http://www.w3.org/2000/svg"><g><g><g><g><g><line x1="50" y1="177" x2="45" y2="177" style="visibility: inherit;" fill="rgb(0, 0, 0)" stroke="rgb(204, 204, 204)" stroke-width="1px"></line><line x1="50" y1="160.9090909090909" x2="45" y2="160.9090909090909" style="visibility: inherit;" fill="rgb(0, 0, 0)" stroke="rgb(204, 204, 204)" stroke-width="1px"></line><line x1="50" y1="144.8181818181818" x2="45" y2="144.8181818181818" style="visibility: inherit;" fill="rgb(0, 0, 0)" stroke="rgb(204, 204, 204)" stroke-width="1px"></line><line x1="50" y1="128.72727272727272" x2="45" y2="128.72727272727272" style="visibility: inherit;" fill="rgb(0, 0, 0)" stroke="rgb(204, 204, 204)" stroke-width="1px"></line><line x1="50" y1="112.63636363636364" x2="45" y2="112.63636363636364" style="visibility: inherit;" fill="rgb(0, 0, 0)" stroke="rgb(204, 204, 204)" stroke-width="1px"></line><line x1="50" y1="96.54545454545453" x2="45" y2="96.54545454545453" style="visibility: inherit;" fill="rgb(0, 0, 0)" stroke="rgb(204, 204, 204)" stroke-width="1px"></line><line x1="50" y1="80.45454545454547" x2="45" y2="80.45454545454547" style="visibility: inherit;" fill="rgb(0, 0, 0)" stroke="rgb(204, 204, 204)" stroke-width="1px"></line><line x1="50" y1="64.36363636363636" x2="45" y2="64.36363636363636" style="visibility: inherit;" fill="rgb(0, 0, 0)" stroke="rgb(204, 204, 204)" stroke-width="1px"></line><line x1="50" y1="48.272727272727266" x2="45" y2="48.272727272727266" style="visibility: inherit;" fill="rgb(0, 0, 0)" stroke="rgb(204, 204, 204)" stroke-width="1px"></line><line x1="50" y1="32.181818181818215" x2="45" y2="32.181818181818215" style="visibility: inherit;" fill="rgb(0, 0, 0)" stroke="rgb(204, 204, 204)" stroke-width="1px"></line><line x1="50" y1="16.090909090909097" x2="45" y2="16.090909090909097" style="visibility: inherit;" fill="rgb(0, 0, 0)" stroke="rgb(204, 204, 204)" stroke-width="1px"></line><line x1="50" y1="0" x2="45" y2="0" style="visibility: inherit;" fill="rgb(0, 0, 0)" stroke="rgb(204, 204, 204)" stroke-width="1px"></line></g><g transform="translate(40, 0)"><text x="0" y="177" dx="0em" dy="0.3em" style="text-anchor: end; visibility: hidden; font-family: Roboto, sans-serif; font-size: 12px; font-weight: 200;" fill="rgb(33, 33, 33)" stroke="none" stroke-width="1px">0.12</text><text x="0" y="160.9090909090909" dx="0em" dy="0.3em" style="text-anchor: end; visibility: inherit; font-family: Roboto, sans-serif; font-size: 12px; font-weight: 200;" fill="rgb(33, 33, 33)" stroke="none" stroke-width="1px">0.14</text><text x="0" y="144.8181818181818" dx="0em" dy="0.3em" style="text-anchor: end; visibility: hidden; font-family: Roboto, sans-serif; font-size: 12px; font-weight: 200;" fill="rgb(33, 33, 33)" stroke="none" stroke-width="1px">0.16</text><text x="0" y="128.72727272727272" dx="0em" dy="0.3em" style="text-anchor: end; visibility: inherit; font-family: Roboto, sans-serif; font-size: 12px; font-weight: 200;" fill="rgb(33, 33, 33)" stroke="none" stroke-width="1px">0.18</text><text x="0" y="112.63636363636364" dx="0em" dy="0.3em" style="text-anchor: end; visibility: hidden; font-family: Roboto, sans-serif; font-size: 12px; font-weight: 200;" fill="rgb(33, 33, 33)" stroke="none" stroke-width="1px">0.2</text><text x="0" y="96.54545454545453" dx="0em" dy="0.3em" style="text-anchor: end; visibility: inherit; font-family: Roboto, sans-serif; font-size: 12px; font-weight: 200;" fill="rgb(33, 33, 33)" stroke="none" stroke-width="1px">0.22</text><text x="0" y="80.45454545454547" dx="0em" dy="0.3em" style="text-anchor: end; visibility: hidden; font-family: Roboto, sans-serif; font-size: 12px; font-weight: 200;" fill="rgb(33, 33, 33)" stroke="none" stroke-width="1px">0.24</text><text x="0" y="64.36363636363636" dx="0em" dy="0.3em" style="text-anchor: end; visibility: inherit; font-family: Roboto, sans-serif; font-size: 12px; font-weight: 200;" fill="rgb(33, 33, 33)" stroke="none" stroke-width="1px">0.26</text><text x="0" y="48.272727272727266" dx="0em" dy="0.3em" style="text-anchor: end; visibility: hidden; font-family: Roboto, sans-serif; font-size: 12px; font-weight: 200;" fill="rgb(33, 33, 33)" stroke="none" stroke-width="1px">0.28</text><text x="0" y="32.181818181818215" dx="0em" dy="0.3em" style="text-anchor: end; visibility: inherit; font-family: Roboto, sans-serif; font-size: 12px; font-weight: 200;" fill="rgb(33, 33, 33)" stroke="none" stroke-width="1px">0.3</text><text x="0" y="16.090909090909097" dx="0em" dy="0.3em" style="text-anchor: end; visibility: hidden; font-family: Roboto, sans-serif; font-size: 12px; font-weight: 200;" fill="rgb(33, 33, 33)" stroke="none" stroke-width="1px">0.32</text><text x="0" y="0" dx="0em" dy="0.3em" style="text-anchor: end; visibility: hidden; font-family: Roboto, sans-serif; font-size: 12px; font-weight: 200;" fill="rgb(33, 33, 33)" stroke="none" stroke-width="1px">0.34</text></g><line x1="50" y1="0" x2="50" y2="177" fill="rgb(0, 0, 0)" stroke="rgb(204, 204, 204)" stroke-width="1px"></line></g></g><g transform="translate(50, 0)" clip-path="url(#clip_0)"><clipPath id="clip_0"><rect width="280" height="177"></rect></clipPath><g><g><g><line x1="0" y1="0" x2="0" y2="177" fill="rgb(0, 0, 0)" stroke="rgb(66, 66, 66)" stroke-width="1px" opacity="0.25"></line><line x1="23.333333333333332" y1="0" x2="23.333333333333332" y2="177" fill="rgb(0, 0, 0)" stroke="rgb(66, 66, 66)" stroke-width="1px" opacity="0.25"></line><line x1="46.666666666666664" y1="0" x2="46.666666666666664" y2="177" fill="rgb(0, 0, 0)" stroke="rgb(66, 66, 66)" stroke-width="1px" opacity="0.25"></line><line x1="70" y1="0" x2="70" y2="177" fill="rgb(0, 0, 0)" stroke="rgb(66, 66, 66)" stroke-width="1px" opacity="0.25"></line><line x1="93.33333333333333" y1="0" x2="93.33333333333333" y2="177" fill="rgb(0, 0, 0)" stroke="rgb(66, 66, 66)" stroke-width="1px" opacity="0.25"></line><line x1="116.66666666666667" y1="0" x2="116.66666666666667" y2="177" fill="rgb(0, 0, 0)" stroke="rgb(66, 66, 66)" stroke-width="1px" opacity="0.25"></line><line x1="140" y1="0" x2="140" y2="177" fill="rgb(0, 0, 0)" stroke="rgb(66, 66, 66)" stroke-width="1px" opacity="0.25"></line><line x1="163.33333333333334" y1="0" x2="163.33333333333334" y2="177" fill="rgb(0, 0, 0)" stroke="rgb(66, 66, 66)" stroke-width="1px" opacity="0.25"></line><line x1="186.66666666666666" y1="0" x2="186.66666666666666" y2="177" fill="rgb(0, 0, 0)" stroke="rgb(66, 66, 66)" stroke-width="1px" opacity="0.25"></line><line x1="210" y1="0" x2="210" y2="177" fill="rgb(0, 0, 0)" stroke="rgb(66, 66, 66)" stroke-width="1px" opacity="0.25"></line><line x1="233.33333333333334" y1="0" x2="233.33333333333334" y2="177" fill="rgb(0, 0, 0)" stroke="rgb(66, 66, 66)" stroke-width="1px" opacity="0.25"></line><line x1="256.66666666666663" y1="0" x2="256.66666666666663" y2="177" fill="rgb(0, 0, 0)" stroke="rgb(66, 66, 66)" stroke-width="1px" opacity="0.25"></line><line x1="280" y1="0" x2="280" y2="177" fill="rgb(0, 0, 0)" stroke="rgb(66, 66, 66)" stroke-width="1px" opacity="0.25"></line></g><g><line x1="0" y1="177" x2="280" y2="177" fill="rgb(0, 0, 0)" stroke="rgb(66, 66, 66)" stroke-width="1px" opacity="0.25"></line><line x1="0" y1="160.9090909090909" x2="280" y2="160.9090909090909" fill="rgb(0, 0, 0)" stroke="rgb(66, 66, 66)" stroke-width="1px" opacity="0.25"></line><line x1="0" y1="144.8181818181818" x2="280" y2="144.8181818181818" fill="rgb(0, 0, 0)" stroke="rgb(66, 66, 66)" stroke-width="1px" opacity="0.25"></line><line x1="0" y1="128.72727272727272" x2="280" y2="128.72727272727272" fill="rgb(0, 0, 0)" stroke="rgb(66, 66, 66)" stroke-width="1px" opacity="0.25"></line><line x1="0" y1="112.63636363636364" x2="280" y2="112.63636363636364" fill="rgb(0, 0, 0)" stroke="rgb(66, 66, 66)" stroke-width="1px" opacity="0.25"></line><line x1="0" y1="96.54545454545453" x2="280" y2="96.54545454545453" fill="rgb(0, 0, 0)" stroke="rgb(66, 66, 66)" stroke-width="1px" opacity="0.25"></line><line x1="0" y1="80.45454545454547" x2="280" y2="80.45454545454547" fill="rgb(0, 0, 0)" stroke="rgb(66, 66, 66)" stroke-width="1px" opacity="0.25"></line><line x1="0" y1="64.36363636363636" x2="280" y2="64.36363636363636" fill="rgb(0, 0, 0)" stroke="rgb(66, 66, 66)" stroke-width="1px" opacity="0.25"></line><line x1="0" y1="48.272727272727266" x2="280" y2="48.272727272727266" fill="rgb(0, 0, 0)" stroke="rgb(66, 66, 66)" stroke-width="1px" opacity="0.25"></line><line x1="0" y1="32.181818181818215" x2="280" y2="32.181818181818215" fill="rgb(0, 0, 0)" stroke="rgb(66, 66, 66)" stroke-width="1px" opacity="0.25"></line><line x1="0" y1="16.090909090909097" x2="280" y2="16.090909090909097" fill="rgb(0, 0, 0)" stroke="rgb(66, 66, 66)" stroke-width="1px" opacity="0.25"></line><line x1="0" y1="0" x2="280" y2="0" fill="rgb(0, 0, 0)" stroke="rgb(66, 66, 66)" stroke-width="1px" opacity="0.25"></line></g></g></g><g><g><line x1="0" y1="273.54545454545456" x2="280" y2="273.54545454545456" fill="rgb(0, 0, 0)" stroke="rgb(153, 153, 153)" stroke-width="1.5px"></line></g></g><g><g><line x1="23.333333333333332" y1="0" x2="23.333333333333332" y2="177" fill="rgb(0, 0, 0)" stroke="rgb(153, 153, 153)" stroke-width="1.5px"></line></g></g><g><g><g><g><g><path stroke="rgb(255, 112, 67)" stroke-width="2px" d="M30.333333333333336,-8.140184864674692L31.5,16.831667834489455L32.666666666666664,3.897368021236586L33.833333333333336,35.82145963363315L35,35.679021339284034L36.16666666666667,52.00726650352379L37.333333333333336,43.69359105576472L38.5,42.47073057029295L39.666666666666664,25.579649777716483L40.833333333333336,39.14577156127735L42,39.38530974809452L43.16666666666667,29.90339974826638L44.33333333333333,-11.99653293480335L45.5,19.06486632761043L46.666666666666664,22.783013831833294L47.833333333333336,25.258418163335083L49,47.33571795652267L50.166666666666664,56.852478355500686L51.33333333333333,61.30758418913449L52.5,57.821350705348245L53.66666666666667,62.18387254933968L54.833333333333336,51.088745418726674L56,55.444304584416L57.166666666666664,47.063197309226744L58.333333333333336,20.98639212565331L59.5,43.36845754638929L60.66666666666667,41.45411554490425L61.83333333333333,51.955919612616505L63,48.46604382751099L64.16666666666666,64.29853409616845L65.33333333333333,86.17439343896085L66.5,92.28217800302401L67.66666666666667,87.96640913307641L68.83333333333333,51.587854793529885L70,58.59404783965851L71.16666666666666,58.4786229635195L72.33333333333334,54.30145796636617L73.5,76.38780723337021L74.66666666666667,89.35191768608604L75.83333333333333,76.67583801193214L77,94.92371956563825L78.16666666666667,103.86952200111638L79.33333333333333,96.39719014819977L80.5,102.88396779308694L81.66666666666667,98.26741276309755L82.83333333333333,99.65429875817999L84,113.95664105920085L85.16666666666666,105.10335801252475L86.33333333333334,95.9899035076004L87.5,98.41804281894188L88.66666666666666,82.26352031244512L89.83333333333334,80.64725156445384L91,89.84635932337815L92.16666666666667,60.56580872427488L93.33333333333333,83.72174824801564L94.5,86.22044886068996L95.66666666666667,85.39024832036357L96.83333333333333,103.91952928632456L98,102.85018705781458L99.16666666666667,100.7444592410964L100.33333333333333,105.14767920776423L101.5,101.65066360877124L102.66666666666666,100.50992150735196L103.83333333333334,114.2831834077536L105,69.72758200340203L106.16666666666666,84.69612802608452L107.33333333333334,89.24498034443641L108.5,102.84987315708294L109.66666666666667,118.44823425624202L110.83333333333333,101.07994954572361L112,103.49863857824622L113.16666666666667,105.48250343300494L114.33333333333333,103.21130254099235L115.5,117.40551994959013L116.66666666666667,132.27705283593832L117.83333333333333,116.68776343407885L119,129.09172580869046L120.16666666666666,114.85284867316025L121.33333333333334,110.87464164751493L122.5,108.22956798165222L123.66666666666666,120.0313362699102L124.83333333333334,114.15787162041048L126,123.2556474827686L127.16666666666667,129.8437552097307L128.33333333333331,113.87833632377888L129.5,119.15107045760436L130.66666666666666,116.5103045604974L131.83333333333334,117.81940438598855L133,123.75427733050428L134.16666666666669,116.74735423004252L135.33333333333334,105.55945017816363L136.5,94.39378797666546L137.66666666666666,104.67154860074928L138.83333333333334,100.79894778475528L140,121.697894587733L141.16666666666666,127.37160558921609L142.33333333333331,114.24920334905258L143.5,119.71331577159522L144.66666666666669,126.85729694541645L145.83333333333334,123.23222885345322L147,132.0141532496777L148.16666666666666,121.90098719617363L149.33333333333334,112.17432070917813L150.5,129.48293058255382L151.66666666666666,124.55636025882295L152.83333333333331,106.38504188254845L154,124.91876913577268L155.16666666666669,88.98130316310008L156.33333333333334,110.54123337837876L157.5,103.82664356963257L158.66666666666666,121.76114154062522L159.83333333333331,128.21736895508138L161,141.56207126602922L162.16666666666669,141.19288001845067L163.33333333333334,146.05915180351928L164.5,128.25070615387645L165.66666666666666,129.4079187130622L166.83333333333334,133.05477064507988L168,128.43399343394998L169.16666666666666,126.43692496068988L170.33333333333331,125.150519260019L171.5,137.31687770056448L172.66666666666669,138.50387087705187L173.83333333333334,140.59964463909483L175,136.46478158766584L176.16666666666666,130.21500742103842L177.33333333333331,140.1144450460391L178.5,142.0181295205229L179.66666666666669,146.35429706259103L180.83333333333334,149.5502611522885L182,143.74047590047192L183.16666666666666,144.52133101563604L184.33333333333334,102.47640074477978L185.5,91.11192229067753L186.66666666666666,89.27862899164188L187.83333333333331,117.18903192024781L189,130.07009084417328L190.16666666666669,142.0972320087026L191.33333333333334,147.36439532431675L192.5,145.179251262448L193.66666666666666,149.75416603293849L194.83333333333331,154.47823190942415L196,147.42374246922682L197.16666666666669,144.98525749969647L198.33333333333334,131.13372630997668L199.5,137.7285837879863L200.66666666666666,148.2787585792864L201.83333333333334,141.547926472085L203,146.74027456646783L204.16666666666666,144.3469222338968L205.33333333333331,146.13410084394818L206.5,116.23020991110273L207.66666666666669,137.96781293081054L208.83333333333334,138.43330013903426L210,143.84537484194848L211.16666666666666,146.1532792619175L212.33333333333331,155.15073565182018L213.5,156.50880037595263L214.66666666666669,140.163395222395L215.83333333333334,150.6082239660384L217,152.05601017388634L218.16666666666666,144.46020253346305L219.33333333333334,144.10541996755674L220.5,153.8873248888055L221.66666666666666,156.82067002558162L222.83333333333331,150.96894164450492L224,146.7888030308175L225.16666666666669,147.1122403007993L226.33333333333334,142.17216796379054L227.5,152.92170509409277L228.66666666666666,151.7747784407708L229.83333333333331,158.81125753505395L231,164.12204634342248L232.16666666666669,171.59633155255435L233.33333333333334,127.36470810255034L234.5,130.12395111240411L235.66666666666666,134.2670099077941L236.83333333333334,129.70990457383897L238,133.10507954615312L239.16666666666666,147.75097154055808L240.33333333333331,153.80655932601067L241.5,126.33401576276994L242.66666666666669,97.03781384530942L243.83333333333334,95.97759576674811L245,122.7415316096228L246.16666666666666,144.8527093546179L247.33333333333331,147.83881266866194L248.5,145.3041695386143L249.66666666666669,151.65676446789874L250.83333333333334,161.4603551509045L252,162.48412366727638L253.16666666666666,166.56435477311834L254.33333333333334,168.67390486290762L255.5,160.885903247702L256.66666666666663,122.19020165386996" style="fill: none;" fill="none"></path></g></g></g></g><g opacity="0.2"><g><g><g><path stroke="rgb(255, 112, 67)" stroke-width="2px" d="M26.833333333333336,-53.41100045767696L28,27.88178741390056L29.166666666666668,-66.79578955065118L30.333333333333336,46.00507098978217L31.5,52.54181674393742L32.666666666666664,-14.960965275764426L33.833333333333336,82.90329382636331L35,35.46751707250423L36.16666666666667,76.3515382680026L37.333333333333336,31.26832053878093L38.5,40.64043269374156L39.666666666666664,0.27611997452651704L40.833333333333336,59.47900776971473L42,39.74444808743218L43.16666666666667,15.68454717506064L44.33333333333333,-74.83579357103865L45.5,65.65223332968625L46.666666666666664,28.359895234758213L47.833333333333336,28.971388903531185L49,80.45094118335031L50.166666666666664,71.12743106213483L51.33333333333333,67.9901901646094L52.5,52.59202525832437L53.66666666666667,68.72763671116397L54.833333333333336,34.446083112196504L56,61.97763664614072L57.166666666666664,34.49154411662711L58.333333333333336,-18.128801237453093L59.5,76.94154825535688L60.66666666666667,38.582602923566654L61.83333333333333,67.70862446048044L63,43.23123039982537L64.16666666666666,88.04726881872526L65.33333333333333,118.98818188905716L66.5,101.44385475462134L67.66666666666667,81.49275586821817L68.83333333333333,-2.979976513168993L70,69.10333738543771L71.16666666666666,58.30548564954239L72.33333333333334,48.03571047566155L73.5,109.51733111793345L74.66666666666667,108.79808335954493L75.83333333333333,57.66171850399538L77,122.29554189335218L78.16666666666667,117.28822565349667L79.33333333333333,85.18869236924432L80.5,112.6141342601993L81.66666666666667,91.34258021820678L82.83333333333333,101.73462775078687L84,135.4101545106281L85.16666666666666,91.82343344254929L86.33333333333334,82.31972175023775L87.5,102.06025178595021L88.66666666666666,58.03173655271532L89.83333333333334,78.22284844246778L91,103.64502096176147L92.16666666666667,16.644982825626045L93.33333333333333,118.45565753362395L94.5,89.96849977970123L95.66666666666667,84.14494750987402L96.83333333333333,131.71345073526555L98,101.24617371504958L99.16666666666667,97.58586751601912L100.33333333333333,111.75250915776601L101.5,96.40514021028174L102.66666666666666,98.79880835522304L103.83333333333334,134.94307625835592L105,2.894179896874888L106.16666666666666,107.14894706010818L107.33333333333334,96.06825882196426L108.5,123.25721237605268L109.66666666666667,141.84577590498057L110.83333333333333,75.02752247994597L112,107.12667212703012L113.16666666666667,108.45830071514304L114.33333333333333,99.80450120297346L115.5,138.69684606248683L116.66666666666667,154.5843521654606L117.83333333333333,93.30382933128966L119,147.69766937060788L120.16666666666666,93.49453296986493L121.33333333333334,104.90733110904694L122.5,104.26195748285815L123.66666666666666,137.7339887022972L124.83333333333334,105.34767464616083L126,136.9023112763058L127.16666666666667,139.72591680017385L128.33333333333331,89.9302079948512L129.5,127.06017165834254L130.66666666666666,112.549155714837L131.83333333333334,119.78305412422529L133,132.65658674727786L134.16666666666669,106.23696957934986L135.33333333333334,88.77759410034528L136.5,77.6452946744182L137.66666666666666,120.08818953687495L138.83333333333334,94.99004656076431L140,153.04631479219958L141.16666666666666,135.8821720914407L142.33333333333331,94.56559998880735L143.5,127.9094844054092L144.66666666666669,137.57326870614833L145.83333333333334,117.79462671550839L147,145.18703984401444L148.16666666666666,106.73123811591755L149.33333333333334,97.58432097868487L150.5,155.44584539261731L151.66666666666666,117.16650477322666L152.83333333333331,79.12806431813675L154,152.71936001560906L155.16666666666669,35.07510420409116L156.33333333333334,142.88112870129672L157.5,93.75475885651328L158.66666666666666,148.66288849711418L159.83333333333331,137.90171007676557L161,161.579124732451L162.16666666666669,140.63909314708278L163.33333333333334,153.35855948112228L164.5,101.53803767941214L165.66666666666666,131.14373755184087L166.83333333333334,138.52504854310644L168,121.50282761725514L169.16666666666666,123.44132225079969L170.33333333333331,123.22091070901266L171.5,155.56641536138275L172.66666666666669,140.28436064178294L173.83333333333334,143.7433052821593L175,130.26248701052234L176.16666666666666,120.84034617109731L177.33333333333331,154.9636014835401L178.5,144.87365623224866L179.66666666666669,152.85854837569323L180.83333333333334,154.34420728683472L182,135.02579802274704L183.16666666666666,145.69261368838224L184.33333333333334,39.40900533849544L185.5,74.06520460952412L186.66666666666666,86.5286890430884L187.83333333333331,159.05463631315664L189,149.39167923006144L190.16666666666669,160.13794375549662L191.33333333333334,155.265140297738L192.5,141.9015351696448L193.66666666666666,156.61653818867424L194.83333333333331,161.56433072415265L196,136.84200830893084L197.16666666666669,141.32753004540098L198.33333333333334,110.35642952539705L199.5,147.6208700050007L200.66666666666666,164.10402076623657L201.83333333333334,131.45167831128293L203,154.52879670804197L204.16666666666666,140.7568937350403L205.33333333333331,148.81486875902522L206.5,71.37437351183459L207.66666666666669,170.57421746037224L208.83333333333334,139.13153095136988L210,151.96348689631984L211.16666666666666,149.615135891871L212.33333333333331,168.64692023667422L213.5,158.54589746215126L214.66666666666669,115.6452874920585L215.83333333333334,166.27546708150342L217,154.2276894856583L218.16666666666666,133.06649107282811L219.33333333333334,143.57324611869726L220.5,168.5601822706786L221.66666666666666,161.22068773074582L222.83333333333331,142.19134907288984L224,140.51859511028636L225.16666666666669,147.59739620577204L226.33333333333334,134.76205945827743L227.5,169.0460107895461L228.66666666666666,150.05438846078786L229.83333333333331,169.36597617647865L231,172.08822955597532L232.16666666666669,182.8077593662522L233.33333333333334,61.01727292754434L234.5,134.2628156271848L235.66666666666666,140.48159810087898L236.83333333333334,122.87424657290632L238,138.19784200462428L239.16666666666666,169.71980953216553L240.33333333333331,162.88994100418958L241.5,85.12520041790876L242.66666666666669,53.093510969118654L243.83333333333334,94.3872686489062L245,162.88743537393484L246.16666666666666,178.01947597211057L247.33333333333331,152.31796763972804L248.5,141.50220484354278L249.66666666666669,161.18565686182544L250.83333333333334,176.16574117541313L252,164.01977644183418L253.16666666666666,172.6847014318813L254.33333333333334,171.83822999759153L255.5,149.2039008248936L256.66666666666663,64.14664926312189" style="fill: none;" fill="none"></path></g></g></g></g></g></g><g transform="translate(50, 177)" clip-path="url(#clip_1)"><clipPath id="clip_1"><rect width="280" height="23"></rect></clipPath><g><g><line x1="0" y1="0" x2="0" y2="5" style="visibility: inherit;" fill="rgb(0, 0, 0)" stroke="rgb(204, 204, 204)" stroke-width="1px"></line><line x1="23.333333333333332" y1="0" x2="23.333333333333332" y2="5" style="visibility: inherit;" fill="rgb(0, 0, 0)" stroke="rgb(204, 204, 204)" stroke-width="1px"></line><line x1="46.666666666666664" y1="0" x2="46.666666666666664" y2="5" style="visibility: inherit;" fill="rgb(0, 0, 0)" stroke="rgb(204, 204, 204)" stroke-width="1px"></line><line x1="70" y1="0" x2="70" y2="5" style="visibility: inherit;" fill="rgb(0, 0, 0)" stroke="rgb(204, 204, 204)" stroke-width="1px"></line><line x1="93.33333333333333" y1="0" x2="93.33333333333333" y2="5" style="visibility: inherit;" fill="rgb(0, 0, 0)" stroke="rgb(204, 204, 204)" stroke-width="1px"></line><line x1="116.66666666666667" y1="0" x2="116.66666666666667" y2="5" style="visibility: inherit;" fill="rgb(0, 0, 0)" stroke="rgb(204, 204, 204)" stroke-width="1px"></line><line x1="140" y1="0" x2="140" y2="5" style="visibility: inherit;" fill="rgb(0, 0, 0)" stroke="rgb(204, 204, 204)" stroke-width="1px"></line><line x1="163.33333333333334" y1="0" x2="163.33333333333334" y2="5" style="visibility: inherit;" fill="rgb(0, 0, 0)" stroke="rgb(204, 204, 204)" stroke-width="1px"></line><line x1="186.66666666666666" y1="0" x2="186.66666666666666" y2="5" style="visibility: inherit;" fill="rgb(0, 0, 0)" stroke="rgb(204, 204, 204)" stroke-width="1px"></line><line x1="210" y1="0" x2="210" y2="5" style="visibility: inherit;" fill="rgb(0, 0, 0)" stroke="rgb(204, 204, 204)" stroke-width="1px"></line><line x1="233.33333333333334" y1="0" x2="233.33333333333334" y2="5" style="visibility: inherit;" fill="rgb(0, 0, 0)" stroke="rgb(204, 204, 204)" stroke-width="1px"></line><line x1="256.66666666666663" y1="0" x2="256.66666666666663" y2="5" style="visibility: inherit;" fill="rgb(0, 0, 0)" stroke="rgb(204, 204, 204)" stroke-width="1px"></line><line x1="280" y1="0" x2="280" y2="5" style="visibility: inherit;" fill="rgb(0, 0, 0)" stroke="rgb(204, 204, 204)" stroke-width="1px"></line></g><g transform="translate(0, 8)"><text x="0" y="0" dx="0em" dy="0.95em" style="text-anchor: middle; visibility: hidden; font-family: Roboto, sans-serif; font-size: 12px; font-weight: 200;" fill="rgb(33, 33, 33)" stroke="none" stroke-width="1px">-2k</text><text x="23.333333333333332" y="0" dx="0em" dy="0.95em" style="text-anchor: middle; visibility: inherit; font-family: Roboto, sans-serif; font-size: 12px; font-weight: 200;" fill="rgb(33, 33, 33)" stroke="none" stroke-width="1px">0</text><text x="46.666666666666664" y="0" dx="0em" dy="0.95em" style="text-anchor: middle; visibility: hidden; font-family: Roboto, sans-serif; font-size: 12px; font-weight: 200;" fill="rgb(33, 33, 33)" stroke="none" stroke-width="1px">2k</text><text x="70" y="0" dx="0em" dy="0.95em" style="text-anchor: middle; visibility: inherit; font-family: Roboto, sans-serif; font-size: 12px; font-weight: 200;" fill="rgb(33, 33, 33)" stroke="none" stroke-width="1px">4k</text><text x="93.33333333333333" y="0" dx="0em" dy="0.95em" style="text-anchor: middle; visibility: hidden; font-family: Roboto, sans-serif; font-size: 12px; font-weight: 200;" fill="rgb(33, 33, 33)" stroke="none" stroke-width="1px">6k</text><text x="116.66666666666667" y="0" dx="0em" dy="0.95em" style="text-anchor: middle; visibility: inherit; font-family: Roboto, sans-serif; font-size: 12px; font-weight: 200;" fill="rgb(33, 33, 33)" stroke="none" stroke-width="1px">8k</text><text x="140" y="0" dx="0em" dy="0.95em" style="text-anchor: middle; visibility: hidden; font-family: Roboto, sans-serif; font-size: 12px; font-weight: 200;" fill="rgb(33, 33, 33)" stroke="none" stroke-width="1px">10k</text><text x="163.33333333333334" y="0" dx="0em" dy="0.95em" style="text-anchor: middle; visibility: inherit; font-family: Roboto, sans-serif; font-size: 12px; font-weight: 200;" fill="rgb(33, 33, 33)" stroke="none" stroke-width="1px">12k</text><text x="186.66666666666666" y="0" dx="0em" dy="0.95em" style="text-anchor: middle; visibility: hidden; font-family: Roboto, sans-serif; font-size: 12px; font-weight: 200;" fill="rgb(33, 33, 33)" stroke="none" stroke-width="1px">14k</text><text x="210" y="0" dx="0em" dy="0.95em" style="text-anchor: middle; visibility: inherit; font-family: Roboto, sans-serif; font-size: 12px; font-weight: 200;" fill="rgb(33, 33, 33)" stroke="none" stroke-width="1px">16k</text><text x="233.33333333333334" y="0" dx="0em" dy="0.95em" style="text-anchor: middle; visibility: hidden; font-family: Roboto, sans-serif; font-size: 12px; font-weight: 200;" fill="rgb(33, 33, 33)" stroke="none" stroke-width="1px">18k</text><text x="256.66666666666663" y="0" dx="0em" dy="0.95em" style="text-anchor: middle; visibility: inherit; font-family: Roboto, sans-serif; font-size: 12px; font-weight: 200;" fill="rgb(33, 33, 33)" stroke="none" stroke-width="1px">20k</text><text x="280" y="0" dx="0em" dy="0.95em" style="text-anchor: middle; visibility: hidden; font-family: Roboto, sans-serif; font-size: 12px; font-weight: 200;" fill="rgb(33, 33, 33)" stroke="none" stroke-width="1px">22k</text></g><line x1="0" y1="0" x2="280" y2="0" fill="rgb(0, 0, 0)" stroke="rgb(204, 204, 204)" stroke-width="1px"></line></g></g></g></g></svg>