<svg viewBox="0 0 330 200" xmlns="http://www.w3.org/2000/svg"><g><g><g><g><g><line x1="60" y1="177" x2="55" y2="177" style="visibility: inherit;" fill="rgb(0, 0, 0)" stroke="rgb(204, 204, 204)" stroke-width="1px"></line><line x1="60" y1="163.3846153846154" x2="55" y2="163.3846153846154" style="visibility: inherit;" fill="rgb(0, 0, 0)" stroke="rgb(204, 204, 204)" stroke-width="1px"></line><line x1="60" y1="149.76923076923077" x2="55" y2="149.76923076923077" style="visibility: inherit;" fill="rgb(0, 0, 0)" stroke="rgb(204, 204, 204)" stroke-width="1px"></line><line x1="60" y1="136.15384615384613" x2="55" y2="136.15384615384613" style="visibility: inherit;" fill="rgb(0, 0, 0)" stroke="rgb(204, 204, 204)" stroke-width="1px"></line><line x1="60" y1="122.53846153846153" x2="55" y2="122.53846153846153" style="visibility: inherit;" fill="rgb(0, 0, 0)" stroke="rgb(204, 204, 204)" stroke-width="1px"></line><line x1="60" y1="108.92307692307693" x2="55" y2="108.92307692307693" style="visibility: inherit;" fill="rgb(0, 0, 0)" stroke="rgb(204, 204, 204)" stroke-width="1px"></line><line x1="60" y1="95.30769230769232" x2="55" y2="95.30769230769232" style="visibility: inherit;" fill="rgb(0, 0, 0)" stroke="rgb(204, 204, 204)" stroke-width="1px"></line><line x1="60" y1="81.6923076923077" x2="55" y2="81.6923076923077" style="visibility: inherit;" fill="rgb(0, 0, 0)" stroke="rgb(204, 204, 204)" stroke-width="1px"></line><line x1="60" y1="68.07692307692307" x2="55" y2="68.07692307692307" style="visibility: inherit;" fill="rgb(0, 0, 0)" stroke="rgb(204, 204, 204)" stroke-width="1px"></line><line x1="60" y1="54.46153846153847" x2="55" y2="54.46153846153847" style="visibility: inherit;" fill="rgb(0, 0, 0)" stroke="rgb(204, 204, 204)" stroke-width="1px"></line><line x1="60" y1="40.84615384615386" x2="55" y2="40.84615384615386" style="visibility: inherit;" fill="rgb(0, 0, 0)" stroke="rgb(204, 204, 204)" stroke-width="1px"></line><line x1="60" y1="27.230769230769234" x2="55" y2="27.230769230769234" style="visibility: inherit;" fill="rgb(0, 0, 0)" stroke="rgb(204, 204, 204)" stroke-width="1px"></line><line x1="60" y1="13.615384615384606" x2="55" y2="13.615384615384606" style="visibility: inherit;" fill="rgb(0, 0, 0)" stroke="rgb(204, 204, 204)" stroke-width="1px"></line><line x1="60" y1="0" x2="55" y2="0" style="visibility: inherit;" fill="rgb(0, 0, 0)" stroke="rgb(204, 204, 204)" stroke-width="1px"></line></g><g transform="translate(50, 0)"><text x="0" y="177" dx="0em" dy="0.3em" style="text-anchor: end; visibility: hidden; font-family: Roboto, sans-serif; font-size: 12px; font-weight: 200;" fill="rgb(33, 33, 33)" stroke="none" stroke-width="1px">0.01</text><text x="0" y="163.3846153846154" dx="0em" dy="0.3em" style="text-anchor: end; visibility: inherit; font-family: Roboto, sans-serif; font-size: 12px; font-weight: 200;" fill="rgb(33, 33, 33)" stroke="none" stroke-width="1px">0.015</text><text x="0" y="149.76923076923077" dx="0em" dy="0.3em" style="text-anchor: end; visibility: hidden; font-family: Roboto, sans-serif; font-size: 12px; font-weight: 200;" fill="rgb(33, 33, 33)" stroke="none" stroke-width="1px">0.02</text><text x="0" y="136.15384615384613" dx="0em" dy="0.3em" style="text-anchor: end; visibility: inherit; font-family: Roboto, sans-serif; font-size: 12px; font-weight: 200;" fill="rgb(33, 33, 33)" stroke="none" stroke-width="1px">0.025</text><text x="0" y="122.53846153846153" dx="0em" dy="0.3em" style="text-anchor: end; visibility: hidden; font-family: Roboto, sans-serif; font-size: 12px; font-weight: 200;" fill="rgb(33, 33, 33)" stroke="none" stroke-width="1px">0.03</text><text x="0" y="108.92307692307693" dx="0em" dy="0.3em" style="text-anchor: end; visibility: inherit; font-family: Roboto, sans-serif; font-size: 12px; font-weight: 200;" fill="rgb(33, 33, 33)" stroke="none" stroke-width="1px">0.035</text><text x="0" y="95.30769230769232" dx="0em" dy="0.3em" style="text-anchor: end; visibility: hidden; font-family: Roboto, sans-serif; font-size: 12px; font-weight: 200;" fill="rgb(33, 33, 33)" stroke="none" stroke-width="1px">0.04</text><text x="0" y="81.6923076923077" dx="0em" dy="0.3em" style="text-anchor: end; visibility: inherit; font-family: Roboto, sans-serif; font-size: 12px; font-weight: 200;" fill="rgb(33, 33, 33)" stroke="none" stroke-width="1px">0.045</text><text x="0" y="68.07692307692307" dx="0em" dy="0.3em" style="text-anchor: end; visibility: hidden; font-family: Roboto, sans-serif; font-size: 12px; font-weight: 200;" fill="rgb(33, 33, 33)" stroke="none" stroke-width="1px">0.05</text><text x="0" y="54.46153846153847" dx="0em" dy="0.3em" style="text-anchor: end; visibility: inherit; font-family: Roboto, sans-serif; font-size: 12px; font-weight: 200;" fill="rgb(33, 33, 33)" stroke="none" stroke-width="1px">0.055</text><text x="0" y="40.84615384615386" dx="0em" dy="0.3em" style="text-anchor: end; visibility: hidden; font-family: Roboto, sans-serif; font-size: 12px; font-weight: 200;" fill="rgb(33, 33, 33)" stroke="none" stroke-width="1px">0.06</text><text x="0" y="27.230769230769234" dx="0em" dy="0.3em" style="text-anchor: end; visibility: inherit; font-family: Roboto, sans-serif; font-size: 12px; font-weight: 200;" fill="rgb(33, 33, 33)" stroke="none" stroke-width="1px">0.065</text><text x="0" y="13.615384615384606" dx="0em" dy="0.3em" style="text-anchor: end; visibility: hidden; font-family: Roboto, sans-serif; font-size: 12px; font-weight: 200;" fill="rgb(33, 33, 33)" stroke="none" stroke-width="1px">0.07</text><text x="0" y="0" dx="0em" dy="0.3em" style="text-anchor: end; visibility: hidden; font-family: Roboto, sans-serif; font-size: 12px; font-weight: 200;" fill="rgb(33, 33, 33)" stroke="none" stroke-width="1px">0.075</text></g><line x1="60" y1="0" x2="60" y2="177" fill="rgb(0, 0, 0)" stroke="rgb(204, 204, 204)" stroke-width="1px"></line></g></g><g transform="translate(60, 0)" clip-path="url(#clip_0)"><clipPath id="clip_0"><rect width="270" height="177"></rect></clipPath><g><g><g><line x1="0" y1="0" x2="0" y2="177" fill="rgb(0, 0, 0)" stroke="rgb(66, 66, 66)" stroke-width="1px" opacity="0.25"></line><line x1="22.5" y1="0" x2="22.5" y2="177" fill="rgb(0, 0, 0)" stroke="rgb(66, 66, 66)" stroke-width="1px" opacity="0.25"></line><line x1="45" y1="0" x2="45" y2="177" fill="rgb(0, 0, 0)" stroke="rgb(66, 66, 66)" stroke-width="1px" opacity="0.25"></line><line x1="67.5" y1="0" x2="67.5" y2="177" fill="rgb(0, 0, 0)" stroke="rgb(66, 66, 66)" stroke-width="1px" opacity="0.25"></line><line x1="90" y1="0" x2="90" y2="177" fill="rgb(0, 0, 0)" stroke="rgb(66, 66, 66)" stroke-width="1px" opacity="0.25"></line><line x1="112.5" y1="0" x2="112.5" y2="177" fill="rgb(0, 0, 0)" stroke="rgb(66, 66, 66)" stroke-width="1px" opacity="0.25"></line><line x1="135" y1="0" x2="135" y2="177" fill="rgb(0, 0, 0)" stroke="rgb(66, 66, 66)" stroke-width="1px" opacity="0.25"></line><line x1="157.5" y1="0" x2="157.5" y2="177" fill="rgb(0, 0, 0)" stroke="rgb(66, 66, 66)" stroke-width="1px" opacity="0.25"></line><line x1="180" y1="0" x2="180" y2="177" fill="rgb(0, 0, 0)" stroke="rgb(66, 66, 66)" stroke-width="1px" opacity="0.25"></line><line x1="202.5" y1="0" x2="202.5" y2="177" fill="rgb(0, 0, 0)" stroke="rgb(66, 66, 66)" stroke-width="1px" opacity="0.25"></line><line x1="225" y1="0" x2="225" y2="177" fill="rgb(0, 0, 0)" stroke="rgb(66, 66, 66)" stroke-width="1px" opacity="0.25"></line><line x1="247.5" y1="0" x2="247.5" y2="177" fill="rgb(0, 0, 0)" stroke="rgb(66, 66, 66)" stroke-width="1px" opacity="0.25"></line><line x1="270" y1="0" x2="270" y2="177" fill="rgb(0, 0, 0)" stroke="rgb(66, 66, 66)" stroke-width="1px" opacity="0.25"></line></g><g><line x1="0" y1="177" x2="270" y2="177" fill="rgb(0, 0, 0)" stroke="rgb(66, 66, 66)" stroke-width="1px" opacity="0.25"></line><line x1="0" y1="163.3846153846154" x2="270" y2="163.3846153846154" fill="rgb(0, 0, 0)" stroke="rgb(66, 66, 66)" stroke-width="1px" opacity="0.25"></line><line x1="0" y1="149.76923076923077" x2="270" y2="149.76923076923077" fill="rgb(0, 0, 0)" stroke="rgb(66, 66, 66)" stroke-width="1px" opacity="0.25"></line><line x1="0" y1="136.15384615384613" x2="270" y2="136.15384615384613" fill="rgb(0, 0, 0)" stroke="rgb(66, 66, 66)" stroke-width="1px" opacity="0.25"></line><line x1="0" y1="122.53846153846153" x2="270" y2="122.53846153846153" fill="rgb(0, 0, 0)" stroke="rgb(66, 66, 66)" stroke-width="1px" opacity="0.25"></line><line x1="0" y1="108.92307692307693" x2="270" y2="108.92307692307693" fill="rgb(0, 0, 0)" stroke="rgb(66, 66, 66)" stroke-width="1px" opacity="0.25"></line><line x1="0" y1="95.30769230769232" x2="270" y2="95.30769230769232" fill="rgb(0, 0, 0)" stroke="rgb(66, 66, 66)" stroke-width="1px" opacity="0.25"></line><line x1="0" y1="81.6923076923077" x2="270" y2="81.6923076923077" fill="rgb(0, 0, 0)" stroke="rgb(66, 66, 66)" stroke-width="1px" opacity="0.25"></line><line x1="0" y1="68.07692307692307" x2="270" y2="68.07692307692307" fill="rgb(0, 0, 0)" stroke="rgb(66, 66, 66)" stroke-width="1px" opacity="0.25"></line><line x1="0" y1="54.46153846153847" x2="270" y2="54.46153846153847" fill="rgb(0, 0, 0)" stroke="rgb(66, 66, 66)" stroke-width="1px" opacity="0.25"></line><line x1="0" y1="40.84615384615386" x2="270" y2="40.84615384615386" fill="rgb(0, 0, 0)" stroke="rgb(66, 66, 66)" stroke-width="1px" opacity="0.25"></line><line x1="0" y1="27.230769230769234" x2="270" y2="27.230769230769234" fill="rgb(0, 0, 0)" stroke="rgb(66, 66, 66)" stroke-width="1px" opacity="0.25"></line><line x1="0" y1="13.615384615384606" x2="270" y2="13.615384615384606" fill="rgb(0, 0, 0)" stroke="rgb(66, 66, 66)" stroke-width="1px" opacity="0.25"></line><line x1="0" y1="0" x2="270" y2="0" fill="rgb(0, 0, 0)" stroke="rgb(66, 66, 66)" stroke-width="1px" opacity="0.25"></line></g></g></g><g><g><line x1="0" y1="204.23076923076923" x2="270" y2="204.23076923076923" fill="rgb(0, 0, 0)" stroke="rgb(153, 153, 153)" stroke-width="1.5px"></line></g></g><g><g><line x1="22.5" y1="0" x2="22.5" y2="177" fill="rgb(0, 0, 0)" stroke="rgb(153, 153, 153)" stroke-width="1.5px"></line></g></g><g><g><g><g><g><path stroke="rgb(255, 112, 67)" stroke-width="2px" d="M29.25,-32.37677988194659L30.375,10.790995422568487L31.5,-3.483733387827554L32.625,34.610978658275066L33.75,45.59678978554434L34.875,66.62486790904447L36,30.837639454950875L37.125,32.392201398075684L38.25,15.768420188846868L39.375,39.21734219460031L40.5,39.27074581965206L41.625,53.8189292920094L42.75,6.598545102763305L43.875,33.85610249625391L45,21.585063462570382L46.125,19.588285870816748L47.25,61.168327989521515L48.375,57.63642144495169L49.5,65.64305981541912L50.625,50.07595538144009L51.75,50.44403027432983L52.875,47.92954342602513L54,63.552163892462936L55.125,56.01990171416824L56.25,27.733548470197256L57.375,45.46528412014197L58.5,51.541386322391915L59.625,63.66788185194704L60.75,35.21997049108469L61.875,53.8684707924579L63,81.3699563097535L64.125,93.46743657084302L65.25,86.98955641715989L66.375,36.99111614865963L67.5,42.32744409520618L68.625,68.00033759857101L69.75,75.67982223458642L70.875,93.51025745959782L72,97.29728836528295L73.125,78.7123769150516L74.25,95.70113481179347L75.375,112.47008443594424L76.5,92.47568283098785L77.625,91.98931889213861L78.75,100.54485052565495L79.875,105.98978875539599L81,122.8659840226686L82.125,112.17440158313346L83.25,97.34723372752026L84.375,104.83238654202655L85.5,96.4895832581047L86.625,101.11370990622794L87.75,115.60873703284356L88.875,99.08866842416613L90,111.16270497338644L91.125,93.564537370964L92.25,83.30438097449128L93.375,106.61948381786912L94.5,95.0364138465797L95.625,100.82528534835019L96.75,109.25812090037911L97.875,113.6623108087973L99,116.18884552023479L100.125,125.57736733808962L101.25,64.4134048820977L102.375,82.72635268073256L103.5,93.68678868720747L104.625,111.87695896480066L105.75,129.79495301205222L106.875,83.09020518644864L108,98.13246565231671L109.125,103.87637956930898L110.25,97.88856134594319L111.375,115.03909262563215L112.5,133.4854590173366L113.625,126.80953342907902L114.75,135.17252171704982L115.875,107.02523064645787L117,101.32767024243087L118.125,106.08717030463525L119.25,118.91266153881772L120.375,127.4301255900987L121.5,117.8787290319629L122.625,132.95894995305517L123.75,111.28897262291567L124.875,127.87443603451158L126,133.31173900910358L127.125,133.55758137149343L128.25,130.91814222306266L129.375,108.92644492516762L130.5,92.274030103357L131.625,72.72623320739673L132.75,78.36346768148847L133.875,83.03614099507396L135,113.2350746764143L136.125,121.03892960756652L137.25,107.20649341066306L138.375,126.71021509681991L139.5,128.48297422697593L140.625,133.2816012879591L141.75,147.69709585765213L142.875,131.6356002333392L144,99.041615309872L145.125,121.8600293385639L146.25,110.6024503572148L147.375,90.27126614966625L148.5,115.17195189060719L149.625,50.50810466033009L150.75,90.47064159360447L151.875,92.72715737389139L153,104.338196006906L154.125,117.45105919184115L155.25,139.26233659008088L156.375,139.586066671356L157.5,148.30304676688073L158.625,136.3543659894066L159.75,145.46158963822015L160.875,148.11813282369417L162,145.15405963759466L163.125,147.13277075919328L164.25,143.8949448443498L165.375,143.92850581499977L166.5,147.44027569111014L167.625,152.70484156553826L168.75,147.70387544901712L169.875,139.21584176133692L171,147.4712422730547L172.125,153.93774529212385L173.25,156.5877559569605L174.375,156.94556440634298L175.5,160.27359042346293L176.625,154.89672877657304L177.75,104.5282720957731L178.875,100.32935110261327L180,85.77400170743176L181.125,114.84357251283582L182.25,131.18204034577963L183.375,136.32679935315252L184.5,144.1037482473699L185.625,141.2556825848489L186.75,152.27016581267986L187.875,159.58706047499243L189,149.42250036401603L190.125,148.07964529057637L191.25,112.13929906303325L192.375,130.64863418505297L193.5,148.98972041311364L194.625,142.52430444485066L195.75,153.8324223971548L196.875,157.68953725448193L198,159.57009171603377L199.125,117.34191550523379L200.25,138.93291215632254L201.375,139.96393600653712L202.5,144.9513834596434L203.625,144.7100124861179L204.75,152.14671679698466L205.875,159.93410027083044L207,143.32699675226746L208.125,153.96425788459365L209.25,153.73594432525607L210.375,152.41493532193903L211.5,151.4874641178808L212.625,161.63945978088515L213.75,170.34271179604684L214.875,156.04108827232673L216,156.6761772838701L217.125,159.8642720343842L218.25,159.177397504716L219.375,160.96757976130777L220.5,153.57916131978297L221.625,162.14284076128826L222.75,168.95273595124368L223.875,171.88572911363772L225,64.96912322743357L226.125,93.15221483429903L227.25,114.88154307877478L228.375,103.9768751797222L229.5,120.18751207169596L230.625,139.22978691701576L231.75,151.19508775462475L232.875,122.2381904542753L234,38.894857052032854L235.125,35.78467109019212L236.25,85.08978223195005L237.375,124.79936525744856L238.5,135.69362377285708L239.625,150.29077720966555L240.75,162.48527335788012L241.875,166.42051244568256L243,170.52595597954374L244.125,173.95445579720146L245.25,177.46673342705867L246.375,180.09433478349646L247.5,141.19035013045007" style="fill: none;" fill="none"></path></g></g></g></g><g opacity="0.2"><g><g><g><path stroke="rgb(255, 112, 67)" stroke-width="2px" d="M28.125,-85.14300811749237L29.25,41.73180142274271L30.375,72.52160479242987L31.5,-24.29642503078169L32.625,90.79327940940857L33.75,61.909438979167206L34.875,97.97626197338104L36,-22.648450709306267L37.125,34.71896839829593L38.25,-9.134683907032013L39.375,74.36316187565143L40.5,39.35081359285575L41.625,75.63504819686598L42.75,-64.2200419306755L43.875,74.73828617196818L45,3.179626533618328L46.125,16.593228991215053L47.25,123.53702295858128L48.375,52.338631359430465L49.5,77.65292252485568L50.625,26.725409374787276L51.75,50.99614104399315L52.875,44.157819587450774L54,86.98607060771724L55.125,44.721515385004196L56.25,-14.695965762321771L57.375,72.06288171502261L58.5,60.65553841682582L59.625,81.85762369861972L60.75,-7.451894512543324L61.875,81.84122044306537L63,122.62218387654194L64.125,111.61365677530951L65.25,77.27273624676926L66.375,-38.00654397561002L67.5,50.33193599719268L68.625,106.50967780214089L69.75,87.1990491793706L70.875,120.25591028424411L72,102.97783472217047L73.125,50.83500974453414L74.25,121.18427165425742L75.375,137.62350887060165L76.5,62.48408042467559L77.625,91.25977298388115L78.75,113.37814797575659L79.875,114.15719609994156L81,148.18027692345473L82.125,96.13702792387741L83.25,75.1064819441392L84.375,116.06011576377429L85.5,83.97537833222977L86.625,108.04989987841019L87.75,137.35127772276218L88.875,74.30856551115329L90,129.27375979721546L91.125,67.16728596733168L92.25,67.91414637978262L93.375,141.59213808293526L94.5,77.6618088896458L95.625,109.50859260100586L96.75,121.90737422842247L97.875,120.2685956714245L99,119.97864758739105L100.125,139.66015006487186L101.25,-27.33253880189017L102.375,110.19577437868485L103.5,110.12744269691981L104.625,139.16221438119044L105.75,156.67194408292954L106.875,13.033083448043245L108,120.69585635111883L109.125,112.49225044479736L110.25,88.90683401089447L111.375,140.76488954516557L112.5,161.15500860489334L113.625,116.79564504669264L114.75,147.71700414900596L115.875,64.8042940405699L117,92.78132963639038L118.125,113.2264203979419L119.25,138.15089839009138L120.375,140.20632166702015L121.5,103.55163419475922L122.625,155.5792813346936L123.75,78.7840066277064L124.875,152.75263115190543L126,141.46769347099158L127.125,133.92634491507823L128.25,126.95898350041645L129.375,75.93889897832504L130.5,67.29540787064113L131.625,43.4045378634563L132.75,86.81931939262611L133.875,90.0451509654522L135,158.53347519842478L136.125,132.74471200429477L137.25,86.45783911530788L138.375,155.9657976260552L139.5,131.14211292220998L140.625,140.47954187943387L141.75,169.32033771219162L142.875,107.54335679686987L144,50.15063792467117L145.125,156.08765038160178L146.25,93.71608188519112L147.375,59.77448983834341L148.5,152.52298050201858L149.625,-46.487666185085594L150.75,150.41444699351604L151.875,96.1119310443218L153,121.75475395642795L154.125,137.12035396924387L155.25,171.97925268744046L156.375,140.07166179326865L157.5,161.37851691016783L158.625,118.4313448231954L159.75,159.12242511144052L160.875,152.10294760190524L162,140.7079498584454L163.125,150.10083744159112L164.25,139.03820597208465L165.375,143.97884727097477L166.5,152.70793050527573L167.625,160.6016903771804L168.75,140.20242627423542L169.875,126.48379122981659L171,159.85434304063136L172.125,163.63749982072758L173.25,160.5627719542155L174.375,157.48227708041668L175.5,165.26562944914286L176.625,146.83143630623817L177.75,28.975587074573237L178.875,94.03096961287352L180,63.94097761465953L181.125,158.44792872094192L182.25,155.68974209519533L183.375,144.0439378642119L184.5,155.76917158869597L185.625,136.9835840910673L186.75,168.79189065442634L187.875,170.56240246846127L189,134.17566019755145L190.125,146.06536268041683L191.25,58.22877972171858L192.375,158.41263686808256L193.5,176.50134975520464L194.625,132.82618049245616L195.75,170.79459932561105L196.875,163.47520954047258L198,162.39092340836157L199.125,53.999651189033806L200.25,171.3194071329557L201.375,141.51047178185905L202.5,152.43255463930277L203.625,144.3479560258297L204.75,163.3017732632848L205.875,171.6151754815991L207,118.41634147442305L208.125,169.92014958308292L209.25,153.3934739862497L210.375,150.43342181696343L211.5,150.09625731179347L212.625,176.86745327539168L213.75,183.3975898187894L214.875,134.58865298674655L216,157.6288108011851L217.125,164.64641416015533L218.25,158.14708571021373L219.375,163.6528531461954L220.5,142.4965336574958L221.625,174.98835992354614L222.75,179.16757873617684L223.875,176.28521885722876L225,-95.40578560187265L226.125,135.4268522445972L227.25,147.47553544548842L228.375,87.61987333114332L229.5,144.5034674096566L230.625,167.79319918499542L231.75,169.14303901103827L232.875,78.80284450375117L234,-86.12014305133087L235.125,31.119392147431018L236.25,159.047448944587L237.375,184.3637397956963L238.5,152.0350115459699L239.625,172.18650736487828L240.75,180.77701758020197L241.875,172.32337107738624L243,176.68412128033546L244.125,179.09720552368805L246.375,184.0357368181531L247.5,82.83437315088054" style="fill: none;" fill="none"></path></g></g></g></g></g></g><g transform="translate(60, 177)" clip-path="url(#clip_1)"><clipPath id="clip_1"><rect width="270" height="23"></rect></clipPath><g><g><line x1="0" y1="0" x2="0" y2="5" style="visibility: inherit;" fill="rgb(0, 0, 0)" stroke="rgb(204, 204, 204)" stroke-width="1px"></line><line x1="22.5" y1="0" x2="22.5" y2="5" style="visibility: inherit;" fill="rgb(0, 0, 0)" stroke="rgb(204, 204, 204)" stroke-width="1px"></line><line x1="45" y1="0" x2="45" y2="5" style="visibility: inherit;" fill="rgb(0, 0, 0)" stroke="rgb(204, 204, 204)" stroke-width="1px"></line><line x1="67.5" y1="0" x2="67.5" y2="5" style="visibility: inherit;" fill="rgb(0, 0, 0)" stroke="rgb(204, 204, 204)" stroke-width="1px"></line><line x1="90" y1="0" x2="90" y2="5" style="visibility: inherit;" fill="rgb(0, 0, 0)" stroke="rgb(204, 204, 204)" stroke-width="1px"></line><line x1="112.5" y1="0" x2="112.5" y2="5" style="visibility: inherit;" fill="rgb(0, 0, 0)" stroke="rgb(204, 204, 204)" stroke-width="1px"></line><line x1="135" y1="0" x2="135" y2="5" style="visibility: inherit;" fill="rgb(0, 0, 0)" stroke="rgb(204, 204, 204)" stroke-width="1px"></line><line x1="157.5" y1="0" x2="157.5" y2="5" style="visibility: inherit;" fill="rgb(0, 0, 0)" stroke="rgb(204, 204, 204)" stroke-width="1px"></line><line x1="180" y1="0" x2="180" y2="5" style="visibility: inherit;" fill="rgb(0, 0, 0)" stroke="rgb(204, 204, 204)" stroke-width="1px"></line><line x1="202.5" y1="0" x2="202.5" y2="5" style="visibility: inherit;" fill="rgb(0, 0, 0)" stroke="rgb(204, 204, 204)" stroke-width="1px"></line><line x1="225" y1="0" x2="225" y2="5" style="visibility: inherit;" fill="rgb(0, 0, 0)" stroke="rgb(204, 204, 204)" stroke-width="1px"></line><line x1="247.5" y1="0" x2="247.5" y2="5" style="visibility: inherit;" fill="rgb(0, 0, 0)" stroke="rgb(204, 204, 204)" stroke-width="1px"></line><line x1="270" y1="0" x2="270" y2="5" style="visibility: inherit;" fill="rgb(0, 0, 0)" stroke="rgb(204, 204, 204)" stroke-width="1px"></line></g><g transform="translate(0, 8)"><text x="0" y="0" dx="0em" dy="0.95em" style="text-anchor: middle; visibility: hidden; font-family: Roboto, sans-serif; font-size: 12px; font-weight: 200;" fill="rgb(33, 33, 33)" stroke="none" stroke-width="1px">-2k</text><text x="22.5" y="0" dx="0em" dy="0.95em" style="text-anchor: middle; visibility: inherit; font-family: Roboto, sans-serif; font-size: 12px; font-weight: 200;" fill="rgb(33, 33, 33)" stroke="none" stroke-width="1px">0</text><text x="45" y="0" dx="0em" dy="0.95em" style="text-anchor: middle; visibility: hidden; font-family: Roboto, sans-serif; font-size: 12px; font-weight: 200;" fill="rgb(33, 33, 33)" stroke="none" stroke-width="1px">2k</text><text x="67.5" y="0" dx="0em" dy="0.95em" style="text-anchor: middle; visibility: inherit; font-family: Roboto, sans-serif; font-size: 12px; font-weight: 200;" fill="rgb(33, 33, 33)" stroke="none" stroke-width="1px">4k</text><text x="90" y="0" dx="0em" dy="0.95em" style="text-anchor: middle; visibility: hidden; font-family: Roboto, sans-serif; font-size: 12px; font-weight: 200;" fill="rgb(33, 33, 33)" stroke="none" stroke-width="1px">6k</text><text x="112.5" y="0" dx="0em" dy="0.95em" style="text-anchor: middle; visibility: inherit; font-family: Roboto, sans-serif; font-size: 12px; font-weight: 200;" fill="rgb(33, 33, 33)" stroke="none" stroke-width="1px">8k</text><text x="135" y="0" dx="0em" dy="0.95em" style="text-anchor: middle; visibility: hidden; font-family: Roboto, sans-serif; font-size: 12px; font-weight: 200;" fill="rgb(33, 33, 33)" stroke="none" stroke-width="1px">10k</text><text x="157.5" y="0" dx="0em" dy="0.95em" style="text-anchor: middle; visibility: inherit; font-family: Roboto, sans-serif; font-size: 12px; font-weight: 200;" fill="rgb(33, 33, 33)" stroke="none" stroke-width="1px">12k</text><text x="180" y="0" dx="0em" dy="0.95em" style="text-anchor: middle; visibility: hidden; font-family: Roboto, sans-serif; font-size: 12px; font-weight: 200;" fill="rgb(33, 33, 33)" stroke="none" stroke-width="1px">14k</text><text x="202.5" y="0" dx="0em" dy="0.95em" style="text-anchor: middle; visibility: inherit; font-family: Roboto, sans-serif; font-size: 12px; font-weight: 200;" fill="rgb(33, 33, 33)" stroke="none" stroke-width="1px">16k</text><text x="225" y="0" dx="0em" dy="0.95em" style="text-anchor: middle; visibility: hidden; font-family: Roboto, sans-serif; font-size: 12px; font-weight: 200;" fill="rgb(33, 33, 33)" stroke="none" stroke-width="1px">18k</text><text x="247.5" y="0" dx="0em" dy="0.95em" style="text-anchor: middle; visibility: inherit; font-family: Roboto, sans-serif; font-size: 12px; font-weight: 200;" fill="rgb(33, 33, 33)" stroke="none" stroke-width="1px">20k</text><text x="270" y="0" dx="0em" dy="0.95em" style="text-anchor: middle; visibility: hidden; font-family: Roboto, sans-serif; font-size: 12px; font-weight: 200;" fill="rgb(33, 33, 33)" stroke="none" stroke-width="1px">22k</text></g><line x1="0" y1="0" x2="270" y2="0" fill="rgb(0, 0, 0)" stroke="rgb(204, 204, 204)" stroke-width="1px"></line></g></g></g></g></svg>