<svg viewBox="0 0 330 200" xmlns="http://www.w3.org/2000/svg"><g><g><g><g><g><line x1="50" y1="177" x2="45" y2="177" style="visibility: inherit;" fill="rgb(0, 0, 0)" stroke="rgb(204, 204, 204)" stroke-width="1px"></line><line x1="50" y1="162.25" x2="45" y2="162.25" style="visibility: inherit;" fill="rgb(0, 0, 0)" stroke="rgb(204, 204, 204)" stroke-width="1px"></line><line x1="50" y1="147.5" x2="45" y2="147.5" style="visibility: inherit;" fill="rgb(0, 0, 0)" stroke="rgb(204, 204, 204)" stroke-width="1px"></line><line x1="50" y1="132.75" x2="45" y2="132.75" style="visibility: inherit;" fill="rgb(0, 0, 0)" stroke="rgb(204, 204, 204)" stroke-width="1px"></line><line x1="50" y1="118.00000000000001" x2="45" y2="118.00000000000001" style="visibility: inherit;" fill="rgb(0, 0, 0)" stroke="rgb(204, 204, 204)" stroke-width="1px"></line><line x1="50" y1="103.25" x2="45" y2="103.25" style="visibility: inherit;" fill="rgb(0, 0, 0)" stroke="rgb(204, 204, 204)" stroke-width="1px"></line><line x1="50" y1="88.5" x2="45" y2="88.5" style="visibility: inherit;" fill="rgb(0, 0, 0)" stroke="rgb(204, 204, 204)" stroke-width="1px"></line><line x1="50" y1="73.75000000000001" x2="45" y2="73.75000000000001" style="visibility: inherit;" fill="rgb(0, 0, 0)" stroke="rgb(204, 204, 204)" stroke-width="1px"></line><line x1="50" y1="59.00000000000001" x2="45" y2="59.00000000000001" style="visibility: inherit;" fill="rgb(0, 0, 0)" stroke="rgb(204, 204, 204)" stroke-width="1px"></line><line x1="50" y1="44.25" x2="45" y2="44.25" style="visibility: inherit;" fill="rgb(0, 0, 0)" stroke="rgb(204, 204, 204)" stroke-width="1px"></line><line x1="50" y1="29.500000000000032" x2="45" y2="29.500000000000032" style="visibility: inherit;" fill="rgb(0, 0, 0)" stroke="rgb(204, 204, 204)" stroke-width="1px"></line><line x1="50" y1="14.750000000000007" x2="45" y2="14.750000000000007" style="visibility: inherit;" fill="rgb(0, 0, 0)" stroke="rgb(204, 204, 204)" stroke-width="1px"></line><line x1="50" y1="0" x2="45" y2="0" style="visibility: inherit;" fill="rgb(0, 0, 0)" stroke="rgb(204, 204, 204)" stroke-width="1px"></line></g><g transform="translate(40, 0)"><text x="0" y="177" dx="0em" dy="0.3em" style="text-anchor: end; visibility: hidden; font-family: Roboto, sans-serif; font-size: 12px; font-weight: 200;" fill="rgb(33, 33, 33)" stroke="none" stroke-width="1px">0.05</text><text x="0" y="162.25" dx="0em" dy="0.3em" style="text-anchor: end; visibility: inherit; font-family: Roboto, sans-serif; font-size: 12px; font-weight: 200;" fill="rgb(33, 33, 33)" stroke="none" stroke-width="1px">0.06</text><text x="0" y="147.5" dx="0em" dy="0.3em" style="text-anchor: end; visibility: hidden; font-family: Roboto, sans-serif; font-size: 12px; font-weight: 200;" fill="rgb(33, 33, 33)" stroke="none" stroke-width="1px">0.07</text><text x="0" y="132.75" dx="0em" dy="0.3em" style="text-anchor: end; visibility: inherit; font-family: Roboto, sans-serif; font-size: 12px; font-weight: 200;" fill="rgb(33, 33, 33)" stroke="none" stroke-width="1px">0.08</text><text x="0" y="118.00000000000001" dx="0em" dy="0.3em" style="text-anchor: end; visibility: hidden; font-family: Roboto, sans-serif; font-size: 12px; font-weight: 200;" fill="rgb(33, 33, 33)" stroke="none" stroke-width="1px">0.09</text><text x="0" y="103.25" dx="0em" dy="0.3em" style="text-anchor: end; visibility: inherit; font-family: Roboto, sans-serif; font-size: 12px; font-weight: 200;" fill="rgb(33, 33, 33)" stroke="none" stroke-width="1px">0.1</text><text x="0" y="88.5" dx="0em" dy="0.3em" style="text-anchor: end; visibility: hidden; font-family: Roboto, sans-serif; font-size: 12px; font-weight: 200;" fill="rgb(33, 33, 33)" stroke="none" stroke-width="1px">0.11</text><text x="0" y="73.75000000000001" dx="0em" dy="0.3em" style="text-anchor: end; visibility: inherit; font-family: Roboto, sans-serif; font-size: 12px; font-weight: 200;" fill="rgb(33, 33, 33)" stroke="none" stroke-width="1px">0.12</text><text x="0" y="59.00000000000001" dx="0em" dy="0.3em" style="text-anchor: end; visibility: hidden; font-family: Roboto, sans-serif; font-size: 12px; font-weight: 200;" fill="rgb(33, 33, 33)" stroke="none" stroke-width="1px">0.13</text><text x="0" y="44.25" dx="0em" dy="0.3em" style="text-anchor: end; visibility: inherit; font-family: Roboto, sans-serif; font-size: 12px; font-weight: 200;" fill="rgb(33, 33, 33)" stroke="none" stroke-width="1px">0.14</text><text x="0" y="29.500000000000032" dx="0em" dy="0.3em" style="text-anchor: end; visibility: hidden; font-family: Roboto, sans-serif; font-size: 12px; font-weight: 200;" fill="rgb(33, 33, 33)" stroke="none" stroke-width="1px">0.15</text><text x="0" y="14.750000000000007" dx="0em" dy="0.3em" style="text-anchor: end; visibility: inherit; font-family: Roboto, sans-serif; font-size: 12px; font-weight: 200;" fill="rgb(33, 33, 33)" stroke="none" stroke-width="1px">0.16</text><text x="0" y="0" dx="0em" dy="0.3em" style="text-anchor: end; visibility: hidden; font-family: Roboto, sans-serif; font-size: 12px; font-weight: 200;" fill="rgb(33, 33, 33)" stroke="none" stroke-width="1px">0.17</text></g><line x1="50" y1="0" x2="50" y2="177" fill="rgb(0, 0, 0)" stroke="rgb(204, 204, 204)" stroke-width="1px"></line></g></g><g transform="translate(50, 0)" clip-path="url(#clip_0)"><clipPath id="clip_0"><rect width="280" height="177"></rect></clipPath><g><g><g><line x1="0" y1="0" x2="0" y2="177" fill="rgb(0, 0, 0)" stroke="rgb(66, 66, 66)" stroke-width="1px" opacity="0.25"></line><line x1="23.333333333333332" y1="0" x2="23.333333333333332" y2="177" fill="rgb(0, 0, 0)" stroke="rgb(66, 66, 66)" stroke-width="1px" opacity="0.25"></line><line x1="46.666666666666664" y1="0" x2="46.666666666666664" y2="177" fill="rgb(0, 0, 0)" stroke="rgb(66, 66, 66)" stroke-width="1px" opacity="0.25"></line><line x1="70" y1="0" x2="70" y2="177" fill="rgb(0, 0, 0)" stroke="rgb(66, 66, 66)" stroke-width="1px" opacity="0.25"></line><line x1="93.33333333333333" y1="0" x2="93.33333333333333" y2="177" fill="rgb(0, 0, 0)" stroke="rgb(66, 66, 66)" stroke-width="1px" opacity="0.25"></line><line x1="116.66666666666667" y1="0" x2="116.66666666666667" y2="177" fill="rgb(0, 0, 0)" stroke="rgb(66, 66, 66)" stroke-width="1px" opacity="0.25"></line><line x1="140" y1="0" x2="140" y2="177" fill="rgb(0, 0, 0)" stroke="rgb(66, 66, 66)" stroke-width="1px" opacity="0.25"></line><line x1="163.33333333333334" y1="0" x2="163.33333333333334" y2="177" fill="rgb(0, 0, 0)" stroke="rgb(66, 66, 66)" stroke-width="1px" opacity="0.25"></line><line x1="186.66666666666666" y1="0" x2="186.66666666666666" y2="177" fill="rgb(0, 0, 0)" stroke="rgb(66, 66, 66)" stroke-width="1px" opacity="0.25"></line><line x1="210" y1="0" x2="210" y2="177" fill="rgb(0, 0, 0)" stroke="rgb(66, 66, 66)" stroke-width="1px" opacity="0.25"></line><line x1="233.33333333333334" y1="0" x2="233.33333333333334" y2="177" fill="rgb(0, 0, 0)" stroke="rgb(66, 66, 66)" stroke-width="1px" opacity="0.25"></line><line x1="256.66666666666663" y1="0" x2="256.66666666666663" y2="177" fill="rgb(0, 0, 0)" stroke="rgb(66, 66, 66)" stroke-width="1px" opacity="0.25"></line><line x1="280" y1="0" x2="280" y2="177" fill="rgb(0, 0, 0)" stroke="rgb(66, 66, 66)" stroke-width="1px" opacity="0.25"></line></g><g><line x1="0" y1="177" x2="280" y2="177" fill="rgb(0, 0, 0)" stroke="rgb(66, 66, 66)" stroke-width="1px" opacity="0.25"></line><line x1="0" y1="162.25" x2="280" y2="162.25" fill="rgb(0, 0, 0)" stroke="rgb(66, 66, 66)" stroke-width="1px" opacity="0.25"></line><line x1="0" y1="147.5" x2="280" y2="147.5" fill="rgb(0, 0, 0)" stroke="rgb(66, 66, 66)" stroke-width="1px" opacity="0.25"></line><line x1="0" y1="132.75" x2="280" y2="132.75" fill="rgb(0, 0, 0)" stroke="rgb(66, 66, 66)" stroke-width="1px" opacity="0.25"></line><line x1="0" y1="118.00000000000001" x2="280" y2="118.00000000000001" fill="rgb(0, 0, 0)" stroke="rgb(66, 66, 66)" stroke-width="1px" opacity="0.25"></line><line x1="0" y1="103.25" x2="280" y2="103.25" fill="rgb(0, 0, 0)" stroke="rgb(66, 66, 66)" stroke-width="1px" opacity="0.25"></line><line x1="0" y1="88.5" x2="280" y2="88.5" fill="rgb(0, 0, 0)" stroke="rgb(66, 66, 66)" stroke-width="1px" opacity="0.25"></line><line x1="0" y1="73.75000000000001" x2="280" y2="73.75000000000001" fill="rgb(0, 0, 0)" stroke="rgb(66, 66, 66)" stroke-width="1px" opacity="0.25"></line><line x1="0" y1="59.00000000000001" x2="280" y2="59.00000000000001" fill="rgb(0, 0, 0)" stroke="rgb(66, 66, 66)" stroke-width="1px" opacity="0.25"></line><line x1="0" y1="44.25" x2="280" y2="44.25" fill="rgb(0, 0, 0)" stroke="rgb(66, 66, 66)" stroke-width="1px" opacity="0.25"></line><line x1="0" y1="29.500000000000032" x2="280" y2="29.500000000000032" fill="rgb(0, 0, 0)" stroke="rgb(66, 66, 66)" stroke-width="1px" opacity="0.25"></line><line x1="0" y1="14.750000000000007" x2="280" y2="14.750000000000007" fill="rgb(0, 0, 0)" stroke="rgb(66, 66, 66)" stroke-width="1px" opacity="0.25"></line><line x1="0" y1="0" x2="280" y2="0" fill="rgb(0, 0, 0)" stroke="rgb(66, 66, 66)" stroke-width="1px" opacity="0.25"></line></g></g></g><g><g><line x1="0" y1="250.74999999999997" x2="280" y2="250.74999999999997" fill="rgb(0, 0, 0)" stroke="rgb(153, 153, 153)" stroke-width="1.5px"></line></g></g><g><g><line x1="23.333333333333332" y1="0" x2="23.333333333333332" y2="177" fill="rgb(0, 0, 0)" stroke="rgb(153, 153, 153)" stroke-width="1.5px"></line></g></g><g><g><g><g><g><path stroke="rgb(255, 112, 67)" stroke-width="2px" d="M30.333333333333336,-11.429018991722192L31.5,10.986610059446562L32.666666666666664,-4.973256602144768L33.833333333333336,32.93277120185363L35,26.75963944074921L36.16666666666667,45.320549046015564L37.333333333333336,49.48456020859144L38.5,46.42970065781049L39.666666666666664,24.484229123749227L40.833333333333336,36.71913498236806L42,37.16820690831306L43.16666666666667,11.942553806899177L44.33333333333333,-39.213798629147966L45.5,3.068035940677504L46.666666666666664,16.590852482366113L47.833333333333336,22.295330537203057L49,40.35957818080484L50.166666666666664,59.742364326254375L51.33333333333333,63.57161914438272L52.5,65.61807357818074L53.66666666666667,73.37497551135708L54.833333333333336,54.29295838033231L56,53.689849382746296L57.166666666666664,42.30011236390052L58.333333333333336,9.692844422551422L59.5,40.98263479181027L60.66666666666667,34.03130398446815L61.83333333333333,46.577043084884075L63,55.462230089714375L64.16666666666666,74.22307654589176L65.33333333333333,99.21846935524715L66.5,103.63403701459636L67.66666666666667,98.9867888467322L68.83333333333333,59.16711931755674L70,68.90079659529624L71.16666666666666,54.544620832063586L72.33333333333334,42.48009105951624L73.5,73.04524551279353L74.66666666666667,94.49081856948332L75.83333333333333,81.09982989256783L77,105.11525440380866L78.16666666666667,112.18738193041261L79.33333333333333,109.0740093303588L80.5,120.99185353610282L81.66666666666667,107.63902285143888L82.83333333333333,106.97449172404181L84,123.79272780045856L85.16666666666666,113.10049511028441L86.33333333333334,104.20240560192795L87.5,104.35881665062277L88.66666666666666,79.01150032108882L89.83333333333334,73.28706170455003L91,82.06937250993006L92.16666666666667,37.0928148061081L93.33333333333333,72.74828713715516L94.5,86.60505673039268L95.66666666666667,90.37722846119597L96.83333333333333,111.47196932583466L98,115.53294594257724L99.16666666666667,108.27562649947195L100.33333333333333,111.52255214990252L101.5,102.4505148872201L102.66666666666666,98.69704561498551L103.83333333333334,118.57378052214852L105,69.74349686229272L106.16666666666666,87.04785148336913L107.33333333333334,89.2038163574602L108.5,104.04525454831516L109.66666666666667,122.6653910666251L110.83333333333333,115.84175954994822L112,111.84699701510229L113.16666666666667,112.09037484373069L114.33333333333333,110.89173088756452L115.5,127.35020922593624L116.66666666666667,144.34788651002856L117.83333333333333,119.10963892777808L119,137.04743426495818L120.16666666666666,125.92267290922422L121.33333333333334,121.45298172040235L122.5,113.77760855557591L123.66666666666666,128.2268983048324L124.83333333333334,112.61138062012938L126,134.22119454045742L127.16666666666667,137.90716034769804L128.33333333333331,120.14524892330046L129.5,120.58770122146532L130.66666666666666,112.55941776940777L131.83333333333334,114.59711357360813L133,126.66412077787955L134.16666666666669,125.49464750554226L135.33333333333334,113.76774644116203L136.5,103.66638039505267L137.66666666666666,119.23360725018848L138.83333333333334,109.38679395779056L140,131.12219924726537L141.16666666666666,137.07833329140217L142.33333333333331,120.29116116344373L143.5,119.51364277529385L144.66666666666669,131.41603922383587L145.83333333333334,121.93835692725541L147,130.01301617993096L148.16666666666666,119.96302674456345L149.33333333333334,119.57410353865568L150.5,138.73777192948072L151.66666666666666,135.59373572538976L152.83333333333331,113.08462748271637L154,133.37108121718413L155.16666666666669,102.31236517074973L156.33333333333334,119.99330087091488L157.5,106.25974349132754L158.66666666666666,132.64664331794725L159.83333333333331,137.17228274179067L161,149.62538956780773L162.16666666666669,148.58168022143568L163.33333333333334,152.5908244285448L164.5,126.22682481607578L165.66666666666666,123.22886028945913L166.83333333333334,128.28679151571077L168,121.23670497677496L169.16666666666666,116.32945592487914L170.33333333333331,115.55274481049217L171.5,137.66978339833642L172.66666666666669,137.77946057607306L173.83333333333334,138.6086620878552L175,133.57725927480308L176.16666666666666,126.55739642529636L177.33333333333331,140.08430130242675L178.5,139.91961097693067L179.66666666666669,146.28092260048163L180.83333333333334,151.79968310228213L182,139.20040707785623L183.16666666666666,143.40384359060965L184.33333333333334,93.47125263750102L185.5,74.78331532919138L186.66666666666666,79.1766775688155L187.83333333333331,114.47025323454285L189,129.10829935993996L190.16666666666669,148.2484859751239L191.33333333333334,153.57154547134488L192.5,150.99506415104537L193.66666666666666,153.30770088836948L194.83333333333331,157.89661021742464L196,150.36255231328752L197.16666666666669,146.51573648350205L198.33333333333334,140.48787622628672L199.5,142.45464938567912L200.66666666666666,151.76673187724853L201.83333333333334,142.83712015695633L203,146.14054324714698L204.16666666666666,139.57576042704795L205.33333333333331,141.74984609659325L206.5,109.71858375415688L207.66666666666669,137.79650745478563L208.83333333333334,138.01634768061217L210,145.16479898936973L211.16666666666666,149.45830078391688L212.33333333333331,161.85888138096604L213.5,160.06647898066683L214.66666666666669,139.03512560611156L215.83333333333334,152.36436773857588L217,155.08702503902384L218.16666666666666,141.82484756566686L219.33333333333334,141.62705158387186L220.5,154.01459221210814L221.66666666666666,154.63307049671852L222.83333333333331,151.60854492962386L224,143.56179085302367L225.16666666666669,142.39063543038378L226.33333333333334,133.67146390650757L227.5,152.3770688383227L228.66666666666666,154.2462678675917L229.83333333333331,162.4801704198162L231,168.5017001977587L232.16666666666669,180.591171810092L233.33333333333334,157.39077407661765L234.5,147.16285855498126L235.66666666666666,142.96999917284379L236.83333333333334,140.50505992088156L238,137.93346134909055L239.16666666666666,154.45577544622458L240.33333333333331,159.0644413420727L241.5,124.37241592938722L242.66666666666669,115.79763966462028L243.83333333333334,115.5305370727838L245,137.8837479927934L246.16666666666666,156.90567298703172L247.33333333333331,156.47420824749935L248.5,143.9165356110553L249.66666666666669,148.95429668730617L250.83333333333334,164.79341033641174L252,164.44460848893922L253.16666666666666,170.066498244859L254.33333333333334,172.03052938285902L255.5,156.32860495628975L256.66666666666663,106.45906988967693" style="fill: none;" fill="none"></path></g></g></g></g><g opacity="0.2"><g><g><g><path stroke="rgb(255, 112, 67)" stroke-width="2px" d="M26.833333333333336,-83.67214019596578L28,56.282321333885214L29.166666666666668,-90.38206416368483L30.333333333333336,47.72913266718389L31.5,43.04131825268271L32.666666666666664,-28.242895409464822L33.833333333333336,88.83679934591056L35,17.593258216977134L36.16666666666667,72.9935673698783L37.333333333333336,55.707916587591185L38.5,41.8573859781027L39.666666666666664,-8.390984714031207L40.833333333333336,55.05711209774019L42,37.84149807691575L43.16666666666667,-25.885251194238677L44.33333333333333,-115.93533869087695L45.5,66.4843465834856L46.666666666666664,36.873841255903265L47.833333333333336,30.851734772324576L49,67.45535523444416L50.166666666666664,88.81616086512805L51.33333333333333,69.31545601040126L52.5,68.68774068355562L53.66666666666667,85.01029533147813L54.833333333333336,25.66998150944712L56,52.78518681228163L57.166666666666664,25.21551732718946L58.333333333333336,-39.21803946793081L59.5,87.91730996966362L60.66666666666667,23.604309156537063L61.83333333333333,65.39565023779869L63,68.7900099605322L64.16666666666666,102.36434542387724L65.33333333333333,136.71155792474747L66.5,110.25738843530416L67.66666666666667,92.01591663807632L68.83333333333333,-0.5623847544193268L70,83.50131247937681L71.16666666666666,33.01035721600058L72.33333333333334,24.383296415209777L73.5,118.89297717064619L74.66666666666667,126.65917814522982L75.83333333333333,61.01334688067438L77,141.13839116692543L78.16666666666667,122.79557321965696L79.33333333333333,104.40395043045284L80.5,138.86861984431744L81.66666666666667,87.60977682471275L82.83333333333333,105.97769503295422L84,149.02008191496134L85.16666666666666,97.0621460750699L86.33333333333334,90.8552713394165L87.5,104.59343322366476L88.66666666666666,40.99052582681181L89.83333333333334,64.7004037797451L91,95.24283871799709L92.16666666666667,-30.372021749615655L93.33333333333333,126.23149563372135L94.5,107.39021112024784L95.66666666666667,96.0354860574007L96.83333333333333,143.11408062279224L98,121.62441086769104L99.16666666666667,97.38964733481407L100.33333333333333,116.39294062554836L101.5,88.84245899319649L102.66666666666666,93.06684170663357L103.83333333333334,148.38888288289309L105,-3.501928627490971L106.16666666666666,113.00438341498375L107.33333333333334,92.43776366859674L108.5,126.3074118345976L109.66666666666667,150.59559584408998L110.83333333333333,105.60631227493286L112,105.8548532128334L113.16666666666667,112.45544158667326L114.33333333333333,109.09376495331527L115.5,152.0379267334938L116.66666666666667,169.844402436167L117.83333333333333,81.25226755440235L119,163.95412727072835L120.16666666666666,109.23553087562324L121.33333333333334,114.74844493716957L122.5,102.26454880833626L123.66666666666666,149.90083292871714L124.83333333333334,89.1881040930748L126,166.63591542094946L127.16666666666667,143.43610905855894L128.33333333333331,93.50238178670408L129.5,121.25137966871263L130.66666666666666,100.51699259132148L131.83333333333334,117.65365727990867L133,144.7646315842867L134.16666666666669,123.74043759703636L135.33333333333334,96.17739484459162L136.5,88.51433132588865L137.66666666666666,142.58444753289223L138.83333333333334,94.61657401919365L140,163.72530718147755L141.16666666666666,146.01253435760736L142.33333333333331,95.11040297150613L143.5,118.34736519306898L144.66666666666669,149.26963389664888L145.83333333333334,107.7218334823847L147,142.12500505894423L148.16666666666666,104.8880425915122L149.33333333333334,118.99071872979403L150.5,167.48327451571822L151.66666666666666,130.87768141925335L152.83333333333331,79.32096511870624L154,163.8007618188858L155.16666666666669,55.72429110109808L156.33333333333334,146.5147044211626L157.5,85.65940742194653L158.66666666666666,172.22699305787683L159.83333333333331,143.96074187755585L161,168.30504980683327L162.16666666666669,147.0161162018776L163.33333333333334,158.60454073920846L164.5,86.68082539737226L165.66666666666666,118.73191349953413L166.83333333333334,135.87368835508823L168,110.6615751683712L169.16666666666666,108.96858234703542L170.33333333333331,114.38767813891172L171.5,170.84534128010273L172.66666666666669,137.94397634267807L173.83333333333334,139.85246435552835L175,126.0301550552249L176.16666666666666,116.02760215103628L177.33333333333331,160.37465861812234L178.5,139.67257548868656L179.66666666666669,155.8228900358081L180.83333333333334,160.07782385498285L182,120.30149304121733L183.16666666666666,149.70899835973978L184.33333333333334,18.572366207838073L185.5,46.75140936672689L186.66666666666666,85.76672092825174L187.83333333333331,167.4106167331338L189,151.06536854803562L190.16666666666669,176.95876589789987L191.33333333333334,161.5561347156763L192.5,147.13034217059612L193.66666666666666,156.77665599435568L194.83333333333331,164.77997421100736L196,139.0614654570818L197.16666666666669,140.7455127388239L198.33333333333334,131.44608584046364L199.5,145.40480912476778L200.66666666666666,165.73485561460257L201.83333333333334,129.44270257651806L203,151.09567788243294L204.16666666666666,129.7285861968994L205.33333333333331,145.01097460091114L206.5,61.671690240502365L207.66666666666669,179.91339300572872L208.83333333333334,138.34610801935196L210,155.88747595250607L211.16666666666666,155.89855347573757L212.33333333333331,180.4597522765398L213.5,157.37787538021803L214.66666666666669,107.48809554427862L215.83333333333334,172.3582309372723L217,159.1710109896958L218.16666666666666,121.93158135563135L219.33333333333334,141.33035761117935L220.5,172.59590315446258L221.66666666666666,155.56078792363405L222.83333333333331,147.07175657898188L224,131.49165973812342L225.16666666666669,140.6339022964239L226.33333333333334,120.5927066206932L227.5,180.43547623604536L228.66666666666666,157.0500664114952L229.83333333333331,174.83102424815297L231,177.53399486467242L232.16666666666669,198.72537922859192L233.33333333333334,122.59017747640611L234.5,131.82098527252674L235.66666666666666,136.6807100996375L236.83333333333334,136.80765104293823L238,134.07606349140406L239.16666666666666,179.23924659192562L240.33333333333331,165.9774401858449L241.5,72.33437781035902L242.66666666666669,102.93547526746988L243.83333333333334,115.12988318502903L245,171.41356437280774L246.16666666666666,185.43856047838926L247.33333333333331,155.82701113820076L248.5,125.08002665638924L249.66666666666669,156.51093830168247L250.83333333333334,188.55208081007004L252,163.92140571773052L253.16666666666666,178.49933287873864L254.33333333333334,174.976576089859L255.5,132.7757183164358L256.66666666666663,31.654767289757736" style="fill: none;" fill="none"></path></g></g></g></g></g></g><g transform="translate(50, 177)" clip-path="url(#clip_1)"><clipPath id="clip_1"><rect width="280" height="23"></rect></clipPath><g><g><line x1="0" y1="0" x2="0" y2="5" style="visibility: inherit;" fill="rgb(0, 0, 0)" stroke="rgb(204, 204, 204)" stroke-width="1px"></line><line x1="23.333333333333332" y1="0" x2="23.333333333333332" y2="5" style="visibility: inherit;" fill="rgb(0, 0, 0)" stroke="rgb(204, 204, 204)" stroke-width="1px"></line><line x1="46.666666666666664" y1="0" x2="46.666666666666664" y2="5" style="visibility: inherit;" fill="rgb(0, 0, 0)" stroke="rgb(204, 204, 204)" stroke-width="1px"></line><line x1="70" y1="0" x2="70" y2="5" style="visibility: inherit;" fill="rgb(0, 0, 0)" stroke="rgb(204, 204, 204)" stroke-width="1px"></line><line x1="93.33333333333333" y1="0" x2="93.33333333333333" y2="5" style="visibility: inherit;" fill="rgb(0, 0, 0)" stroke="rgb(204, 204, 204)" stroke-width="1px"></line><line x1="116.66666666666667" y1="0" x2="116.66666666666667" y2="5" style="visibility: inherit;" fill="rgb(0, 0, 0)" stroke="rgb(204, 204, 204)" stroke-width="1px"></line><line x1="140" y1="0" x2="140" y2="5" style="visibility: inherit;" fill="rgb(0, 0, 0)" stroke="rgb(204, 204, 204)" stroke-width="1px"></line><line x1="163.33333333333334" y1="0" x2="163.33333333333334" y2="5" style="visibility: inherit;" fill="rgb(0, 0, 0)" stroke="rgb(204, 204, 204)" stroke-width="1px"></line><line x1="186.66666666666666" y1="0" x2="186.66666666666666" y2="5" style="visibility: inherit;" fill="rgb(0, 0, 0)" stroke="rgb(204, 204, 204)" stroke-width="1px"></line><line x1="210" y1="0" x2="210" y2="5" style="visibility: inherit;" fill="rgb(0, 0, 0)" stroke="rgb(204, 204, 204)" stroke-width="1px"></line><line x1="233.33333333333334" y1="0" x2="233.33333333333334" y2="5" style="visibility: inherit;" fill="rgb(0, 0, 0)" stroke="rgb(204, 204, 204)" stroke-width="1px"></line><line x1="256.66666666666663" y1="0" x2="256.66666666666663" y2="5" style="visibility: inherit;" fill="rgb(0, 0, 0)" stroke="rgb(204, 204, 204)" stroke-width="1px"></line><line x1="280" y1="0" x2="280" y2="5" style="visibility: inherit;" fill="rgb(0, 0, 0)" stroke="rgb(204, 204, 204)" stroke-width="1px"></line></g><g transform="translate(0, 8)"><text x="0" y="0" dx="0em" dy="0.95em" style="text-anchor: middle; visibility: hidden; font-family: Roboto, sans-serif; font-size: 12px; font-weight: 200;" fill="rgb(33, 33, 33)" stroke="none" stroke-width="1px">-2k</text><text x="23.333333333333332" y="0" dx="0em" dy="0.95em" style="text-anchor: middle; visibility: inherit; font-family: Roboto, sans-serif; font-size: 12px; font-weight: 200;" fill="rgb(33, 33, 33)" stroke="none" stroke-width="1px">0</text><text x="46.666666666666664" y="0" dx="0em" dy="0.95em" style="text-anchor: middle; visibility: hidden; font-family: Roboto, sans-serif; font-size: 12px; font-weight: 200;" fill="rgb(33, 33, 33)" stroke="none" stroke-width="1px">2k</text><text x="70" y="0" dx="0em" dy="0.95em" style="text-anchor: middle; visibility: inherit; font-family: Roboto, sans-serif; font-size: 12px; font-weight: 200;" fill="rgb(33, 33, 33)" stroke="none" stroke-width="1px">4k</text><text x="93.33333333333333" y="0" dx="0em" dy="0.95em" style="text-anchor: middle; visibility: hidden; font-family: Roboto, sans-serif; font-size: 12px; font-weight: 200;" fill="rgb(33, 33, 33)" stroke="none" stroke-width="1px">6k</text><text x="116.66666666666667" y="0" dx="0em" dy="0.95em" style="text-anchor: middle; visibility: inherit; font-family: Roboto, sans-serif; font-size: 12px; font-weight: 200;" fill="rgb(33, 33, 33)" stroke="none" stroke-width="1px">8k</text><text x="140" y="0" dx="0em" dy="0.95em" style="text-anchor: middle; visibility: hidden; font-family: Roboto, sans-serif; font-size: 12px; font-weight: 200;" fill="rgb(33, 33, 33)" stroke="none" stroke-width="1px">10k</text><text x="163.33333333333334" y="0" dx="0em" dy="0.95em" style="text-anchor: middle; visibility: inherit; font-family: Roboto, sans-serif; font-size: 12px; font-weight: 200;" fill="rgb(33, 33, 33)" stroke="none" stroke-width="1px">12k</text><text x="186.66666666666666" y="0" dx="0em" dy="0.95em" style="text-anchor: middle; visibility: hidden; font-family: Roboto, sans-serif; font-size: 12px; font-weight: 200;" fill="rgb(33, 33, 33)" stroke="none" stroke-width="1px">14k</text><text x="210" y="0" dx="0em" dy="0.95em" style="text-anchor: middle; visibility: inherit; font-family: Roboto, sans-serif; font-size: 12px; font-weight: 200;" fill="rgb(33, 33, 33)" stroke="none" stroke-width="1px">16k</text><text x="233.33333333333334" y="0" dx="0em" dy="0.95em" style="text-anchor: middle; visibility: hidden; font-family: Roboto, sans-serif; font-size: 12px; font-weight: 200;" fill="rgb(33, 33, 33)" stroke="none" stroke-width="1px">18k</text><text x="256.66666666666663" y="0" dx="0em" dy="0.95em" style="text-anchor: middle; visibility: inherit; font-family: Roboto, sans-serif; font-size: 12px; font-weight: 200;" fill="rgb(33, 33, 33)" stroke="none" stroke-width="1px">20k</text><text x="280" y="0" dx="0em" dy="0.95em" style="text-anchor: middle; visibility: hidden; font-family: Roboto, sans-serif; font-size: 12px; font-weight: 200;" fill="rgb(33, 33, 33)" stroke="none" stroke-width="1px">22k</text></g><line x1="0" y1="0" x2="280" y2="0" fill="rgb(0, 0, 0)" stroke="rgb(204, 204, 204)" stroke-width="1px"></line></g></g></g></g></svg>