<svg viewBox="0 0 330 200" xmlns="http://www.w3.org/2000/svg"><g><g><g><g><g><line x1="60" y1="177" x2="55" y2="177" style="visibility: inherit;" fill="rgb(0, 0, 0)" stroke="rgb(204, 204, 204)" stroke-width="1px"></line><line x1="60" y1="160.90909090909088" x2="55" y2="160.90909090909088" style="visibility: inherit;" fill="rgb(0, 0, 0)" stroke="rgb(204, 204, 204)" stroke-width="1px"></line><line x1="60" y1="144.81818181818176" x2="55" y2="144.81818181818176" style="visibility: inherit;" fill="rgb(0, 0, 0)" stroke="rgb(204, 204, 204)" stroke-width="1px"></line><line x1="60" y1="128.72727272727278" x2="55" y2="128.72727272727278" style="visibility: inherit;" fill="rgb(0, 0, 0)" stroke="rgb(204, 204, 204)" stroke-width="1px"></line><line x1="60" y1="112.63636363636365" x2="55" y2="112.63636363636365" style="visibility: inherit;" fill="rgb(0, 0, 0)" stroke="rgb(204, 204, 204)" stroke-width="1px"></line><line x1="60" y1="96.54545454545456" x2="55" y2="96.54545454545456" style="visibility: inherit;" fill="rgb(0, 0, 0)" stroke="rgb(204, 204, 204)" stroke-width="1px"></line><line x1="60" y1="80.45454545454544" x2="55" y2="80.45454545454544" style="visibility: inherit;" fill="rgb(0, 0, 0)" stroke="rgb(204, 204, 204)" stroke-width="1px"></line><line x1="60" y1="64.36363636363633" x2="55" y2="64.36363636363633" style="visibility: inherit;" fill="rgb(0, 0, 0)" stroke="rgb(204, 204, 204)" stroke-width="1px"></line><line x1="60" y1="48.27272727272723" x2="55" y2="48.27272727272723" style="visibility: inherit;" fill="rgb(0, 0, 0)" stroke="rgb(204, 204, 204)" stroke-width="1px"></line><line x1="60" y1="32.181818181818116" x2="55" y2="32.181818181818116" style="visibility: inherit;" fill="rgb(0, 0, 0)" stroke="rgb(204, 204, 204)" stroke-width="1px"></line><line x1="60" y1="16.090909090909115" x2="55" y2="16.090909090909115" style="visibility: inherit;" fill="rgb(0, 0, 0)" stroke="rgb(204, 204, 204)" stroke-width="1px"></line><line x1="60" y1="0" x2="55" y2="0" style="visibility: inherit;" fill="rgb(0, 0, 0)" stroke="rgb(204, 204, 204)" stroke-width="1px"></line></g><g transform="translate(50, 0)"><text x="0" y="177" dx="0em" dy="0.3em" style="text-anchor: end; visibility: hidden; font-family: Roboto, sans-serif; font-size: 12px; font-weight: 200;" fill="rgb(33, 33, 33)" stroke="none" stroke-width="1px">0.066</text><text x="0" y="160.90909090909088" dx="0em" dy="0.3em" style="text-anchor: end; visibility: inherit; font-family: Roboto, sans-serif; font-size: 12px; font-weight: 200;" fill="rgb(33, 33, 33)" stroke="none" stroke-width="1px">0.068</text><text x="0" y="144.81818181818176" dx="0em" dy="0.3em" style="text-anchor: end; visibility: hidden; font-family: Roboto, sans-serif; font-size: 12px; font-weight: 200;" fill="rgb(33, 33, 33)" stroke="none" stroke-width="1px">0.07</text><text x="0" y="128.72727272727278" dx="0em" dy="0.3em" style="text-anchor: end; visibility: inherit; font-family: Roboto, sans-serif; font-size: 12px; font-weight: 200;" fill="rgb(33, 33, 33)" stroke="none" stroke-width="1px">0.072</text><text x="0" y="112.63636363636365" dx="0em" dy="0.3em" style="text-anchor: end; visibility: hidden; font-family: Roboto, sans-serif; font-size: 12px; font-weight: 200;" fill="rgb(33, 33, 33)" stroke="none" stroke-width="1px">0.074</text><text x="0" y="96.54545454545456" dx="0em" dy="0.3em" style="text-anchor: end; visibility: inherit; font-family: Roboto, sans-serif; font-size: 12px; font-weight: 200;" fill="rgb(33, 33, 33)" stroke="none" stroke-width="1px">0.076</text><text x="0" y="80.45454545454544" dx="0em" dy="0.3em" style="text-anchor: end; visibility: hidden; font-family: Roboto, sans-serif; font-size: 12px; font-weight: 200;" fill="rgb(33, 33, 33)" stroke="none" stroke-width="1px">0.078</text><text x="0" y="64.36363636363633" dx="0em" dy="0.3em" style="text-anchor: end; visibility: inherit; font-family: Roboto, sans-serif; font-size: 12px; font-weight: 200;" fill="rgb(33, 33, 33)" stroke="none" stroke-width="1px">0.08</text><text x="0" y="48.27272727272723" dx="0em" dy="0.3em" style="text-anchor: end; visibility: hidden; font-family: Roboto, sans-serif; font-size: 12px; font-weight: 200;" fill="rgb(33, 33, 33)" stroke="none" stroke-width="1px">0.082</text><text x="0" y="32.181818181818116" dx="0em" dy="0.3em" style="text-anchor: end; visibility: inherit; font-family: Roboto, sans-serif; font-size: 12px; font-weight: 200;" fill="rgb(33, 33, 33)" stroke="none" stroke-width="1px">0.084</text><text x="0" y="16.090909090909115" dx="0em" dy="0.3em" style="text-anchor: end; visibility: hidden; font-family: Roboto, sans-serif; font-size: 12px; font-weight: 200;" fill="rgb(33, 33, 33)" stroke="none" stroke-width="1px">0.086</text><text x="0" y="0" dx="0em" dy="0.3em" style="text-anchor: end; visibility: hidden; font-family: Roboto, sans-serif; font-size: 12px; font-weight: 200;" fill="rgb(33, 33, 33)" stroke="none" stroke-width="1px">0.088</text></g><line x1="60" y1="0" x2="60" y2="177" fill="rgb(0, 0, 0)" stroke="rgb(204, 204, 204)" stroke-width="1px"></line></g></g><g transform="translate(60, 0)" clip-path="url(#clip_0)"><clipPath id="clip_0"><rect width="270" height="177"></rect></clipPath><g><g><g><line x1="0" y1="0" x2="0" y2="177" fill="rgb(0, 0, 0)" stroke="rgb(66, 66, 66)" stroke-width="1px" opacity="0.25"></line><line x1="22.5" y1="0" x2="22.5" y2="177" fill="rgb(0, 0, 0)" stroke="rgb(66, 66, 66)" stroke-width="1px" opacity="0.25"></line><line x1="45" y1="0" x2="45" y2="177" fill="rgb(0, 0, 0)" stroke="rgb(66, 66, 66)" stroke-width="1px" opacity="0.25"></line><line x1="67.5" y1="0" x2="67.5" y2="177" fill="rgb(0, 0, 0)" stroke="rgb(66, 66, 66)" stroke-width="1px" opacity="0.25"></line><line x1="90" y1="0" x2="90" y2="177" fill="rgb(0, 0, 0)" stroke="rgb(66, 66, 66)" stroke-width="1px" opacity="0.25"></line><line x1="112.5" y1="0" x2="112.5" y2="177" fill="rgb(0, 0, 0)" stroke="rgb(66, 66, 66)" stroke-width="1px" opacity="0.25"></line><line x1="135" y1="0" x2="135" y2="177" fill="rgb(0, 0, 0)" stroke="rgb(66, 66, 66)" stroke-width="1px" opacity="0.25"></line><line x1="157.5" y1="0" x2="157.5" y2="177" fill="rgb(0, 0, 0)" stroke="rgb(66, 66, 66)" stroke-width="1px" opacity="0.25"></line><line x1="180" y1="0" x2="180" y2="177" fill="rgb(0, 0, 0)" stroke="rgb(66, 66, 66)" stroke-width="1px" opacity="0.25"></line><line x1="202.5" y1="0" x2="202.5" y2="177" fill="rgb(0, 0, 0)" stroke="rgb(66, 66, 66)" stroke-width="1px" opacity="0.25"></line><line x1="225" y1="0" x2="225" y2="177" fill="rgb(0, 0, 0)" stroke="rgb(66, 66, 66)" stroke-width="1px" opacity="0.25"></line><line x1="247.5" y1="0" x2="247.5" y2="177" fill="rgb(0, 0, 0)" stroke="rgb(66, 66, 66)" stroke-width="1px" opacity="0.25"></line><line x1="270" y1="0" x2="270" y2="177" fill="rgb(0, 0, 0)" stroke="rgb(66, 66, 66)" stroke-width="1px" opacity="0.25"></line></g><g><line x1="0" y1="177" x2="270" y2="177" fill="rgb(0, 0, 0)" stroke="rgb(66, 66, 66)" stroke-width="1px" opacity="0.25"></line><line x1="0" y1="160.90909090909088" x2="270" y2="160.90909090909088" fill="rgb(0, 0, 0)" stroke="rgb(66, 66, 66)" stroke-width="1px" opacity="0.25"></line><line x1="0" y1="144.81818181818176" x2="270" y2="144.81818181818176" fill="rgb(0, 0, 0)" stroke="rgb(66, 66, 66)" stroke-width="1px" opacity="0.25"></line><line x1="0" y1="128.72727272727278" x2="270" y2="128.72727272727278" fill="rgb(0, 0, 0)" stroke="rgb(66, 66, 66)" stroke-width="1px" opacity="0.25"></line><line x1="0" y1="112.63636363636365" x2="270" y2="112.63636363636365" fill="rgb(0, 0, 0)" stroke="rgb(66, 66, 66)" stroke-width="1px" opacity="0.25"></line><line x1="0" y1="96.54545454545456" x2="270" y2="96.54545454545456" fill="rgb(0, 0, 0)" stroke="rgb(66, 66, 66)" stroke-width="1px" opacity="0.25"></line><line x1="0" y1="80.45454545454544" x2="270" y2="80.45454545454544" fill="rgb(0, 0, 0)" stroke="rgb(66, 66, 66)" stroke-width="1px" opacity="0.25"></line><line x1="0" y1="64.36363636363633" x2="270" y2="64.36363636363633" fill="rgb(0, 0, 0)" stroke="rgb(66, 66, 66)" stroke-width="1px" opacity="0.25"></line><line x1="0" y1="48.27272727272723" x2="270" y2="48.27272727272723" fill="rgb(0, 0, 0)" stroke="rgb(66, 66, 66)" stroke-width="1px" opacity="0.25"></line><line x1="0" y1="32.181818181818116" x2="270" y2="32.181818181818116" fill="rgb(0, 0, 0)" stroke="rgb(66, 66, 66)" stroke-width="1px" opacity="0.25"></line><line x1="0" y1="16.090909090909115" x2="270" y2="16.090909090909115" fill="rgb(0, 0, 0)" stroke="rgb(66, 66, 66)" stroke-width="1px" opacity="0.25"></line><line x1="0" y1="0" x2="270" y2="0" fill="rgb(0, 0, 0)" stroke="rgb(66, 66, 66)" stroke-width="1px" opacity="0.25"></line></g></g></g><g><g><line x1="0" y1="708.0000000000003" x2="270" y2="708.0000000000003" fill="rgb(0, 0, 0)" stroke="rgb(153, 153, 153)" stroke-width="1.5px"></line></g></g><g><g><line x1="22.5" y1="0" x2="22.5" y2="177" fill="rgb(0, 0, 0)" stroke="rgb(153, 153, 153)" stroke-width="1.5px"></line></g></g><g><g><g><g><g><path stroke="rgb(255, 112, 67)" stroke-width="2px" d="M23.625,20.79145993969653L24.75,20.709562395783955L25.875,20.620266746722564L27,20.51767769774652L28.125,20.4128068848935L29.25,20.27867419913923L30.375,20.189043805094144L31.5,20.075224264961665L32.625,20.0033968849557L33.75,19.79253143804459L34.875,19.705262367853123L36,19.590699048082886L37.125,19.431944265635035L38.25,19.33946377489797L39.375,18.98394846050041L40.5,18.77204142396322L41.625,18.56416617310493L42.75,18.114202101260478L43.875,17.566362776977467L45,17.24233231912778L46.125,16.78068849945946L47.25,16.171306685014574L48.375,16.04972585058967L49.5,16.057917609983406L50.625,16.02686655400695L51.75,16.254219753302518L52.875,16.815893660864L54,17.5034223378516L55.125,18.07253522812119L56.25,18.73556277808043L57.375,19.49543683975084L58.5,20.316248142881115L59.625,21.074691362498978L60.75,21.76188174181981L61.875,22.6571472052196L63,23.822848025327357L64.125,25.073267395920723L65.25,26.40343454984378L66.375,27.538727933304365L67.5,28.74141073796827L68.625,30.041880952355772L69.75,31.387332561306653L70.875,32.85100672122658L72,34.327301562220924L73.125,35.518237856658246L74.25,36.80976595691328L75.375,38.147910134585736L76.5,39.48098320760859L77.625,40.779315596827765L78.75,42.16966483518773L79.875,43.575925350617695L81,45.0019949265406L82.125,46.379215379570695L83.25,47.58724265641446L84.375,48.90027071064862L85.5,50.262344429324095L86.625,51.661686131289734L87.75,52.92305226424838L88.875,54.25345746511486L90,55.655185828521745L91.125,57.05441492628316L92.25,58.49101170525978L93.375,59.836040899366886L94.5,61.214557909820115L95.625,62.63918300554912L96.75,64.04570024281382L97.875,65.54699685019041L99,67.1482962837327L100.125,68.72351882336137L101.25,70.22619703913472L102.375,71.41785764507391L103.5,72.76343362652779L104.625,74.11540013029285L105.75,75.59511575277034L106.875,77.12337942390515L108,78.65684255586835L109.125,80.1973576453027L110.25,81.71469782901711L111.375,83.2112995322411L112.5,84.71137908965083L113.625,86.20599250282318L114.75,87.69425713210764L115.875,89.14847708674128L117,90.58023216412855L118.125,91.93297829137617L119.25,93.2428267852664L120.375,94.51849668144213L121.5,95.84458434045824L122.625,97.06521100893106L123.75,98.31914174017012L124.875,99.63057941958236L126,100.94880348249688L127.125,102.19878376930879L128.25,103.52581019700064L129.375,104.81099560179786L130.5,106.09716372029526L131.625,107.29374275516486L132.75,108.50375279893727L133.875,109.68201909185152L135,110.89060844233236L136.125,112.08286428221604L137.25,113.2937810981566L138.375,114.55128502849685L139.5,115.83125042050719L140.625,117.09925274980397L141.75,118.28366151303365L142.875,119.42450790045122L144,120.57969058362576L145.125,121.71865851493709L146.25,122.86326705918115L147.375,123.99641800824048L148.5,125.1101063056077L149.625,126.19895346162613L150.75,127.28565186867762L151.875,128.38307366517788L153,129.49414666957412L154.125,130.6285400895283L155.25,131.7071037942065L156.375,132.75169012325912L157.5,133.79164312815504L158.625,134.8137344023825L159.75,135.83069535447063L160.875,136.86160201261362L162,137.86634874925238L163.125,138.81631649647932L164.25,139.75516428203068L165.375,140.68120189588583L166.5,141.57720654167608L167.625,142.45761311625165L168.75,143.32861289345246L169.875,144.19929155793693L171,145.01956904040466L172.125,145.84916839663202L173.25,146.68323394293364L174.375,147.48334185371755L175.5,148.27604691494034L176.625,149.0429464716227L177.75,149.7690906271264L178.875,150.4644275513247L180,151.17211497413302L181.125,151.878365063916L182.25,152.5723155708071L183.375,153.24229402043883L184.5,153.90170163007383L185.625,154.51851302331679L186.75,155.11048600641487L187.875,155.70263767960054L189,156.28425063542133L190.125,156.84958977177342L191.25,157.40092063027117L192.375,157.9349509352188L193.5,158.45394930737206L194.625,158.95496100104225L195.75,159.4494246737958L196.875,159.92780303123226L198,160.3847573338795L199.125,160.82689106316639L200.25,161.2590534689014L201.375,161.66859281833513L202.5,162.06213662436386L203.625,162.4352213770252L204.75,162.79816467941407L205.875,163.1473983229218L207,163.47627364565673L208.125,163.79130351796326L209.25,164.0928470182421L210.375,164.3769235620066L211.5,164.64824208617648L212.625,164.90435294184078L213.75,165.1500923756051L214.875,165.38500531021128L216,165.59860435970106L217.125,165.80171690113013L218.25,165.98952206427037L219.375,166.1651696123838L220.5,166.32971019712227L221.625,166.4805372708702L222.75,166.62356782983818L223.875,166.7581800175482L225,166.87954093803333L226.125,166.9923996197544L227.25,167.09281989737522L228.375,167.18522565410677L229.5,167.26881848536163L230.625,167.34472582902936L231.75,167.41041118656008L232.875,167.46866857696585L234,167.51985565888836L235.125,167.56377941302148L236.25,167.60231414559132L237.375,167.6343785266167L238.5,167.66128989859575L239.625,167.68331116592105L240.75,167.70136734556473L241.875,167.71527015069645L243,167.72579377016956L244.125,167.73357055855718L245.25,167.73897992860313L246.375,167.74248930118378L247.5,167.7446428793782" style="fill: none;" fill="none"></path></g></g></g></g><g opacity="0.2"><g><g><g><path stroke="rgb(255, 112, 67)" stroke-width="2px" d="M23.625,20.79145993969653L24.75,20.660423869436407L25.875,20.534542923623835L27,20.397032976150474L28.125,20.27588755163277L29.25,20.093120406974403L30.375,20.060870907523373L31.5,19.909274282780537L32.625,19.897465451197164L33.75,19.479420824484365L34.875,19.575150286609446L36,19.419477516954565L37.125,19.19433045387264L38.25,19.20092421770092L39.375,18.4510933838107L40.5,18.454330322417313L41.625,18.252441262656962L42.75,17.439370239322805L43.875,16.74468724835999L45,16.756316250020777L46.125,16.0882480876012L47.25,15.257254015315622L48.375,15.867356999353902L49.5,16.07020515203472L50.625,15.980290190740034L51.75,16.5952485826882L52.875,17.658403085036678L54,18.53471429781477L55.125,18.926204039291875L56.25,19.73010373657397L57.375,20.6352476802739L58.5,21.54746493426233L59.625,22.21235610138282L60.75,22.792667261578796L61.875,24.000045361843952L63,25.571399225430028L64.125,26.948896432464743L65.25,28.3986852683804L66.375,29.241668002171917L67.5,30.545434940944983L68.625,31.992586271329326L69.75,33.40550997311416L70.875,35.04651796004987L72,36.54174382307309L73.125,37.30464229800481L74.25,38.747058107094304L75.375,40.15512640096921L76.5,41.48059281706808L77.625,42.72681418061254L78.75,44.25518869269976L79.875,45.68531612374564L81,47.14109929041426L82.125,48.44504605910993L83.25,49.39928357167675L84.375,50.8698127919977L85.5,52.30545500733634L86.625,53.760698684237205L87.75,54.81510146368632L88.875,56.24906526641411L90,57.75777837363155L91.125,59.153258572925196L92.25,60.64590687372466L93.375,61.853584690527455L94.5,63.282333425500155L95.625,64.77612064914268L96.75,66.15547609871084L97.875,67.79894176125525L99,69.55024543404578L100.125,71.08635263280433L101.25,72.4802143627947L102.375,73.20534855398265L103.5,74.78179759870874L104.625,76.14334988594054L105.75,77.81468918648632L106.875,79.41577493060717L108,80.9570372538133L109.125,82.5081302794543L110.25,83.99070810458876L111.375,85.45620208707722L112.5,86.96149842576546L113.625,88.44791262258181L114.75,89.92665407603437L115.875,91.32980701869184L117,92.72786478020929L118.125,93.9620974822478L119.25,95.20759952610189L120.375,96.4320015257055L121.5,97.83371582898226L122.625,98.89615101164037L123.75,100.2000378370285L124.875,101.59773593870075L126,102.92613957686856L127.125,104.07375419952653L128.25,105.51634983853862L129.375,106.73877370899373L130.5,108.02641589804128L131.625,109.0886113074693L132.75,110.31876786459576L133.875,111.44941853122279L135,112.70349246805364L136.125,113.8712480420416L137.25,115.11015632206744L138.375,116.43754092400724L139.5,117.75119850852273L140.625,119.00125624374911L141.75,120.06027465787801L142.875,121.13577748157762L144,122.3124646083875L145.125,123.42711041190408L146.25,124.58017987554724L147.375,125.69614443182945L148.5,126.78063875165853L149.625,127.83222419565375L150.75,128.9156994792548L151.875,130.0292063599283L153,131.16075617616826L154.125,132.33013021945953L155.25,133.32494935122403L156.375,134.31856961683795L157.5,135.35157263549894L158.625,136.34687131372365L159.75,137.35613678260285L160.875,138.40796199982816L162,139.37346885421059L163.125,140.24126811731946L164.25,141.16343596035784L165.375,142.0702583166686L166.5,142.9212135103616L167.625,143.7782229781151L168.75,144.6351125592535L169.875,145.5053095546636L171,146.24998526410624L172.125,147.09356743097308L173.25,147.934332262386L174.375,148.6835037198934L175.5,149.4651045067744L176.625,150.19329580664638L177.75,150.8583068603819L178.875,151.5074329376221L180,152.23364610834557L181.125,152.93774019859055L182.25,153.61324133114383L183.375,154.24726169488648L184.5,154.89081304452637L185.625,155.44373011318123L186.75,155.99844548106196L187.875,156.59086518937892L189,157.15667006915268L190.125,157.69759847630155L191.25,158.22791691801766L192.375,158.73599639264023L193.5,159.232446865602L194.625,159.70647854154763L195.75,160.19112018292603L196.875,160.6453705673868L198,161.0701887878505L199.125,161.4900916570967L200.25,161.9072970775041L201.375,162.28290184248578L202.5,162.65245233340698L203.625,162.99484850601718L204.75,163.34257963299754L205.875,163.6712487881834L207,163.9695866297592L208.125,164.26384832642296L209.25,164.5451622686603L210.375,164.80303837765348L211.5,165.05521987243134L212.625,165.2885192253373L213.75,165.51870152625173L214.875,165.7373747121204L216,165.9190029339357L217.125,166.10638571327385L218.25,166.2712298089808L219.375,166.42864093455404L220.5,166.57652107423004L221.625,166.7067778814923L222.75,166.83811366829008L223.875,166.9600982991132L225,167.06158231876114L226.125,167.16168764233592L227.25,167.24345031380656L228.375,167.323834289204L229.5,167.39420773224398L230.625,167.458586844531L231.75,167.50893922285601L232.875,167.55605466257444L234,167.5966362817721L235.125,167.62966504422104L236.25,167.66011624444616L237.375,167.68247509815478L238.5,167.7016569565643L239.625,167.7163430669091L240.75,167.72845161503014L241.875,167.73612435839394L243,167.74157919937917L244.125,167.7452357411385L245.25,167.7470939836719L246.375,167.74775336005473L247.5,167.7478732466698" style="fill: none;" fill="none"></path></g></g></g></g></g></g><g transform="translate(60, 177)" clip-path="url(#clip_1)"><clipPath id="clip_1"><rect width="270" height="23"></rect></clipPath><g><g><line x1="0" y1="0" x2="0" y2="5" style="visibility: inherit;" fill="rgb(0, 0, 0)" stroke="rgb(204, 204, 204)" stroke-width="1px"></line><line x1="22.5" y1="0" x2="22.5" y2="5" style="visibility: inherit;" fill="rgb(0, 0, 0)" stroke="rgb(204, 204, 204)" stroke-width="1px"></line><line x1="45" y1="0" x2="45" y2="5" style="visibility: inherit;" fill="rgb(0, 0, 0)" stroke="rgb(204, 204, 204)" stroke-width="1px"></line><line x1="67.5" y1="0" x2="67.5" y2="5" style="visibility: inherit;" fill="rgb(0, 0, 0)" stroke="rgb(204, 204, 204)" stroke-width="1px"></line><line x1="90" y1="0" x2="90" y2="5" style="visibility: inherit;" fill="rgb(0, 0, 0)" stroke="rgb(204, 204, 204)" stroke-width="1px"></line><line x1="112.5" y1="0" x2="112.5" y2="5" style="visibility: inherit;" fill="rgb(0, 0, 0)" stroke="rgb(204, 204, 204)" stroke-width="1px"></line><line x1="135" y1="0" x2="135" y2="5" style="visibility: inherit;" fill="rgb(0, 0, 0)" stroke="rgb(204, 204, 204)" stroke-width="1px"></line><line x1="157.5" y1="0" x2="157.5" y2="5" style="visibility: inherit;" fill="rgb(0, 0, 0)" stroke="rgb(204, 204, 204)" stroke-width="1px"></line><line x1="180" y1="0" x2="180" y2="5" style="visibility: inherit;" fill="rgb(0, 0, 0)" stroke="rgb(204, 204, 204)" stroke-width="1px"></line><line x1="202.5" y1="0" x2="202.5" y2="5" style="visibility: inherit;" fill="rgb(0, 0, 0)" stroke="rgb(204, 204, 204)" stroke-width="1px"></line><line x1="225" y1="0" x2="225" y2="5" style="visibility: inherit;" fill="rgb(0, 0, 0)" stroke="rgb(204, 204, 204)" stroke-width="1px"></line><line x1="247.5" y1="0" x2="247.5" y2="5" style="visibility: inherit;" fill="rgb(0, 0, 0)" stroke="rgb(204, 204, 204)" stroke-width="1px"></line><line x1="270" y1="0" x2="270" y2="5" style="visibility: inherit;" fill="rgb(0, 0, 0)" stroke="rgb(204, 204, 204)" stroke-width="1px"></line></g><g transform="translate(0, 8)"><text x="0" y="0" dx="0em" dy="0.95em" style="text-anchor: middle; visibility: hidden; font-family: Roboto, sans-serif; font-size: 12px; font-weight: 200;" fill="rgb(33, 33, 33)" stroke="none" stroke-width="1px">-2k</text><text x="22.5" y="0" dx="0em" dy="0.95em" style="text-anchor: middle; visibility: inherit; font-family: Roboto, sans-serif; font-size: 12px; font-weight: 200;" fill="rgb(33, 33, 33)" stroke="none" stroke-width="1px">0</text><text x="45" y="0" dx="0em" dy="0.95em" style="text-anchor: middle; visibility: hidden; font-family: Roboto, sans-serif; font-size: 12px; font-weight: 200;" fill="rgb(33, 33, 33)" stroke="none" stroke-width="1px">2k</text><text x="67.5" y="0" dx="0em" dy="0.95em" style="text-anchor: middle; visibility: inherit; font-family: Roboto, sans-serif; font-size: 12px; font-weight: 200;" fill="rgb(33, 33, 33)" stroke="none" stroke-width="1px">4k</text><text x="90" y="0" dx="0em" dy="0.95em" style="text-anchor: middle; visibility: hidden; font-family: Roboto, sans-serif; font-size: 12px; font-weight: 200;" fill="rgb(33, 33, 33)" stroke="none" stroke-width="1px">6k</text><text x="112.5" y="0" dx="0em" dy="0.95em" style="text-anchor: middle; visibility: inherit; font-family: Roboto, sans-serif; font-size: 12px; font-weight: 200;" fill="rgb(33, 33, 33)" stroke="none" stroke-width="1px">8k</text><text x="135" y="0" dx="0em" dy="0.95em" style="text-anchor: middle; visibility: hidden; font-family: Roboto, sans-serif; font-size: 12px; font-weight: 200;" fill="rgb(33, 33, 33)" stroke="none" stroke-width="1px">10k</text><text x="157.5" y="0" dx="0em" dy="0.95em" style="text-anchor: middle; visibility: inherit; font-family: Roboto, sans-serif; font-size: 12px; font-weight: 200;" fill="rgb(33, 33, 33)" stroke="none" stroke-width="1px">12k</text><text x="180" y="0" dx="0em" dy="0.95em" style="text-anchor: middle; visibility: hidden; font-family: Roboto, sans-serif; font-size: 12px; font-weight: 200;" fill="rgb(33, 33, 33)" stroke="none" stroke-width="1px">14k</text><text x="202.5" y="0" dx="0em" dy="0.95em" style="text-anchor: middle; visibility: inherit; font-family: Roboto, sans-serif; font-size: 12px; font-weight: 200;" fill="rgb(33, 33, 33)" stroke="none" stroke-width="1px">16k</text><text x="225" y="0" dx="0em" dy="0.95em" style="text-anchor: middle; visibility: hidden; font-family: Roboto, sans-serif; font-size: 12px; font-weight: 200;" fill="rgb(33, 33, 33)" stroke="none" stroke-width="1px">18k</text><text x="247.5" y="0" dx="0em" dy="0.95em" style="text-anchor: middle; visibility: inherit; font-family: Roboto, sans-serif; font-size: 12px; font-weight: 200;" fill="rgb(33, 33, 33)" stroke="none" stroke-width="1px">20k</text><text x="270" y="0" dx="0em" dy="0.95em" style="text-anchor: middle; visibility: hidden; font-family: Roboto, sans-serif; font-size: 12px; font-weight: 200;" fill="rgb(33, 33, 33)" stroke="none" stroke-width="1px">22k</text></g><line x1="0" y1="0" x2="270" y2="0" fill="rgb(0, 0, 0)" stroke="rgb(204, 204, 204)" stroke-width="1px"></line></g></g></g></g></svg>