<svg viewBox="0 0 330 200" xmlns="http://www.w3.org/2000/svg"><g><g><g><g><g><line x1="61.953125" y1="177" x2="56.953125" y2="177" style="visibility: inherit;" fill="rgb(0, 0, 0)" stroke="rgb(204, 204, 204)" stroke-width="1px"></line><line x1="61.953125" y1="159.3" x2="56.953125" y2="159.3" style="visibility: inherit;" fill="rgb(0, 0, 0)" stroke="rgb(204, 204, 204)" stroke-width="1px"></line><line x1="61.953125" y1="141.6" x2="56.953125" y2="141.6" style="visibility: inherit;" fill="rgb(0, 0, 0)" stroke="rgb(204, 204, 204)" stroke-width="1px"></line><line x1="61.953125" y1="123.89999999999999" x2="56.953125" y2="123.89999999999999" style="visibility: inherit;" fill="rgb(0, 0, 0)" stroke="rgb(204, 204, 204)" stroke-width="1px"></line><line x1="61.953125" y1="106.2" x2="56.953125" y2="106.2" style="visibility: inherit;" fill="rgb(0, 0, 0)" stroke="rgb(204, 204, 204)" stroke-width="1px"></line><line x1="61.953125" y1="88.49999999999999" x2="56.953125" y2="88.49999999999999" style="visibility: inherit;" fill="rgb(0, 0, 0)" stroke="rgb(204, 204, 204)" stroke-width="1px"></line><line x1="61.953125" y1="70.79999999999998" x2="56.953125" y2="70.79999999999998" style="visibility: inherit;" fill="rgb(0, 0, 0)" stroke="rgb(204, 204, 204)" stroke-width="1px"></line><line x1="61.953125" y1="53.10000000000001" x2="56.953125" y2="53.10000000000001" style="visibility: inherit;" fill="rgb(0, 0, 0)" stroke="rgb(204, 204, 204)" stroke-width="1px"></line><line x1="61.953125" y1="35.39999999999999" x2="56.953125" y2="35.39999999999999" style="visibility: inherit;" fill="rgb(0, 0, 0)" stroke="rgb(204, 204, 204)" stroke-width="1px"></line><line x1="61.953125" y1="17.699999999999996" x2="56.953125" y2="17.699999999999996" style="visibility: inherit;" fill="rgb(0, 0, 0)" stroke="rgb(204, 204, 204)" stroke-width="1px"></line><line x1="61.953125" y1="0" x2="56.953125" y2="0" style="visibility: inherit;" fill="rgb(0, 0, 0)" stroke="rgb(204, 204, 204)" stroke-width="1px"></line></g><g transform="translate(51.953125, 0)"><text x="0" y="177" dx="0em" dy="0.3em" style="text-anchor: end; visibility: hidden; font-family: Roboto, sans-serif; font-size: 12px; font-weight: 200;" fill="rgb(33, 33, 33)" stroke="none" stroke-width="1px">-5e-3</text><text x="0" y="159.3" dx="0em" dy="0.3em" style="text-anchor: end; visibility: inherit; font-family: Roboto, sans-serif; font-size: 12px; font-weight: 200;" fill="rgb(33, 33, 33)" stroke="none" stroke-width="1px">0</text><text x="0" y="141.6" dx="0em" dy="0.3em" style="text-anchor: end; visibility: hidden; font-family: Roboto, sans-serif; font-size: 12px; font-weight: 200;" fill="rgb(33, 33, 33)" stroke="none" stroke-width="1px">5e-3</text><text x="0" y="123.89999999999999" dx="0em" dy="0.3em" style="text-anchor: end; visibility: inherit; font-family: Roboto, sans-serif; font-size: 12px; font-weight: 200;" fill="rgb(33, 33, 33)" stroke="none" stroke-width="1px">0.01</text><text x="0" y="106.2" dx="0em" dy="0.3em" style="text-anchor: end; visibility: hidden; font-family: Roboto, sans-serif; font-size: 12px; font-weight: 200;" fill="rgb(33, 33, 33)" stroke="none" stroke-width="1px">0.015</text><text x="0" y="88.49999999999999" dx="0em" dy="0.3em" style="text-anchor: end; visibility: inherit; font-family: Roboto, sans-serif; font-size: 12px; font-weight: 200;" fill="rgb(33, 33, 33)" stroke="none" stroke-width="1px">0.02</text><text x="0" y="70.79999999999998" dx="0em" dy="0.3em" style="text-anchor: end; visibility: hidden; font-family: Roboto, sans-serif; font-size: 12px; font-weight: 200;" fill="rgb(33, 33, 33)" stroke="none" stroke-width="1px">0.025</text><text x="0" y="53.10000000000001" dx="0em" dy="0.3em" style="text-anchor: end; visibility: inherit; font-family: Roboto, sans-serif; font-size: 12px; font-weight: 200;" fill="rgb(33, 33, 33)" stroke="none" stroke-width="1px">0.03</text><text x="0" y="35.39999999999999" dx="0em" dy="0.3em" style="text-anchor: end; visibility: hidden; font-family: Roboto, sans-serif; font-size: 12px; font-weight: 200;" fill="rgb(33, 33, 33)" stroke="none" stroke-width="1px">0.035</text><text x="0" y="17.699999999999996" dx="0em" dy="0.3em" style="text-anchor: end; visibility: inherit; font-family: Roboto, sans-serif; font-size: 12px; font-weight: 200;" fill="rgb(33, 33, 33)" stroke="none" stroke-width="1px">0.04</text><text x="0" y="0" dx="0em" dy="0.3em" style="text-anchor: end; visibility: hidden; font-family: Roboto, sans-serif; font-size: 12px; font-weight: 200;" fill="rgb(33, 33, 33)" stroke="none" stroke-width="1px">0.045</text></g><line x1="61.953125" y1="0" x2="61.953125" y2="177" fill="rgb(0, 0, 0)" stroke="rgb(204, 204, 204)" stroke-width="1px"></line></g></g><g transform="translate(61, 0)" clip-path="url(#clip_0)"><clipPath id="clip_0"><rect width="268" height="177"></rect></clipPath><g><g><g><line x1="0" y1="0" x2="0" y2="177" fill="rgb(0, 0, 0)" stroke="rgb(66, 66, 66)" stroke-width="1px" opacity="0.25"></line><line x1="22.337239583333332" y1="0" x2="22.337239583333332" y2="177" fill="rgb(0, 0, 0)" stroke="rgb(66, 66, 66)" stroke-width="1px" opacity="0.25"></line><line x1="44.674479166666664" y1="0" x2="44.674479166666664" y2="177" fill="rgb(0, 0, 0)" stroke="rgb(66, 66, 66)" stroke-width="1px" opacity="0.25"></line><line x1="67.01171875" y1="0" x2="67.01171875" y2="177" fill="rgb(0, 0, 0)" stroke="rgb(66, 66, 66)" stroke-width="1px" opacity="0.25"></line><line x1="89.34895833333333" y1="0" x2="89.34895833333333" y2="177" fill="rgb(0, 0, 0)" stroke="rgb(66, 66, 66)" stroke-width="1px" opacity="0.25"></line><line x1="111.68619791666667" y1="0" x2="111.68619791666667" y2="177" fill="rgb(0, 0, 0)" stroke="rgb(66, 66, 66)" stroke-width="1px" opacity="0.25"></line><line x1="134.0234375" y1="0" x2="134.0234375" y2="177" fill="rgb(0, 0, 0)" stroke="rgb(66, 66, 66)" stroke-width="1px" opacity="0.25"></line><line x1="156.36067708333334" y1="0" x2="156.36067708333334" y2="177" fill="rgb(0, 0, 0)" stroke="rgb(66, 66, 66)" stroke-width="1px" opacity="0.25"></line><line x1="178.69791666666666" y1="0" x2="178.69791666666666" y2="177" fill="rgb(0, 0, 0)" stroke="rgb(66, 66, 66)" stroke-width="1px" opacity="0.25"></line><line x1="201.03515625" y1="0" x2="201.03515625" y2="177" fill="rgb(0, 0, 0)" stroke="rgb(66, 66, 66)" stroke-width="1px" opacity="0.25"></line><line x1="223.37239583333334" y1="0" x2="223.37239583333334" y2="177" fill="rgb(0, 0, 0)" stroke="rgb(66, 66, 66)" stroke-width="1px" opacity="0.25"></line><line x1="245.70963541666666" y1="0" x2="245.70963541666666" y2="177" fill="rgb(0, 0, 0)" stroke="rgb(66, 66, 66)" stroke-width="1px" opacity="0.25"></line><line x1="268.046875" y1="0" x2="268.046875" y2="177" fill="rgb(0, 0, 0)" stroke="rgb(66, 66, 66)" stroke-width="1px" opacity="0.25"></line></g><g><line x1="0" y1="177" x2="268.046875" y2="177" fill="rgb(0, 0, 0)" stroke="rgb(66, 66, 66)" stroke-width="1px" opacity="0.25"></line><line x1="0" y1="159.3" x2="268.046875" y2="159.3" fill="rgb(0, 0, 0)" stroke="rgb(66, 66, 66)" stroke-width="1px" opacity="0.25"></line><line x1="0" y1="141.6" x2="268.046875" y2="141.6" fill="rgb(0, 0, 0)" stroke="rgb(66, 66, 66)" stroke-width="1px" opacity="0.25"></line><line x1="0" y1="123.89999999999999" x2="268.046875" y2="123.89999999999999" fill="rgb(0, 0, 0)" stroke="rgb(66, 66, 66)" stroke-width="1px" opacity="0.25"></line><line x1="0" y1="106.2" x2="268.046875" y2="106.2" fill="rgb(0, 0, 0)" stroke="rgb(66, 66, 66)" stroke-width="1px" opacity="0.25"></line><line x1="0" y1="88.49999999999999" x2="268.046875" y2="88.49999999999999" fill="rgb(0, 0, 0)" stroke="rgb(66, 66, 66)" stroke-width="1px" opacity="0.25"></line><line x1="0" y1="70.79999999999998" x2="268.046875" y2="70.79999999999998" fill="rgb(0, 0, 0)" stroke="rgb(66, 66, 66)" stroke-width="1px" opacity="0.25"></line><line x1="0" y1="53.10000000000001" x2="268.046875" y2="53.10000000000001" fill="rgb(0, 0, 0)" stroke="rgb(66, 66, 66)" stroke-width="1px" opacity="0.25"></line><line x1="0" y1="35.39999999999999" x2="268.046875" y2="35.39999999999999" fill="rgb(0, 0, 0)" stroke="rgb(66, 66, 66)" stroke-width="1px" opacity="0.25"></line><line x1="0" y1="17.699999999999996" x2="268.046875" y2="17.699999999999996" fill="rgb(0, 0, 0)" stroke="rgb(66, 66, 66)" stroke-width="1px" opacity="0.25"></line><line x1="0" y1="0" x2="268.046875" y2="0" fill="rgb(0, 0, 0)" stroke="rgb(66, 66, 66)" stroke-width="1px" opacity="0.25"></line></g></g></g><g><g><line x1="0" y1="159.3" x2="268.046875" y2="159.3" fill="rgb(0, 0, 0)" stroke="rgb(153, 153, 153)" stroke-width="1.5px"></line></g></g><g><g><line x1="22.337239583333332" y1="0" x2="22.337239583333332" y2="177" fill="rgb(0, 0, 0)" stroke="rgb(153, 153, 153)" stroke-width="1.5px"></line></g></g><g><g><g><g><g><path stroke="rgb(255, 112, 67)" stroke-width="2px" d="M23.4541015625,107.38111902326344L24.570963541666664,104.43108144979922L25.687825520833336,101.11981814987196L26.8046875,97.48982141941566L27.921549479166668,93.59108084318417L29.038411458333336,89.47493564738049L30.1552734375,85.18929689619134L31.272135416666668,80.77573174648668L32.388997395833336,76.26827211062366L33.505859375,71.69353806011159L34.62272135416667,67.07156687482302L35.739583333333336,62.41699650546048L36.8564453125,57.74025407319762L37.973307291666664,53.04861615417511L39.090169270833336,48.34707796342597L40.20703125,43.639016036111826L41.32389322916667,38.92668275060838L42.44075520833333,34.211574869238696L43.5576171875,29.494680168484585L44.674479166666664,24.77663686795507L45.791341145833336,21.950236343216105L46.908203125,20.267370207936274L48.025065104166664,19.279223843461658L49.14192708333333,18.71651950044888L50.2587890625,18.417675317647642L51.37565104166667,18.285749581912828L52.492513020833336,18.26254638410612L53.609375,18.313137905534145L54.726236979166664,18.416551728643835L55.843098958333336,18.560178062241636L56.9599609375,18.73642466792066L58.07682291666667,18.94071510586959L59.19368489583333,19.170271862702975L60.310546875,19.42339150507722L61.427408854166664,19.699015047516852L62.544270833333336,19.996475448318677L63.6611328125,20.31533555711449L64.77799479166667,20.655285608392465L65.89485677083333,21.016086992603626L67.01171875,21.39755961885307L68.12858072916666,21.799542682435206L69.24544270833334,22.22188167536681L70.3623046875,22.66443641773378L71.47916666666667,23.127054226428033L72.59602864583333,23.609596016474924L73.712890625,24.111909761739334L74.82975260416667,24.633846221414395L75.94661458333333,25.175231450836407L77.0634765625,25.735908333094848L78.18033854166667,26.31570347287643L79.29720052083333,26.914449532859756L80.4140625,27.53195116045253L81.53092447916666,28.16802256895516L82.64778645833334,28.822467886170923L83.7646484375,29.495095738626667L84.88151041666666,30.185696352039333L85.99837239583334,30.894059461662046L87.115234375,31.619974508469713L88.23209635416667,32.36320965682597L89.34895833333333,33.12355195519411L90.4658203125,33.900757582408716L91.58268229166667,34.69459584559357L92.69954427083333,35.50481755379053L93.81640625,36.33118879224783L94.93326822916667,37.173447886859925L96.05013020833333,38.03134288296432L97.1669921875,38.90461710754236L98.28385416666666,39.792995231528266L99.40071614583334,40.696206557261476L100.517578125,41.61397789091318L101.63444010416666,42.546034540953926L102.75130208333334,43.49209036721149L103.8681640625,44.45185236032818L104.98502604166667,45.425033939457045L106.10188802083333,46.411336555824356L107.21875,47.41045975491147L108.33561197916667,48.422099301247236L109.45247395833333,49.44595132829452L110.5693359375,50.48169636584346L111.68619791666667,51.52901876900805L112.80305989583333,52.58760255059131L113.919921875,53.657131518009464L115.03678385416666,54.73727089290808L116.15364583333334,55.827690570503414L117.2705078125,56.928065887659734L118.38736979166666,58.03805962119695L119.50423177083334,59.157332286919335L120.62109375,60.2855404065163L121.73795572916667,61.42234601772492L122.85481770833333,62.56739864287772L123.9716796875,63.72034820758103L125.08854166666667,64.88085015441655L126.20540364583333,66.04854741111802L127.322265625,67.22308067152146L128.43912760416669,68.40409192662979L129.55598958333334,69.59123185826269L130.6728515625,70.78412735016896L131.78971354166666,71.98242001981589L132.90657552083334,73.18574449986845L134.0234375,74.39373386961597L135.14029947916666,75.60601500131115L136.25716145833331,76.82222686801806L137.3740234375,78.04199987825425L138.49088541666669,79.26495666430397L139.60774739583334,80.49072574273349L140.724609375,81.71893388566734L141.84147135416666,82.94920945607042L142.95833333333334,84.18117385889539L144.0751953125,85.4144548743096L145.19205729166666,86.64867619509262L146.30891927083331,87.88346169909693L147.42578125,89.11843010020768L148.54264322916669,90.35321547646829L149.65950520833334,91.58743738686745L150.7763671875,92.82071459147755L151.89322916666666,94.05267592104327L153.01009114583331,95.28294833619626L154.126953125,96.51115503799456L155.24381510416669,97.73691697175227L156.36067708333334,98.95986691686464L157.4775390625,100.17963156564805L158.59440104166666,101.39583923318249L159.71126302083334,102.60811657070077L160.828125,103.8161024186549L161.94498697916666,105.01941523722037L163.06184895833331,106.21770082098976L164.1787109375,107.41058839638673L165.29557291666669,108.59771966773057L166.41243489583334,109.7787200885283L167.529296875,110.95324096812409L168.64615885416666,112.12092802932024L169.76302083333331,113.28141968673563L170.8798828125,114.4343552450901L171.99674479166669,115.57939564320836L173.11360677083334,116.71618842532273L174.23046875,117.84438892394326L175.34733072916666,118.96364659452452L176.46419270833334,120.07362319132096L177.5810546875,121.17398125410321L178.69791666666666,122.26439038771535L179.81477864583331,123.34451784228173L180.931640625,124.41402154257825L182.04850260416669,125.47259074324926L183.16536458333334,126.51990052804089L184.2822265625,127.55562670942982L185.39908854166666,128.5794600434115L186.51595052083331,129.59108047080102L187.6328125,130.59018254334964L188.74967447916669,131.57646628248833L189.86653645833334,132.54962576018656L190.9833984375,133.5093673037701L192.10026041666666,134.45540129689653L193.21712239583334,135.3874346226351L194.333984375,136.30518854811172L195.45084635416666,137.2083817614876L196.56770833333331,138.09673008479254L197.6845703125,138.9699753141855L198.80143229166669,139.82785175212948L199.91829427083334,140.67008854549363L201.03515625,141.4964315290823L202.15201822916666,142.30663523170793L203.26888020833331,143.10044621106056L204.3857421875,143.87762800157705L205.50260416666669,144.6379401471504L206.61946614583334,145.3811503473692L207.736328125,146.10703712962703L208.85319010416666,146.8153723304727L209.97005208333334,147.5059471798097L211.0869140625,148.17854641070394L212.20377604166666,148.8329670128401L213.32063802083331,149.46901267049765L214.4375,150.08648778783115L215.55436197916669,150.68519588216742L216.67122395833334,151.26496532472729L217.7880859375,151.82561829902386L218.90494791666666,152.36697921033297L220.02180989583331,152.88888714935985L221.138671875,153.39118111648622L222.25553385416669,153.87370731103994L223.37239583333334,154.33632103219526L224.4892578125,154.77887974215236L225.60611979166666,155.20124747593812L226.72298177083334,155.60330012479196L227.83984375,155.9849111327232L228.95670572916666,156.34596739379396L230.07356770833331,156.68635711349L231.1904296875,157.0059744767402L232.30729166666669,157.30472545713326L233.42415364583334,157.5825183209748L234.541015625,157.8392676143126L235.65787760416666,158.0748949891326L236.77473958333331,158.28932990513167L237.8916015625,158.4825046727427L239.00846354166669,158.65436346105494L240.12532552083334,158.80485086786257L241.2421875,158.93392519327955L242.35904947916666,159.04154453888424L243.47591145833334,159.12767532766648L244.5927734375,159.1922923476839L245.70963541666666,159.2353754086103" style="fill: none;" fill="none"></path></g></g></g></g><g opacity="0.2"><g><g><g><path stroke="rgb(255, 112, 67)" stroke-width="2px" d="M23.4541015625,107.38111902326344L24.570963541666664,102.6610589057207L25.687825520833336,97.94100538194178L26.8046875,93.22094526439903L27.921549479166668,88.50088514685629L29.038411458333336,83.78082502931355L30.1552734375,79.0607649117708L31.272135416666668,74.34071138799189L32.388997395833336,69.62064467668532L33.505859375,64.90059115290642L34.62272135416667,60.18053103536368L35.739583333333336,55.460470917820935L36.8564453125,50.74041080027819L37.973307291666664,46.02035068273545L39.090169270833336,41.30029715895653L40.20703125,36.58024363517762L41.32389322916667,31.860176923871045L42.44075520833333,27.140110212564473L43.5576171875,22.420056688785557L44.674479166666664,17.700003165006642L45.791341145833336,17.710790562629704L46.908203125,17.743126380443577L48.025065104166664,17.79702380597592L49.14192708333333,17.87246965169907L50.2587890625,17.969411167502408L51.37565104166667,18.087861540913586L52.492513020833336,18.227741646766667L53.609375,18.389025110006337L54.726236979166664,18.571672368049626L55.843098958333336,18.77561748325825L56.9599609375,19.00079451799393L58.07682291666667,19.24715072214604L59.19368489583333,19.514606970548634L60.310546875,19.803070950508122L61.427408854166664,20.112450349330906L62.544270833333336,20.442666041851048L63.6611328125,20.79362571537495L64.77799479166667,21.165210682153706L65.89485677083333,21.557289066910748L67.01171875,21.96976855695248L68.12858072916666,22.40251727700234L69.24544270833334,22.8553901642561L70.3623046875,23.328268530964856L71.47916666666667,23.82098093926907L72.59602864583333,24.333408701419835L73.712890625,24.865380379557614L74.82975260416667,25.416750910878186L75.94661458333333,25.987309294939045L77.0634765625,26.576923656463627L78.18033854166667,27.185396182537083L79.29720052083333,27.812568622827534L80.4140625,28.458203601837162L81.53092447916666,29.122129681706433L82.64778645833334,29.80413586199284L83.7646484375,30.504037517309193L84.88151041666666,31.221597272157673L85.99837239583334,31.956604126095776L87.115234375,32.708847078680996L88.23209635416667,33.4780623793602L89.34895833333333,34.264065402746205L90.4658203125,35.06656602323056L91.58268229166667,35.885353240370755L92.69954427083333,36.72015011608601L93.81640625,37.57074564993382L94.93326822916667,38.43683652877808L96.05013020833333,39.318185377120976L97.1669921875,40.214528444409375L98.28385416666666,41.125562417507176L99.40071614583334,42.05102354586125L100.517578125,42.990634891390805L101.63444010416666,43.94411951601506L102.75130208333334,44.911174106597905L103.8681640625,45.89149535000325L104.98502604166667,46.884806308150296L106.10188802083333,47.890790480375294L107.21875,48.90914455354214L108.33561197916667,49.93955862075091L109.45247395833333,50.981729368865494L110.5693359375,52.03531392216683L111.68619791666667,53.10000237375498L112.80305989583333,54.1754782229662L113.919921875,55.26142496913672L115.03678385416666,56.35747995525599L116.15364583333334,57.463320086896424L117.2705078125,58.578628863394265L118.38736979166666,59.703050221502785L119.50423177083334,60.836241285502915L120.62109375,61.977852585911755L121.73795572916667,63.12755443453789L122.85481770833333,64.28497758060693L123.9716796875,65.449772554636L125.08854166666667,66.62160307466982L126.20540364583333,67.80009329617022L127.322265625,68.98488056212662L128.43912760416669,70.1756088092923L129.55598958333334,71.37194175571202L130.6728515625,72.57347058802841L131.78971354166666,73.77985902428625L132.90657552083334,74.99073121994732L134.0234375,76.20571792423723L135.14029947916666,77.42443669885395L136.25716145833331,78.6465446680784L137.3740234375,79.87165939360855L138.49088541666669,81.09939184337853L139.60774739583334,82.32937936037777L140.724609375,83.56124610006808L141.84147135416666,84.79462281167505L142.95833333333334,86.02912046313284L144.0751953125,87.26437639743088L145.19205729166666,88.50000817626713L146.30891927083331,89.73563995510338L147.42578125,90.97088270187376L148.54264322916669,92.2053935408592L149.65950520833334,93.43877025246618L150.7763671875,94.67063039839266L151.89322916666666,95.9006179153919L153.01009114583331,97.1283569589257L154.126953125,98.35346509069203L155.24381510416669,99.57555987238882L156.36067708333334,100.7942918345332L157.4775390625,102.00927853882311L158.59440104166666,103.22015073448418L159.71126302083334,104.42653257697819L160.828125,105.62808119058607L161.94498697916666,106.82438446506856L163.06184895833331,108.01512919664381L164.1787109375,109.19991975948213L165.29557291666669,110.37841657474635L166.41243489583334,111.55022071972488L167.529296875,112.71502228751777L168.64615885416666,113.87245862111448L169.76302083333331,115.0221571728587L170.8798828125,116.1637585826218L171.99674479166669,117.29695624038575L173.11360677083334,118.42137759849427L174.23046875,119.53668967187403L175.34733072916666,120.64253310039638L176.46419270833334,121.73858808651565L177.5810546875,122.8245183482766L178.69791666666666,123.90000408813356L179.81477864583331,124.96470902413128L180.931640625,126.01827709302304L182.04850260416669,127.06044454425572L183.16536458333334,128.0908652052283L184.2822265625,129.10921598151324L185.39908854166666,130.11521004438399L186.51595052083331,131.1085111118853L187.6328125,132.08883565217255L188.74967447916669,133.05589189119635L189.86653645833334,134.0093649767339L190.9833984375,134.94897961914538L192.10026041666666,135.87445228658615L193.21712239583334,136.785484611243L194.333984375,137.6818194363266L195.45084635416666,138.56317158155142L196.56770833333331,139.42925256974993L197.6845703125,140.27984315827487L198.80143229166669,141.11466640904544L199.91829427083334,141.9334437355399L201.03515625,142.7359460044652L202.15201822916666,143.52194078564642L203.26888020833331,144.29116268008946L204.3857421875,145.0434006873518L205.50260416666669,145.7784083655104L206.61946614583334,146.49596564769743L207.736328125,147.19586730301378L208.85319010416666,147.87787513174115L209.97005208333334,148.5418094538152L211.0869140625,149.1874452570453L212.20377604166666,149.8145979160443L213.32063802083331,150.42308115698398L214.4375,151.01270046383144L215.55436197916669,151.58325802367182L216.67122395833334,152.13461948856713L217.7880859375,152.66659776046873L218.90494791666666,153.17902057729663L220.02180989583331,153.67174905790017L221.138671875,154.14462206717582L222.25553385416669,154.59749660287054L223.37239583333334,155.03024161392824L224.4892578125,155.44271780708806L225.60611979166666,155.83479907661678L226.72298177083334,156.20637909807266L227.83984375,156.5573276446201L228.95670572916666,156.88755178540015L230.07356770833331,157.19694169303403L231.1904296875,157.48540052161553L232.30729166666669,157.75285192772282L233.42415364583334,157.99920761673712L234.541015625,158.2243915543193L235.65787760416666,158.42833605136258L236.77473958333331,158.61098227913027L237.8916015625,158.77226682415932L239.00846354166669,158.91215164352326L240.12532552083334,159.03058197807405L241.2421875,159.12753668140505L242.35904947916666,159.20297355729127L243.47591145833334,159.25687151083986L244.5927734375,159.28921787770997L245.70963541666666,159.3" style="fill: none;" fill="none"></path></g></g></g></g></g></g><g transform="translate(61, 177)" clip-path="url(#clip_1)"><clipPath id="clip_1"><rect width="268" height="23"></rect></clipPath><g><g><line x1="0" y1="0" x2="0" y2="5" style="visibility: inherit;" fill="rgb(0, 0, 0)" stroke="rgb(204, 204, 204)" stroke-width="1px"></line><line x1="22.337239583333332" y1="0" x2="22.337239583333332" y2="5" style="visibility: inherit;" fill="rgb(0, 0, 0)" stroke="rgb(204, 204, 204)" stroke-width="1px"></line><line x1="44.674479166666664" y1="0" x2="44.674479166666664" y2="5" style="visibility: inherit;" fill="rgb(0, 0, 0)" stroke="rgb(204, 204, 204)" stroke-width="1px"></line><line x1="67.01171875" y1="0" x2="67.01171875" y2="5" style="visibility: inherit;" fill="rgb(0, 0, 0)" stroke="rgb(204, 204, 204)" stroke-width="1px"></line><line x1="89.34895833333333" y1="0" x2="89.34895833333333" y2="5" style="visibility: inherit;" fill="rgb(0, 0, 0)" stroke="rgb(204, 204, 204)" stroke-width="1px"></line><line x1="111.68619791666667" y1="0" x2="111.68619791666667" y2="5" style="visibility: inherit;" fill="rgb(0, 0, 0)" stroke="rgb(204, 204, 204)" stroke-width="1px"></line><line x1="134.0234375" y1="0" x2="134.0234375" y2="5" style="visibility: inherit;" fill="rgb(0, 0, 0)" stroke="rgb(204, 204, 204)" stroke-width="1px"></line><line x1="156.36067708333334" y1="0" x2="156.36067708333334" y2="5" style="visibility: inherit;" fill="rgb(0, 0, 0)" stroke="rgb(204, 204, 204)" stroke-width="1px"></line><line x1="178.69791666666666" y1="0" x2="178.69791666666666" y2="5" style="visibility: inherit;" fill="rgb(0, 0, 0)" stroke="rgb(204, 204, 204)" stroke-width="1px"></line><line x1="201.03515625" y1="0" x2="201.03515625" y2="5" style="visibility: inherit;" fill="rgb(0, 0, 0)" stroke="rgb(204, 204, 204)" stroke-width="1px"></line><line x1="223.37239583333334" y1="0" x2="223.37239583333334" y2="5" style="visibility: inherit;" fill="rgb(0, 0, 0)" stroke="rgb(204, 204, 204)" stroke-width="1px"></line><line x1="245.70963541666666" y1="0" x2="245.70963541666666" y2="5" style="visibility: inherit;" fill="rgb(0, 0, 0)" stroke="rgb(204, 204, 204)" stroke-width="1px"></line><line x1="268.046875" y1="0" x2="268.046875" y2="5" style="visibility: inherit;" fill="rgb(0, 0, 0)" stroke="rgb(204, 204, 204)" stroke-width="1px"></line></g><g transform="translate(0, 8)"><text x="0" y="0" dx="0em" dy="0.95em" style="text-anchor: middle; visibility: hidden; font-family: Roboto, sans-serif; font-size: 12px; font-weight: 200;" fill="rgb(33, 33, 33)" stroke="none" stroke-width="1px">-2k</text><text x="22.337239583333332" y="0" dx="0em" dy="0.95em" style="text-anchor: middle; visibility: inherit; font-family: Roboto, sans-serif; font-size: 12px; font-weight: 200;" fill="rgb(33, 33, 33)" stroke="none" stroke-width="1px">0</text><text x="44.674479166666664" y="0" dx="0em" dy="0.95em" style="text-anchor: middle; visibility: hidden; font-family: Roboto, sans-serif; font-size: 12px; font-weight: 200;" fill="rgb(33, 33, 33)" stroke="none" stroke-width="1px">2k</text><text x="67.01171875" y="0" dx="0em" dy="0.95em" style="text-anchor: middle; visibility: inherit; font-family: Roboto, sans-serif; font-size: 12px; font-weight: 200;" fill="rgb(33, 33, 33)" stroke="none" stroke-width="1px">4k</text><text x="89.34895833333333" y="0" dx="0em" dy="0.95em" style="text-anchor: middle; visibility: hidden; font-family: Roboto, sans-serif; font-size: 12px; font-weight: 200;" fill="rgb(33, 33, 33)" stroke="none" stroke-width="1px">6k</text><text x="111.68619791666667" y="0" dx="0em" dy="0.95em" style="text-anchor: middle; visibility: inherit; font-family: Roboto, sans-serif; font-size: 12px; font-weight: 200;" fill="rgb(33, 33, 33)" stroke="none" stroke-width="1px">8k</text><text x="134.0234375" y="0" dx="0em" dy="0.95em" style="text-anchor: middle; visibility: hidden; font-family: Roboto, sans-serif; font-size: 12px; font-weight: 200;" fill="rgb(33, 33, 33)" stroke="none" stroke-width="1px">10k</text><text x="156.36067708333334" y="0" dx="0em" dy="0.95em" style="text-anchor: middle; visibility: inherit; font-family: Roboto, sans-serif; font-size: 12px; font-weight: 200;" fill="rgb(33, 33, 33)" stroke="none" stroke-width="1px">12k</text><text x="178.69791666666666" y="0" dx="0em" dy="0.95em" style="text-anchor: middle; visibility: hidden; font-family: Roboto, sans-serif; font-size: 12px; font-weight: 200;" fill="rgb(33, 33, 33)" stroke="none" stroke-width="1px">14k</text><text x="201.03515625" y="0" dx="0em" dy="0.95em" style="text-anchor: middle; visibility: inherit; font-family: Roboto, sans-serif; font-size: 12px; font-weight: 200;" fill="rgb(33, 33, 33)" stroke="none" stroke-width="1px">16k</text><text x="223.37239583333334" y="0" dx="0em" dy="0.95em" style="text-anchor: middle; visibility: hidden; font-family: Roboto, sans-serif; font-size: 12px; font-weight: 200;" fill="rgb(33, 33, 33)" stroke="none" stroke-width="1px">18k</text><text x="245.70963541666666" y="0" dx="0em" dy="0.95em" style="text-anchor: middle; visibility: inherit; font-family: Roboto, sans-serif; font-size: 12px; font-weight: 200;" fill="rgb(33, 33, 33)" stroke="none" stroke-width="1px">20k</text><text x="268.046875" y="0" dx="0em" dy="0.95em" style="text-anchor: middle; visibility: hidden; font-family: Roboto, sans-serif; font-size: 12px; font-weight: 200;" fill="rgb(33, 33, 33)" stroke="none" stroke-width="1px">22k</text></g><line x1="0" y1="0" x2="268.046875" y2="0" fill="rgb(0, 0, 0)" stroke="rgb(204, 204, 204)" stroke-width="1px"></line></g></g></g></g></svg>