<svg viewBox="0 0 330 200" xmlns="http://www.w3.org/2000/svg"><g><g><g><g><g><line x1="60" y1="177" x2="55" y2="177" style="visibility: inherit;" fill="rgb(0, 0, 0)" stroke="rgb(204, 204, 204)" stroke-width="1px"></line><line x1="60" y1="157.33333333333331" x2="55" y2="157.33333333333331" style="visibility: inherit;" fill="rgb(0, 0, 0)" stroke="rgb(204, 204, 204)" stroke-width="1px"></line><line x1="60" y1="137.66666666666666" x2="55" y2="137.66666666666666" style="visibility: inherit;" fill="rgb(0, 0, 0)" stroke="rgb(204, 204, 204)" stroke-width="1px"></line><line x1="60" y1="118.00000000000001" x2="55" y2="118.00000000000001" style="visibility: inherit;" fill="rgb(0, 0, 0)" stroke="rgb(204, 204, 204)" stroke-width="1px"></line><line x1="60" y1="98.33333333333334" x2="55" y2="98.33333333333334" style="visibility: inherit;" fill="rgb(0, 0, 0)" stroke="rgb(204, 204, 204)" stroke-width="1px"></line><line x1="60" y1="78.66666666666666" x2="55" y2="78.66666666666666" style="visibility: inherit;" fill="rgb(0, 0, 0)" stroke="rgb(204, 204, 204)" stroke-width="1px"></line><line x1="60" y1="58.999999999999986" x2="55" y2="58.999999999999986" style="visibility: inherit;" fill="rgb(0, 0, 0)" stroke="rgb(204, 204, 204)" stroke-width="1px"></line><line x1="60" y1="39.33333333333335" x2="55" y2="39.33333333333335" style="visibility: inherit;" fill="rgb(0, 0, 0)" stroke="rgb(204, 204, 204)" stroke-width="1px"></line><line x1="60" y1="19.666666666666657" x2="55" y2="19.666666666666657" style="visibility: inherit;" fill="rgb(0, 0, 0)" stroke="rgb(204, 204, 204)" stroke-width="1px"></line><line x1="60" y1="0" x2="55" y2="0" style="visibility: inherit;" fill="rgb(0, 0, 0)" stroke="rgb(204, 204, 204)" stroke-width="1px"></line></g><g transform="translate(50, 0)"><text x="0" y="177" dx="0em" dy="0.3em" style="text-anchor: end; visibility: hidden; font-family: Roboto, sans-serif; font-size: 12px; font-weight: 200;" fill="rgb(33, 33, 33)" stroke="none" stroke-width="1px">-5e-3</text><text x="0" y="157.33333333333331" dx="0em" dy="0.3em" style="text-anchor: end; visibility: inherit; font-family: Roboto, sans-serif; font-size: 12px; font-weight: 200;" fill="rgb(33, 33, 33)" stroke="none" stroke-width="1px">0</text><text x="0" y="137.66666666666666" dx="0em" dy="0.3em" style="text-anchor: end; visibility: hidden; font-family: Roboto, sans-serif; font-size: 12px; font-weight: 200;" fill="rgb(33, 33, 33)" stroke="none" stroke-width="1px">5e-3</text><text x="0" y="118.00000000000001" dx="0em" dy="0.3em" style="text-anchor: end; visibility: inherit; font-family: Roboto, sans-serif; font-size: 12px; font-weight: 200;" fill="rgb(33, 33, 33)" stroke="none" stroke-width="1px">0.01</text><text x="0" y="98.33333333333334" dx="0em" dy="0.3em" style="text-anchor: end; visibility: hidden; font-family: Roboto, sans-serif; font-size: 12px; font-weight: 200;" fill="rgb(33, 33, 33)" stroke="none" stroke-width="1px">0.015</text><text x="0" y="78.66666666666666" dx="0em" dy="0.3em" style="text-anchor: end; visibility: inherit; font-family: Roboto, sans-serif; font-size: 12px; font-weight: 200;" fill="rgb(33, 33, 33)" stroke="none" stroke-width="1px">0.02</text><text x="0" y="58.999999999999986" dx="0em" dy="0.3em" style="text-anchor: end; visibility: hidden; font-family: Roboto, sans-serif; font-size: 12px; font-weight: 200;" fill="rgb(33, 33, 33)" stroke="none" stroke-width="1px">0.025</text><text x="0" y="39.33333333333335" dx="0em" dy="0.3em" style="text-anchor: end; visibility: inherit; font-family: Roboto, sans-serif; font-size: 12px; font-weight: 200;" fill="rgb(33, 33, 33)" stroke="none" stroke-width="1px">0.03</text><text x="0" y="19.666666666666657" dx="0em" dy="0.3em" style="text-anchor: end; visibility: hidden; font-family: Roboto, sans-serif; font-size: 12px; font-weight: 200;" fill="rgb(33, 33, 33)" stroke="none" stroke-width="1px">0.035</text><text x="0" y="0" dx="0em" dy="0.3em" style="text-anchor: end; visibility: hidden; font-family: Roboto, sans-serif; font-size: 12px; font-weight: 200;" fill="rgb(33, 33, 33)" stroke="none" stroke-width="1px">0.04</text></g><line x1="60" y1="0" x2="60" y2="177" fill="rgb(0, 0, 0)" stroke="rgb(204, 204, 204)" stroke-width="1px"></line></g></g><g transform="translate(60, 0)" clip-path="url(#clip_0)"><clipPath id="clip_0"><rect width="270" height="177"></rect></clipPath><g><g><g><line x1="0" y1="0" x2="0" y2="177" fill="rgb(0, 0, 0)" stroke="rgb(66, 66, 66)" stroke-width="1px" opacity="0.25"></line><line x1="22.5" y1="0" x2="22.5" y2="177" fill="rgb(0, 0, 0)" stroke="rgb(66, 66, 66)" stroke-width="1px" opacity="0.25"></line><line x1="45" y1="0" x2="45" y2="177" fill="rgb(0, 0, 0)" stroke="rgb(66, 66, 66)" stroke-width="1px" opacity="0.25"></line><line x1="67.5" y1="0" x2="67.5" y2="177" fill="rgb(0, 0, 0)" stroke="rgb(66, 66, 66)" stroke-width="1px" opacity="0.25"></line><line x1="90" y1="0" x2="90" y2="177" fill="rgb(0, 0, 0)" stroke="rgb(66, 66, 66)" stroke-width="1px" opacity="0.25"></line><line x1="112.5" y1="0" x2="112.5" y2="177" fill="rgb(0, 0, 0)" stroke="rgb(66, 66, 66)" stroke-width="1px" opacity="0.25"></line><line x1="135" y1="0" x2="135" y2="177" fill="rgb(0, 0, 0)" stroke="rgb(66, 66, 66)" stroke-width="1px" opacity="0.25"></line><line x1="157.5" y1="0" x2="157.5" y2="177" fill="rgb(0, 0, 0)" stroke="rgb(66, 66, 66)" stroke-width="1px" opacity="0.25"></line><line x1="180" y1="0" x2="180" y2="177" fill="rgb(0, 0, 0)" stroke="rgb(66, 66, 66)" stroke-width="1px" opacity="0.25"></line><line x1="202.5" y1="0" x2="202.5" y2="177" fill="rgb(0, 0, 0)" stroke="rgb(66, 66, 66)" stroke-width="1px" opacity="0.25"></line><line x1="225" y1="0" x2="225" y2="177" fill="rgb(0, 0, 0)" stroke="rgb(66, 66, 66)" stroke-width="1px" opacity="0.25"></line><line x1="247.5" y1="0" x2="247.5" y2="177" fill="rgb(0, 0, 0)" stroke="rgb(66, 66, 66)" stroke-width="1px" opacity="0.25"></line><line x1="270" y1="0" x2="270" y2="177" fill="rgb(0, 0, 0)" stroke="rgb(66, 66, 66)" stroke-width="1px" opacity="0.25"></line></g><g><line x1="0" y1="177" x2="270" y2="177" fill="rgb(0, 0, 0)" stroke="rgb(66, 66, 66)" stroke-width="1px" opacity="0.25"></line><line x1="0" y1="157.33333333333331" x2="270" y2="157.33333333333331" fill="rgb(0, 0, 0)" stroke="rgb(66, 66, 66)" stroke-width="1px" opacity="0.25"></line><line x1="0" y1="137.66666666666666" x2="270" y2="137.66666666666666" fill="rgb(0, 0, 0)" stroke="rgb(66, 66, 66)" stroke-width="1px" opacity="0.25"></line><line x1="0" y1="118.00000000000001" x2="270" y2="118.00000000000001" fill="rgb(0, 0, 0)" stroke="rgb(66, 66, 66)" stroke-width="1px" opacity="0.25"></line><line x1="0" y1="98.33333333333334" x2="270" y2="98.33333333333334" fill="rgb(0, 0, 0)" stroke="rgb(66, 66, 66)" stroke-width="1px" opacity="0.25"></line><line x1="0" y1="78.66666666666666" x2="270" y2="78.66666666666666" fill="rgb(0, 0, 0)" stroke="rgb(66, 66, 66)" stroke-width="1px" opacity="0.25"></line><line x1="0" y1="58.999999999999986" x2="270" y2="58.999999999999986" fill="rgb(0, 0, 0)" stroke="rgb(66, 66, 66)" stroke-width="1px" opacity="0.25"></line><line x1="0" y1="39.33333333333335" x2="270" y2="39.33333333333335" fill="rgb(0, 0, 0)" stroke="rgb(66, 66, 66)" stroke-width="1px" opacity="0.25"></line><line x1="0" y1="19.666666666666657" x2="270" y2="19.666666666666657" fill="rgb(0, 0, 0)" stroke="rgb(66, 66, 66)" stroke-width="1px" opacity="0.25"></line><line x1="0" y1="0" x2="270" y2="0" fill="rgb(0, 0, 0)" stroke="rgb(66, 66, 66)" stroke-width="1px" opacity="0.25"></line></g></g></g><g><g><line x1="0" y1="157.33333333333331" x2="270" y2="157.33333333333331" fill="rgb(0, 0, 0)" stroke="rgb(153, 153, 153)" stroke-width="1.5px"></line></g></g><g><g><line x1="22.5" y1="0" x2="22.5" y2="177" fill="rgb(0, 0, 0)" stroke="rgb(153, 153, 153)" stroke-width="1.5px"></line></g></g><g><g><g><g><g><path stroke="rgb(255, 112, 67)" stroke-width="2px" d="M25.875,-23.072174341804295L27,35.33198322472619L28.125,-14.676381847585683L29.25,22.906299105928397L30.375,74.2557151565925L31.5,89.79432897948725L32.625,72.98459438289433L33.75,102.43426532158365L34.875,73.92605489960866L36,40.24655110042903L37.125,35.72443212826379L38.25,-28.754449246611355L39.375,19.194965398833872L40.5,-21.60943250423142L41.625,46.77873927114498L42.75,27.4610129613161L43.875,33.84580151941354L45,74.62114860467258L46.125,91.05605531060958L47.25,61.433495901623424L48.375,91.85856725204417L49.5,103.01092354774518L50.625,107.90847814298235L51.75,112.1431491472205L52.875,114.67444623591048L54,68.28991680650053L55.125,102.37017148768606L56.25,111.47871276957956L57.375,100.21419359172714L58.5,92.90352342313653L59.625,105.95685711520271L60.75,111.81897725778308L61.875,123.34044785755961L63,129.22983506907732L64.125,104.77992619198814L65.25,117.05072709679564L66.375,133.09824162073454L67.5,141.78734978843713L68.625,144.37035321115388L69.75,149.16492061933994L70.875,130.80998311777094L72,137.6101662844131L73.125,136.90822406233264L74.25,144.82518835484115L75.375,145.8390338721404L76.5,144.7458171296885L77.625,149.70020965124448L78.75,148.31771147951528L79.875,142.36460861782354L81,141.17878386310463L82.125,143.70598681975878L83.25,144.5963761473773L84.375,145.96994569341894L85.5,150.3306168997781L86.625,152.2078781477563L87.75,153.26046771319437L88.875,154.64282337001077L90,148.67047844829796L91.125,134.46164455216666L92.25,139.50397011956505L93.375,129.23845491302558L94.5,140.0445579761817L95.625,146.49098560816745L96.75,147.3892607436977L97.875,149.04419874005927L99,151.78781251962778L100.125,153.95249098756855L101.25,155.27249503003665L102.375,155.921369643377L103.5,127.30686582805717L104.625,135.22934966121318L105.75,144.00028214178488L106.875,148.56595924896578L108,136.50355401577102L109.125,144.30897206290865L110.25,149.40146382436518L111.375,152.4711495882456L112.5,103.96251160976395L113.625,120.30312979888184L114.75,132.65152791915096L115.875,140.84865802307084L117,145.23308683303486L118.125,147.74984710584576L119.25,151.3374217541651L120.375,146.4922261809291L121.5,150.00435423590133L122.625,148.85893891148206L123.75,152.20097537913352L124.875,139.678235111108L126,146.68735510094743L127.125,150.5821361723631L128.25,152.60718279321156L129.375,154.30674296893548L130.5,154.50805446845018L131.625,154.70332544016375L132.75,155.66950757307595L133.875,155.96286837781577L135,153.85061425283618L136.125,155.1451694519955L137.25,156.00686400114176L138.375,151.1539520098488L139.5,152.2187218103416L140.625,143.0525274753734L141.75,146.49690332008885L142.875,149.97421276366802L144,152.38995304088573L145.125,150.89614237302013L146.25,153.45873296389678L147.375,145.20509472914358L148.5,149.84074350589705L149.625,152.82595394071046L150.75,153.40180102925413L151.875,154.88669746555095L153,155.855486168276L154.125,156.32145466540368L155.25,149.5032360541867L156.375,149.2198716121741L157.5,152.4516203584056L158.625,153.8548943722937L159.75,154.9681152120205L160.875,155.0686168135065L162,154.3319243204112L163.125,155.4263714507023L164.25,155.69308491384038L165.375,153.83786818771094L166.5,153.85219245834267L167.625,152.51433110582204L168.75,154.4315981980687L169.875,154.56732701496935L171,152.98111827825002L172.125,152.23506498490966L173.25,154.12127869348188L174.375,155.16685677272977L175.5,155.4628839302174L176.625,153.86096933582095L177.75,155.2473874308901L178.875,154.94811600338093L180,155.55354778229596L181.125,155.1898187451625L182.25,155.9639653535213L183.375,155.16510131077624L184.5,155.89973110595867L185.625,155.3222459061316L186.75,149.56848747402657L187.875,152.64655789023254L189,152.94829786590108L190.125,154.62760614536168L191.25,155.0527580300016L192.375,155.21052113136778L193.5,155.13040097916303L194.625,153.47752930614854L195.75,149.51040590789026L196.875,152.592068363232L198,153.97262373342642L199.125,155.3030694538802L200.25,155.06180218544304L201.375,155.14613161688814L202.5,155.98276332188422L203.625,156.28697345714411L204.75,155.25582577144237L205.875,140.86105591369747L207,147.39766869559298L208.125,150.6873237421105L209.25,151.85080400468098L210.375,154.03623389437138L211.5,150.0975206960301L212.625,152.96497142408342L213.75,149.38554774231145L214.875,152.4636798136009L216,152.79681491151888L217.125,154.39480262304733L218.25,155.0732390352722L219.375,154.85457664348746L220.5,153.2348252103561L221.625,154.83157994359192L222.75,154.78732129769446L223.875,155.26341403842872L225,155.61735085471264L226.125,156.11119199931213L227.25,156.3668792611547L228.375,156.6682419816251L229.5,156.81638167018608L230.625,156.96911408328884L231.75,157.05504505452492L232.875,156.8183563471604L234,157.00984973874878L235.125,156.75444668817335L236.25,156.49766225179224L237.375,156.40778897828596L238.5,119.01176429565788L239.625,134.29856104438272L240.75,142.4967673124955L241.875,144.77656310983016L243,149.7956361540359L244.125,152.80139462038477L245.25,154.61019235922404L246.375,155.6971425839039L247.5,144.75962821907433" style="fill: none;" fill="none"></path></g></g></g></g><g opacity="0.2"><g><g><g><path stroke="rgb(255, 112, 67)" stroke-width="2px" d="M24.75,-65.9236706395944L25.875,62.72885989646115L27,104.01527252296606L28.125,-79.96730328599614L29.25,74.89667662978172L30.375,147.68620169969896L31.5,112.44977710396051L32.625,48.193500975767776L33.75,146.16359448308745L34.875,31.422306636969243L36,-10.089422225952136L37.125,28.95601917306583L38.25,-125.34645046790443L39.375,91.06272463003792L40.5,-82.78725093603137L41.625,149.33205735186735L42.75,-1.5106717348098624L43.875,43.42201169828575L45,135.7804422043264L46.125,115.7075140401721L47.25,17.00063153107962L48.375,137.49557358771563L49.5,119.73932588100432L50.625,115.25477522611617L51.75,118.49513759464025L52.875,118.47138539204992L54,-1.286806126435589L55.125,153.4905221167331L56.25,125.1415196582675L57.375,83.31741856038569L58.5,81.93751962482929L59.625,125.53685609499614L60.75,120.61215705176194L61.875,140.62265326206884L63,138.06391573448974L64.125,68.10506325463453L65.25,135.45692834009728L66.375,157.1695133172616L67.5,154.8210120109531L68.625,148.24485834004977L69.75,156.35677172585082L70.875,103.27757687866688L72,147.81044103143117L73.125,135.85531072939435L74.25,156.70063479236947L75.375,147.35980214799443L76.5,143.10599201607207L77.625,157.13179843341155L78.75,146.24396422194937L79.875,133.43495432535806L81,139.4000467310349L82.125,147.49679125472903L83.25,145.93196013880274L84.375,148.03030001247922L85.5,156.8716237093128L86.625,155.0237700197225L87.75,154.83935206135115L88.875,156.71635685523506L90,139.71196106572944L91.125,113.14839370797077L92.25,147.06745847066244L93.375,113.84018210321663L94.5,156.2537125709156L95.625,156.16062705614604L96.75,148.73667344699302L97.875,151.52660573460162L99,155.90323318898058L100.125,157.19950868947976L101.25,157.25250109373883L102.375,156.89468156338748L103.5,84.38511010507742L104.625,147.1130754109472L105.75,157.15668086264242L106.875,155.41447490973707L108,118.40994616597891L109.125,156.0170991336151L110.25,157.04020146654997L111.375,157.0756782340662L112.5,31.19955464204153L113.625,144.81405708255866L114.75,151.17412509955466L115.875,153.14435317895064L117,151.80973004798093L118.125,151.5249875150621L119.25,156.71878372664406L120.375,139.2244328210751L121.5,155.27254631835967L122.625,147.1408159248531L123.75,157.21403008061074L124.875,120.89412470906971L126,157.2010350857066L127.125,156.42430777948658L128.25,155.64475272448422L129.375,156.8560832325214L130.5,154.8100217177222L131.625,154.9962318977341L132.75,157.11878077244424L133.875,156.4029095849255L135,150.68223306536674L136.125,157.08700225073457L137.25,157.2994058248611L138.375,143.8745840229094L139.5,153.8158765110808L140.625,129.30323597292104L141.75,151.66346708716202L142.875,155.19017692903677L144,156.0135634567123L145.125,148.65542637122175L146.25,157.30261885021173L147.375,132.82463737701377L148.5,156.79421667102724L149.625,157.30376959293062L150.75,154.26557166206962L151.875,157.11404211999616L153,157.3086692223636L154.125,157.02040741109522L155.25,139.2759081373612L156.375,148.79482494915527L157.5,157.29924347775278L158.625,155.95980539312586L159.75,156.63794647161072L160.875,155.21936921573555L162,153.22688558076817L163.125,157.068042146139L164.25,156.09315510854748L165.375,151.05504309851676L166.5,153.87367886429033L167.625,150.50753907704103L168.75,157.30749883643875L169.875,154.77092024032027L171,150.60180517317104L172.125,151.11598504489908L173.25,156.95059925634027L174.375,156.7352238916016L175.5,155.90692466644882L176.625,151.45809744422635L177.75,157.32701457349384L178.875,154.49920886211717L180,156.46169545066851L181.125,154.6442251894623L182.25,157.12518526605953L183.375,153.96680524665862L184.5,157.00167579873232L185.625,154.45601810639104L186.75,140.937849825869L187.875,157.26366351454152L189,153.40090782940388L190.125,157.14656856455258L191.25,155.69048585696146L192.375,155.4471657834171L193.5,155.0102207508559L194.625,150.99822179662686L195.75,143.55972081050277L196.875,157.2145620462446L198,156.0434567887181L199.125,157.2987380345609L200.25,154.69990128278732L201.375,155.2726257640558L202.5,157.2377108793783L203.625,156.74328866003393L204.75,153.70910424288982L205.875,119.2689011270801L207,157.20258786843624L208.125,155.62180631188676L209.25,153.59602439853674L210.375,157.31437872890697L211.5,144.18945089851817L212.625,157.26614751616336L213.75,144.01641221965352L214.875,157.08087792053507L216,153.29651755839586L217.125,156.79178419033997L218.25,156.0908936536095L219.375,154.5265830558104L220.5,150.80519806065905L221.625,157.22671204344562L222.75,154.72093332884833L223.875,155.97755314953005L225,156.14825607913858L226.125,156.85195371621134L227.25,156.7504101539186L228.375,157.1202860623307L229.5,157.03859120302755L230.625,157.19821270294293L231.75,157.1839415113791L232.875,156.46332328611362L234,157.29708982613133L235.125,156.37134211231023L236.25,156.11248559722054L237.375,156.27297906802656L238.5,62.91772727171579L239.625,157.22875616746995L240.75,154.7940767146647L241.875,148.19625680583218L243,157.32424572034446L244.125,157.31003231990812L245.25,157.32338896748297L246.375,157.32756792092368L247.5,128.35335667183003" style="fill: none;" fill="none"></path></g></g></g></g></g></g><g transform="translate(60, 177)" clip-path="url(#clip_1)"><clipPath id="clip_1"><rect width="270" height="23"></rect></clipPath><g><g><line x1="0" y1="0" x2="0" y2="5" style="visibility: inherit;" fill="rgb(0, 0, 0)" stroke="rgb(204, 204, 204)" stroke-width="1px"></line><line x1="22.5" y1="0" x2="22.5" y2="5" style="visibility: inherit;" fill="rgb(0, 0, 0)" stroke="rgb(204, 204, 204)" stroke-width="1px"></line><line x1="45" y1="0" x2="45" y2="5" style="visibility: inherit;" fill="rgb(0, 0, 0)" stroke="rgb(204, 204, 204)" stroke-width="1px"></line><line x1="67.5" y1="0" x2="67.5" y2="5" style="visibility: inherit;" fill="rgb(0, 0, 0)" stroke="rgb(204, 204, 204)" stroke-width="1px"></line><line x1="90" y1="0" x2="90" y2="5" style="visibility: inherit;" fill="rgb(0, 0, 0)" stroke="rgb(204, 204, 204)" stroke-width="1px"></line><line x1="112.5" y1="0" x2="112.5" y2="5" style="visibility: inherit;" fill="rgb(0, 0, 0)" stroke="rgb(204, 204, 204)" stroke-width="1px"></line><line x1="135" y1="0" x2="135" y2="5" style="visibility: inherit;" fill="rgb(0, 0, 0)" stroke="rgb(204, 204, 204)" stroke-width="1px"></line><line x1="157.5" y1="0" x2="157.5" y2="5" style="visibility: inherit;" fill="rgb(0, 0, 0)" stroke="rgb(204, 204, 204)" stroke-width="1px"></line><line x1="180" y1="0" x2="180" y2="5" style="visibility: inherit;" fill="rgb(0, 0, 0)" stroke="rgb(204, 204, 204)" stroke-width="1px"></line><line x1="202.5" y1="0" x2="202.5" y2="5" style="visibility: inherit;" fill="rgb(0, 0, 0)" stroke="rgb(204, 204, 204)" stroke-width="1px"></line><line x1="225" y1="0" x2="225" y2="5" style="visibility: inherit;" fill="rgb(0, 0, 0)" stroke="rgb(204, 204, 204)" stroke-width="1px"></line><line x1="247.5" y1="0" x2="247.5" y2="5" style="visibility: inherit;" fill="rgb(0, 0, 0)" stroke="rgb(204, 204, 204)" stroke-width="1px"></line><line x1="270" y1="0" x2="270" y2="5" style="visibility: inherit;" fill="rgb(0, 0, 0)" stroke="rgb(204, 204, 204)" stroke-width="1px"></line></g><g transform="translate(0, 8)"><text x="0" y="0" dx="0em" dy="0.95em" style="text-anchor: middle; visibility: hidden; font-family: Roboto, sans-serif; font-size: 12px; font-weight: 200;" fill="rgb(33, 33, 33)" stroke="none" stroke-width="1px">-2k</text><text x="22.5" y="0" dx="0em" dy="0.95em" style="text-anchor: middle; visibility: inherit; font-family: Roboto, sans-serif; font-size: 12px; font-weight: 200;" fill="rgb(33, 33, 33)" stroke="none" stroke-width="1px">0</text><text x="45" y="0" dx="0em" dy="0.95em" style="text-anchor: middle; visibility: hidden; font-family: Roboto, sans-serif; font-size: 12px; font-weight: 200;" fill="rgb(33, 33, 33)" stroke="none" stroke-width="1px">2k</text><text x="67.5" y="0" dx="0em" dy="0.95em" style="text-anchor: middle; visibility: inherit; font-family: Roboto, sans-serif; font-size: 12px; font-weight: 200;" fill="rgb(33, 33, 33)" stroke="none" stroke-width="1px">4k</text><text x="90" y="0" dx="0em" dy="0.95em" style="text-anchor: middle; visibility: hidden; font-family: Roboto, sans-serif; font-size: 12px; font-weight: 200;" fill="rgb(33, 33, 33)" stroke="none" stroke-width="1px">6k</text><text x="112.5" y="0" dx="0em" dy="0.95em" style="text-anchor: middle; visibility: inherit; font-family: Roboto, sans-serif; font-size: 12px; font-weight: 200;" fill="rgb(33, 33, 33)" stroke="none" stroke-width="1px">8k</text><text x="135" y="0" dx="0em" dy="0.95em" style="text-anchor: middle; visibility: hidden; font-family: Roboto, sans-serif; font-size: 12px; font-weight: 200;" fill="rgb(33, 33, 33)" stroke="none" stroke-width="1px">10k</text><text x="157.5" y="0" dx="0em" dy="0.95em" style="text-anchor: middle; visibility: inherit; font-family: Roboto, sans-serif; font-size: 12px; font-weight: 200;" fill="rgb(33, 33, 33)" stroke="none" stroke-width="1px">12k</text><text x="180" y="0" dx="0em" dy="0.95em" style="text-anchor: middle; visibility: hidden; font-family: Roboto, sans-serif; font-size: 12px; font-weight: 200;" fill="rgb(33, 33, 33)" stroke="none" stroke-width="1px">14k</text><text x="202.5" y="0" dx="0em" dy="0.95em" style="text-anchor: middle; visibility: inherit; font-family: Roboto, sans-serif; font-size: 12px; font-weight: 200;" fill="rgb(33, 33, 33)" stroke="none" stroke-width="1px">16k</text><text x="225" y="0" dx="0em" dy="0.95em" style="text-anchor: middle; visibility: hidden; font-family: Roboto, sans-serif; font-size: 12px; font-weight: 200;" fill="rgb(33, 33, 33)" stroke="none" stroke-width="1px">18k</text><text x="247.5" y="0" dx="0em" dy="0.95em" style="text-anchor: middle; visibility: inherit; font-family: Roboto, sans-serif; font-size: 12px; font-weight: 200;" fill="rgb(33, 33, 33)" stroke="none" stroke-width="1px">20k</text><text x="270" y="0" dx="0em" dy="0.95em" style="text-anchor: middle; visibility: hidden; font-family: Roboto, sans-serif; font-size: 12px; font-weight: 200;" fill="rgb(33, 33, 33)" stroke="none" stroke-width="1px">22k</text></g><line x1="0" y1="0" x2="270" y2="0" fill="rgb(0, 0, 0)" stroke="rgb(204, 204, 204)" stroke-width="1px"></line></g></g></g></g></svg>