<svg viewBox="0 0 330 200" xmlns="http://www.w3.org/2000/svg"><g><g><g><g><g><line x1="50" y1="177" x2="45" y2="177" style="visibility: inherit;" fill="rgb(0, 0, 0)" stroke="rgb(204, 204, 204)" stroke-width="1px"></line><line x1="50" y1="154.875" x2="45" y2="154.875" style="visibility: inherit;" fill="rgb(0, 0, 0)" stroke="rgb(204, 204, 204)" stroke-width="1px"></line><line x1="50" y1="132.75" x2="45" y2="132.75" style="visibility: inherit;" fill="rgb(0, 0, 0)" stroke="rgb(204, 204, 204)" stroke-width="1px"></line><line x1="50" y1="110.625" x2="45" y2="110.625" style="visibility: inherit;" fill="rgb(0, 0, 0)" stroke="rgb(204, 204, 204)" stroke-width="1px"></line><line x1="50" y1="88.5" x2="45" y2="88.5" style="visibility: inherit;" fill="rgb(0, 0, 0)" stroke="rgb(204, 204, 204)" stroke-width="1px"></line><line x1="50" y1="66.375" x2="45" y2="66.375" style="visibility: inherit;" fill="rgb(0, 0, 0)" stroke="rgb(204, 204, 204)" stroke-width="1px"></line><line x1="50" y1="44.25000000000002" x2="45" y2="44.25000000000002" style="visibility: inherit;" fill="rgb(0, 0, 0)" stroke="rgb(204, 204, 204)" stroke-width="1px"></line><line x1="50" y1="22.12500000000002" x2="45" y2="22.12500000000002" style="visibility: inherit;" fill="rgb(0, 0, 0)" stroke="rgb(204, 204, 204)" stroke-width="1px"></line><line x1="50" y1="0" x2="45" y2="0" style="visibility: inherit;" fill="rgb(0, 0, 0)" stroke="rgb(204, 204, 204)" stroke-width="1px"></line></g><g transform="translate(40, 0)"><text x="0" y="177" dx="0em" dy="0.3em" style="text-anchor: end; visibility: hidden; font-family: Roboto, sans-serif; font-size: 12px; font-weight: 200;" fill="rgb(33, 33, 33)" stroke="none" stroke-width="1px">0</text><text x="0" y="154.875" dx="0em" dy="0.3em" style="text-anchor: end; visibility: inherit; font-family: Roboto, sans-serif; font-size: 12px; font-weight: 200;" fill="rgb(33, 33, 33)" stroke="none" stroke-width="1px">0.05</text><text x="0" y="132.75" dx="0em" dy="0.3em" style="text-anchor: end; visibility: hidden; font-family: Roboto, sans-serif; font-size: 12px; font-weight: 200;" fill="rgb(33, 33, 33)" stroke="none" stroke-width="1px">0.1</text><text x="0" y="110.625" dx="0em" dy="0.3em" style="text-anchor: end; visibility: inherit; font-family: Roboto, sans-serif; font-size: 12px; font-weight: 200;" fill="rgb(33, 33, 33)" stroke="none" stroke-width="1px">0.15</text><text x="0" y="88.5" dx="0em" dy="0.3em" style="text-anchor: end; visibility: hidden; font-family: Roboto, sans-serif; font-size: 12px; font-weight: 200;" fill="rgb(33, 33, 33)" stroke="none" stroke-width="1px">0.2</text><text x="0" y="66.375" dx="0em" dy="0.3em" style="text-anchor: end; visibility: inherit; font-family: Roboto, sans-serif; font-size: 12px; font-weight: 200;" fill="rgb(33, 33, 33)" stroke="none" stroke-width="1px">0.25</text><text x="0" y="44.25000000000002" dx="0em" dy="0.3em" style="text-anchor: end; visibility: hidden; font-family: Roboto, sans-serif; font-size: 12px; font-weight: 200;" fill="rgb(33, 33, 33)" stroke="none" stroke-width="1px">0.3</text><text x="0" y="22.12500000000002" dx="0em" dy="0.3em" style="text-anchor: end; visibility: inherit; font-family: Roboto, sans-serif; font-size: 12px; font-weight: 200;" fill="rgb(33, 33, 33)" stroke="none" stroke-width="1px">0.35</text><text x="0" y="0" dx="0em" dy="0.3em" style="text-anchor: end; visibility: hidden; font-family: Roboto, sans-serif; font-size: 12px; font-weight: 200;" fill="rgb(33, 33, 33)" stroke="none" stroke-width="1px">0.4</text></g><line x1="50" y1="0" x2="50" y2="177" fill="rgb(0, 0, 0)" stroke="rgb(204, 204, 204)" stroke-width="1px"></line></g></g><g transform="translate(50, 0)" clip-path="url(#clip_0)"><clipPath id="clip_0"><rect width="280" height="177"></rect></clipPath><g><g><g><line x1="0" y1="0" x2="0" y2="177" fill="rgb(0, 0, 0)" stroke="rgb(66, 66, 66)" stroke-width="1px" opacity="0.25"></line><line x1="23.333333333333332" y1="0" x2="23.333333333333332" y2="177" fill="rgb(0, 0, 0)" stroke="rgb(66, 66, 66)" stroke-width="1px" opacity="0.25"></line><line x1="46.666666666666664" y1="0" x2="46.666666666666664" y2="177" fill="rgb(0, 0, 0)" stroke="rgb(66, 66, 66)" stroke-width="1px" opacity="0.25"></line><line x1="70" y1="0" x2="70" y2="177" fill="rgb(0, 0, 0)" stroke="rgb(66, 66, 66)" stroke-width="1px" opacity="0.25"></line><line x1="93.33333333333333" y1="0" x2="93.33333333333333" y2="177" fill="rgb(0, 0, 0)" stroke="rgb(66, 66, 66)" stroke-width="1px" opacity="0.25"></line><line x1="116.66666666666667" y1="0" x2="116.66666666666667" y2="177" fill="rgb(0, 0, 0)" stroke="rgb(66, 66, 66)" stroke-width="1px" opacity="0.25"></line><line x1="140" y1="0" x2="140" y2="177" fill="rgb(0, 0, 0)" stroke="rgb(66, 66, 66)" stroke-width="1px" opacity="0.25"></line><line x1="163.33333333333334" y1="0" x2="163.33333333333334" y2="177" fill="rgb(0, 0, 0)" stroke="rgb(66, 66, 66)" stroke-width="1px" opacity="0.25"></line><line x1="186.66666666666666" y1="0" x2="186.66666666666666" y2="177" fill="rgb(0, 0, 0)" stroke="rgb(66, 66, 66)" stroke-width="1px" opacity="0.25"></line><line x1="210" y1="0" x2="210" y2="177" fill="rgb(0, 0, 0)" stroke="rgb(66, 66, 66)" stroke-width="1px" opacity="0.25"></line><line x1="233.33333333333334" y1="0" x2="233.33333333333334" y2="177" fill="rgb(0, 0, 0)" stroke="rgb(66, 66, 66)" stroke-width="1px" opacity="0.25"></line><line x1="256.66666666666663" y1="0" x2="256.66666666666663" y2="177" fill="rgb(0, 0, 0)" stroke="rgb(66, 66, 66)" stroke-width="1px" opacity="0.25"></line><line x1="280" y1="0" x2="280" y2="177" fill="rgb(0, 0, 0)" stroke="rgb(66, 66, 66)" stroke-width="1px" opacity="0.25"></line></g><g><line x1="0" y1="177" x2="280" y2="177" fill="rgb(0, 0, 0)" stroke="rgb(66, 66, 66)" stroke-width="1px" opacity="0.25"></line><line x1="0" y1="154.875" x2="280" y2="154.875" fill="rgb(0, 0, 0)" stroke="rgb(66, 66, 66)" stroke-width="1px" opacity="0.25"></line><line x1="0" y1="132.75" x2="280" y2="132.75" fill="rgb(0, 0, 0)" stroke="rgb(66, 66, 66)" stroke-width="1px" opacity="0.25"></line><line x1="0" y1="110.625" x2="280" y2="110.625" fill="rgb(0, 0, 0)" stroke="rgb(66, 66, 66)" stroke-width="1px" opacity="0.25"></line><line x1="0" y1="88.5" x2="280" y2="88.5" fill="rgb(0, 0, 0)" stroke="rgb(66, 66, 66)" stroke-width="1px" opacity="0.25"></line><line x1="0" y1="66.375" x2="280" y2="66.375" fill="rgb(0, 0, 0)" stroke="rgb(66, 66, 66)" stroke-width="1px" opacity="0.25"></line><line x1="0" y1="44.25000000000002" x2="280" y2="44.25000000000002" fill="rgb(0, 0, 0)" stroke="rgb(66, 66, 66)" stroke-width="1px" opacity="0.25"></line><line x1="0" y1="22.12500000000002" x2="280" y2="22.12500000000002" fill="rgb(0, 0, 0)" stroke="rgb(66, 66, 66)" stroke-width="1px" opacity="0.25"></line><line x1="0" y1="0" x2="280" y2="0" fill="rgb(0, 0, 0)" stroke="rgb(66, 66, 66)" stroke-width="1px" opacity="0.25"></line></g></g></g><g><g><line x1="0" y1="177" x2="280" y2="177" fill="rgb(0, 0, 0)" stroke="rgb(153, 153, 153)" stroke-width="1.5px"></line></g></g><g><g><line x1="23.333333333333332" y1="0" x2="23.333333333333332" y2="177" fill="rgb(0, 0, 0)" stroke="rgb(153, 153, 153)" stroke-width="1.5px"></line></g></g><g><g><g><g><g><path stroke="rgb(255, 112, 67)" stroke-width="2px" d="M25.666666666666664,-69.13193705677986L26.833333333333336,23.702605847801497L28,59.99097642959918L29.166666666666668,46.813879130616286L30.333333333333336,71.50039259793296L31.5,63.151914689004556L32.666666666666664,88.8076737127971L33.833333333333336,22.027643514523692L35,64.66610709600891L36.16666666666667,37.30067385601323L37.333333333333336,22.8514638523592L38.5,16.536914560789782L39.666666666666664,0.5142905825329291L40.833333333333336,27.27048623592854L42,13.03741854230809L43.16666666666667,4.600110711204864L44.33333333333333,42.67408824931692L45.5,26.760371227940233L46.666666666666664,71.54826290238871L47.833333333333336,64.83641041793052L49,34.56319851151657L50.166666666666664,70.50890586015562L51.33333333333333,47.95733610659858L52.5,56.830017909237135L53.66666666666667,79.78739364518646L54.833333333333336,107.61728242983162L56,110.75665017898233L57.166666666666664,112.18964369605989L58.333333333333336,121.3505864250113L59.5,88.3467890298785L60.66666666666667,107.1072263614023L61.83333333333333,108.76859564940226L63,90.65383526852602L64.16666666666666,91.58247324138392L65.33333333333333,99.90141287270315L66.5,109.23307946331529L67.66666666666667,110.96244993856297L68.83333333333333,131.72968578376273L70,135.19845043609047L71.16666666666666,131.93168541073754L72.33333333333334,135.120575247928L73.5,139.24627120835964L74.66666666666667,136.27042509440713L75.83333333333333,130.75725568966857L77,141.71730815173075L78.16666666666667,142.1730990368351L79.33333333333333,144.7060559814679L80.5,150.0714431100619L81.66666666666667,151.6070969220245L82.83333333333333,119.32520637593373L84,121.3241000484388L85.16666666666666,127.66895238674562L86.33333333333334,131.27243826310345L87.5,110.02513712655465L88.66666666666666,125.73528815216991L89.83333333333334,128.19724850003283L91,134.43995674040616L92.16666666666667,132.58004106632873L93.33333333333333,133.64787371040592L94.5,127.54172732878433L95.66666666666667,110.12352464168463L96.83333333333333,116.78310366314177L98,128.8770928969475L99.16666666666667,142.32676549124676L100.33333333333333,131.58076613466713L101.5,139.89842295167313L102.66666666666666,140.56372622410933L103.83333333333334,151.73389656997014L105,150.70669123027497L106.16666666666666,159.44332612171783L107.33333333333334,103.02376994857201L108.5,109.5696613780797L109.66666666666667,128.09932888401394L110.83333333333333,140.5119441530278L112,137.25870763547246L113.16666666666667,140.8412624942483L114.33333333333333,152.0698599295897L115.5,157.67412998055414L116.66666666666667,107.41857073172926L117.83333333333333,113.76153466531635L119,126.89764313655495L120.16666666666666,134.312211264714L121.33333333333334,146.68629657338226L122.5,140.74611655092338L123.66666666666666,147.10188905054986L124.83333333333334,133.23409901651536L126,139.6751346414852L127.16666666666667,133.74532911333844L128.33333333333331,145.70942432375793L129.5,148.78582580353049L130.66666666666666,154.6390230314596L131.83333333333334,149.37537724713465L133,148.4835626732706L134.16666666666669,157.2410712265312L135.33333333333334,156.30884689008232L136.5,154.2296121413412L137.66666666666666,145.02244093685758L138.83333333333334,143.56045324605353L140,149.83732624427466L141.16666666666666,158.8567626775115L142.33333333333331,165.51252303873358L143.5,150.55630645218406L144.66666666666669,155.1516865883047L145.83333333333334,149.32483773641437L147,147.67527901657016L148.16666666666666,154.93887093083615L149.33333333333334,152.37811980048747L150.5,146.56696895748337L151.66666666666666,155.53127675423002L152.83333333333331,158.47641772579536L154,151.23443487764231L155.16666666666669,160.39807803507645L156.33333333333334,160.05208939359187L157.5,162.50339421768845L158.66666666666666,164.39052582280254L159.83333333333331,166.25222771091114L161,168.53304651102633L162.16666666666669,165.2571526525689L163.33333333333334,168.42563558568196L164.5,160.58223960965657L165.66666666666666,157.47060049277414L166.83333333333334,157.95043911309165L168,158.101014625407L169.16666666666666,163.50506765235318L170.33333333333331,162.11051368691835L171.5,165.74695854416228L172.66666666666669,163.7309536868676L173.83333333333334,160.00282641257908L175,165.01916476864258L176.16666666666666,166.63270235563004L177.33333333333331,162.51385051610876L178.5,163.0444380922783L179.66666666666669,158.46903561554365L180.83333333333334,163.3060185432554L182,164.7954010979158L183.16666666666666,162.9111316690339L184.33333333333334,167.23270679696236L185.5,166.88938974437914L186.66666666666666,164.34282402454497L187.83333333333331,165.40319603016187L189,169.03160340358812L190.16666666666669,167.7297212430537L191.33333333333334,163.07757255352735L192.5,163.2645509591979L193.66666666666666,165.1876057815571L194.83333333333331,167.2088570433196L196,163.74337143226484L197.16666666666669,167.22530300817797L198.33333333333334,168.7489196106533L199.5,168.21611200241685L200.66666666666666,169.07027416564338L201.83333333333334,164.12666547976323L203,158.695250223174L204.16666666666666,158.59388488164205L205.33333333333331,161.54125777449107L206.5,166.1761385115066L207.66666666666669,166.74020646472744L208.83333333333334,164.7469687139092L210,168.85768702757198L211.16666666666666,170.2001692656835L212.33333333333331,167.55968114423217L213.5,156.9806705188004L214.66666666666669,163.35929756663725L215.83333333333334,166.04732460634403L217,167.58966371517772L218.16666666666666,168.19273301386173L219.33333333333334,169.57788734148198L220.5,171.77887286447512L221.66666666666666,164.7573169727804L222.83333333333331,167.3318151761029L224,164.87186169573272L225.16666666666669,159.33685563250543L226.33333333333334,161.1656464930276L227.5,164.94537705288977L228.66666666666666,159.2295759855607L229.83333333333331,164.46646228645884L231,160.2108475049713L232.16666666666669,162.54226284282677L233.33333333333334,166.98627257474377L234.5,164.48396986873814L235.66666666666666,159.69837756694477L236.83333333333334,163.42110844919753L238,165.71284463164014L239.16666666666666,167.47873548344108L240.33333333333331,170.52628063990002L241.5,171.87254668840512L242.66666666666669,172.85919686103236L243.83333333333334,167.8835078206323L245,169.34828016749248L246.16666666666666,165.14733512157932L247.33333333333331,155.48050488206584L248.5,160.7151984239986L249.66666666666669,161.38200271072213L250.83333333333334,162.53772303464842L252,167.4981471190398L253.16666666666666,170.72121472166003L254.33333333333334,171.47711267381771L255.5,173.19703175796488L256.66666666666663,165.74792031749138" style="fill: none;" fill="none"></path></g></g></g></g><g opacity="0.2"><g><g><g><path stroke="rgb(255, 112, 67)" stroke-width="2px" d="M25.666666666666664,-25.125605642795563L26.833333333333336,112.82376703619957L28,102.66610023379326L29.166666666666668,29.60986089706421L30.333333333333336,105.65072786808014L31.5,51.21345770359039L32.666666666666664,126.21401666477323L33.833333333333336,-76.45992967486382L35,127.97925625741482L36.16666666666667,-3.4992735385894775L37.333333333333336,1.2562808096408844L38.5,7.085708722472191L39.666666666666664,-23.48825539648533L40.833333333333336,67.37332881242037L42,-8.30214473605156L43.16666666666667,-8.052280649542809L44.33333333333333,99.77538757771254L45.5,2.892219990491867L46.666666666666664,138.72600662335753L47.833333333333336,54.76899978518486L49,-10.845623195171356L50.166666666666664,124.4267571978271L51.33333333333333,14.130248621106148L52.5,70.13897754997015L53.66666666666667,114.22335934638977L54.833333333333336,149.36204439774156L56,115.46569698303938L57.166666666666664,114.33913265168667L58.333333333333336,135.09199545532465L59.5,38.84110388159752L60.66666666666667,135.24787862598896L61.83333333333333,111.26064938306808L63,63.481695994734764L64.16666666666666,92.97543016076088L65.33333333333333,112.3798221051693L66.5,123.23057920485735L67.66666666666667,113.55650563538074L68.83333333333333,162.8805394358933L70,140.40159740298986L71.16666666666666,127.0315378792584L72.33333333333334,139.90390999987721L73.5,145.434815146029L74.66666666666667,131.80665592476726L75.83333333333333,122.48750158399343L77,158.1573868431151L78.16666666666667,142.85678536444902L79.33333333333333,148.5054913982749L80.5,158.11952380277216L81.66666666666667,153.9105776399374L82.83333333333333,70.90237055718899L84,124.32244055718184L85.16666666666666,137.18623089417815L86.33333333333334,136.67766707763076L87.5,78.15418542176485L88.66666666666666,149.30051469057798L89.83333333333334,131.8901890218258L91,143.80401910096407L92.16666666666667,129.79016755521297L93.33333333333333,135.24962267652154L94.5,118.38250775635242L95.66666666666667,83.99622061103582L96.83333333333333,126.77247219532728L98,147.01807674765587L99.16666666666667,162.50127438269556L100.33333333333333,115.46176709979773L101.5,152.37490817718208L102.66666666666666,141.56168113276362L103.83333333333334,168.48915208876133L105,149.1658832207322L106.16666666666666,172.54827845888212L107.33333333333334,18.394435688853264L108.5,119.38849852234125L109.66666666666667,155.89383014291525L110.83333333333333,159.1308670565486L112,132.37885285913944L113.16666666666667,146.21509478241205L114.33333333333333,168.91275608260185L115.5,166.08053505700082L116.66666666666667,32.0352318584919L117.83333333333333,123.27598056569695L119,146.60180584341288L120.16666666666666,145.43406345695257L121.33333333333334,165.24742453638464L122.5,131.83584651723504L123.66666666666666,156.63554779998958L124.83333333333334,112.43241396546364L126,149.33668807893991L127.16666666666667,124.85062082111835L128.33333333333331,163.65556713938713L129.5,153.4004280231893L130.66666666666666,163.4188188733533L131.83333333333334,141.47990857064724L133,147.1458408124745L134.16666666666669,170.37733405642211L135.33333333333334,154.910510385409L136.5,151.11076001822948L137.66666666666666,131.2116841301322L138.83333333333334,141.36747170984745L140,159.25263574160635L141.16666666666666,172.38591732736677L142.33333333333331,175.49616358056664L143.5,128.1219815723598L144.66666666666669,162.0447567924857L145.83333333333334,140.58456445857882L147,145.20094093680382L148.16666666666666,165.83425880223513L149.33333333333334,148.5369931049645L150.5,137.8502426929772L151.66666666666666,168.97773844935L152.83333333333331,162.89412918314338L154,140.37146060541272L155.16666666666669,174.14354277122766L156.33333333333334,159.533106431365L157.5,166.18035145383328L158.66666666666666,167.2212232304737L159.83333333333331,169.044780543074L161,171.9542747111991L162.16666666666669,160.3433118648827L163.33333333333334,173.17835998535156L164.5,148.81714564561844L165.66666666666666,152.80314181745052L166.83333333333334,158.6701970435679L168,158.32687789388L169.16666666666666,171.61114719277248L170.33333333333331,160.01868273876607L171.5,171.2016258300282L172.66666666666669,160.70694640092552L173.83333333333334,154.41063550114632L175,172.54367230273783L176.16666666666666,169.05300873611122L177.33333333333331,156.33557275682688L178.5,163.8403194565326L179.66666666666669,151.60593190044165L180.83333333333334,170.56149293482304L182,167.02947492990643L183.16666666666666,160.08472752571106L184.33333333333334,173.71506948885508L185.5,166.37441416550428L186.66666666666666,160.5229754447937L187.83333333333331,166.9937540385872L189,174.47421446372755L190.16666666666669,165.77689800225198L191.33333333333334,156.09934951923788L192.5,163.54501856770366L193.66666666666666,168.0721880150959L194.83333333333331,170.24073393596336L196,158.5451430156827L197.16666666666669,172.44820037204772L198.33333333333334,171.03434451436624L199.5,167.41690059006214L200.66666666666666,170.3515174104832L201.83333333333334,156.711252450943L203,150.54812733829021L204.16666666666666,158.44183686934412L205.33333333333331,165.96231711376458L206.5,173.12845961702988L207.66666666666669,167.58630839455873L208.83333333333334,161.7571120876819L210,175.02376449806616L211.16666666666666,172.21389262285084L212.33333333333331,163.59894896205515L213.5,141.1121545806527L214.66666666666669,172.92723813839257L215.83333333333334,170.07936516590416L217,169.90317237842828L218.16666666666666,169.09733696188778L219.33333333333334,171.6556188329123L220.5,175.08035114896484L221.66666666666666,154.2249831352383L222.83333333333331,171.1935624810867L224,161.1819314751774L225.16666666666669,151.03434653766453L226.33333333333334,163.9088327838108L227.5,170.614972892683L228.66666666666666,150.65587438456714L229.83333333333331,172.32179173780605L231,153.82742533273995L232.16666666666669,166.03938584960997L233.33333333333334,173.65228717261925L234.5,160.7305158097297L235.66666666666666,152.5199891142547L236.83333333333334,169.0052047725767L238,169.15044890530407L239.16666666666666,170.12757176114246L240.33333333333331,175.09759837458842L241.5,173.8919457611628L242.66666666666669,174.33917211997323L243.83333333333334,160.41997426003218L245,171.54543868778273L246.16666666666666,158.84591755270958L247.33333333333331,140.98025952279568L248.5,168.5672387368977L249.66666666666669,162.3822091408074L250.83333333333334,164.2713035205379L252,174.93878324562684L253.16666666666666,175.55581612559035L254.33333333333334,172.6109596020542L255.5,175.7769103841856L256.66666666666663,154.5742531567812" style="fill: none;" fill="none"></path></g></g></g></g></g></g><g transform="translate(50, 177)" clip-path="url(#clip_1)"><clipPath id="clip_1"><rect width="280" height="23"></rect></clipPath><g><g><line x1="0" y1="0" x2="0" y2="5" style="visibility: inherit;" fill="rgb(0, 0, 0)" stroke="rgb(204, 204, 204)" stroke-width="1px"></line><line x1="23.333333333333332" y1="0" x2="23.333333333333332" y2="5" style="visibility: inherit;" fill="rgb(0, 0, 0)" stroke="rgb(204, 204, 204)" stroke-width="1px"></line><line x1="46.666666666666664" y1="0" x2="46.666666666666664" y2="5" style="visibility: inherit;" fill="rgb(0, 0, 0)" stroke="rgb(204, 204, 204)" stroke-width="1px"></line><line x1="70" y1="0" x2="70" y2="5" style="visibility: inherit;" fill="rgb(0, 0, 0)" stroke="rgb(204, 204, 204)" stroke-width="1px"></line><line x1="93.33333333333333" y1="0" x2="93.33333333333333" y2="5" style="visibility: inherit;" fill="rgb(0, 0, 0)" stroke="rgb(204, 204, 204)" stroke-width="1px"></line><line x1="116.66666666666667" y1="0" x2="116.66666666666667" y2="5" style="visibility: inherit;" fill="rgb(0, 0, 0)" stroke="rgb(204, 204, 204)" stroke-width="1px"></line><line x1="140" y1="0" x2="140" y2="5" style="visibility: inherit;" fill="rgb(0, 0, 0)" stroke="rgb(204, 204, 204)" stroke-width="1px"></line><line x1="163.33333333333334" y1="0" x2="163.33333333333334" y2="5" style="visibility: inherit;" fill="rgb(0, 0, 0)" stroke="rgb(204, 204, 204)" stroke-width="1px"></line><line x1="186.66666666666666" y1="0" x2="186.66666666666666" y2="5" style="visibility: inherit;" fill="rgb(0, 0, 0)" stroke="rgb(204, 204, 204)" stroke-width="1px"></line><line x1="210" y1="0" x2="210" y2="5" style="visibility: inherit;" fill="rgb(0, 0, 0)" stroke="rgb(204, 204, 204)" stroke-width="1px"></line><line x1="233.33333333333334" y1="0" x2="233.33333333333334" y2="5" style="visibility: inherit;" fill="rgb(0, 0, 0)" stroke="rgb(204, 204, 204)" stroke-width="1px"></line><line x1="256.66666666666663" y1="0" x2="256.66666666666663" y2="5" style="visibility: inherit;" fill="rgb(0, 0, 0)" stroke="rgb(204, 204, 204)" stroke-width="1px"></line><line x1="280" y1="0" x2="280" y2="5" style="visibility: inherit;" fill="rgb(0, 0, 0)" stroke="rgb(204, 204, 204)" stroke-width="1px"></line></g><g transform="translate(0, 8)"><text x="0" y="0" dx="0em" dy="0.95em" style="text-anchor: middle; visibility: hidden; font-family: Roboto, sans-serif; font-size: 12px; font-weight: 200;" fill="rgb(33, 33, 33)" stroke="none" stroke-width="1px">-2k</text><text x="23.333333333333332" y="0" dx="0em" dy="0.95em" style="text-anchor: middle; visibility: inherit; font-family: Roboto, sans-serif; font-size: 12px; font-weight: 200;" fill="rgb(33, 33, 33)" stroke="none" stroke-width="1px">0</text><text x="46.666666666666664" y="0" dx="0em" dy="0.95em" style="text-anchor: middle; visibility: hidden; font-family: Roboto, sans-serif; font-size: 12px; font-weight: 200;" fill="rgb(33, 33, 33)" stroke="none" stroke-width="1px">2k</text><text x="70" y="0" dx="0em" dy="0.95em" style="text-anchor: middle; visibility: inherit; font-family: Roboto, sans-serif; font-size: 12px; font-weight: 200;" fill="rgb(33, 33, 33)" stroke="none" stroke-width="1px">4k</text><text x="93.33333333333333" y="0" dx="0em" dy="0.95em" style="text-anchor: middle; visibility: hidden; font-family: Roboto, sans-serif; font-size: 12px; font-weight: 200;" fill="rgb(33, 33, 33)" stroke="none" stroke-width="1px">6k</text><text x="116.66666666666667" y="0" dx="0em" dy="0.95em" style="text-anchor: middle; visibility: inherit; font-family: Roboto, sans-serif; font-size: 12px; font-weight: 200;" fill="rgb(33, 33, 33)" stroke="none" stroke-width="1px">8k</text><text x="140" y="0" dx="0em" dy="0.95em" style="text-anchor: middle; visibility: hidden; font-family: Roboto, sans-serif; font-size: 12px; font-weight: 200;" fill="rgb(33, 33, 33)" stroke="none" stroke-width="1px">10k</text><text x="163.33333333333334" y="0" dx="0em" dy="0.95em" style="text-anchor: middle; visibility: inherit; font-family: Roboto, sans-serif; font-size: 12px; font-weight: 200;" fill="rgb(33, 33, 33)" stroke="none" stroke-width="1px">12k</text><text x="186.66666666666666" y="0" dx="0em" dy="0.95em" style="text-anchor: middle; visibility: hidden; font-family: Roboto, sans-serif; font-size: 12px; font-weight: 200;" fill="rgb(33, 33, 33)" stroke="none" stroke-width="1px">14k</text><text x="210" y="0" dx="0em" dy="0.95em" style="text-anchor: middle; visibility: inherit; font-family: Roboto, sans-serif; font-size: 12px; font-weight: 200;" fill="rgb(33, 33, 33)" stroke="none" stroke-width="1px">16k</text><text x="233.33333333333334" y="0" dx="0em" dy="0.95em" style="text-anchor: middle; visibility: hidden; font-family: Roboto, sans-serif; font-size: 12px; font-weight: 200;" fill="rgb(33, 33, 33)" stroke="none" stroke-width="1px">18k</text><text x="256.66666666666663" y="0" dx="0em" dy="0.95em" style="text-anchor: middle; visibility: inherit; font-family: Roboto, sans-serif; font-size: 12px; font-weight: 200;" fill="rgb(33, 33, 33)" stroke="none" stroke-width="1px">20k</text><text x="280" y="0" dx="0em" dy="0.95em" style="text-anchor: middle; visibility: hidden; font-family: Roboto, sans-serif; font-size: 12px; font-weight: 200;" fill="rgb(33, 33, 33)" stroke="none" stroke-width="1px">22k</text></g><line x1="0" y1="0" x2="280" y2="0" fill="rgb(0, 0, 0)" stroke="rgb(204, 204, 204)" stroke-width="1px"></line></g></g></g></g></svg>