<svg viewBox="0 0 330 200" xmlns="http://www.w3.org/2000/svg"><g><g><g><g><g><line x1="60" y1="177" x2="55" y2="177" style="visibility: inherit;" fill="rgb(0, 0, 0)" stroke="rgb(204, 204, 204)" stroke-width="1px"></line><line x1="60" y1="162.25" x2="55" y2="162.25" style="visibility: inherit;" fill="rgb(0, 0, 0)" stroke="rgb(204, 204, 204)" stroke-width="1px"></line><line x1="60" y1="147.5" x2="55" y2="147.5" style="visibility: inherit;" fill="rgb(0, 0, 0)" stroke="rgb(204, 204, 204)" stroke-width="1px"></line><line x1="60" y1="132.75" x2="55" y2="132.75" style="visibility: inherit;" fill="rgb(0, 0, 0)" stroke="rgb(204, 204, 204)" stroke-width="1px"></line><line x1="60" y1="118" x2="55" y2="118" style="visibility: inherit;" fill="rgb(0, 0, 0)" stroke="rgb(204, 204, 204)" stroke-width="1px"></line><line x1="60" y1="103.24999999999999" x2="55" y2="103.24999999999999" style="visibility: inherit;" fill="rgb(0, 0, 0)" stroke="rgb(204, 204, 204)" stroke-width="1px"></line><line x1="60" y1="88.49999999999999" x2="55" y2="88.49999999999999" style="visibility: inherit;" fill="rgb(0, 0, 0)" stroke="rgb(204, 204, 204)" stroke-width="1px"></line><line x1="60" y1="73.75000000000001" x2="55" y2="73.75000000000001" style="visibility: inherit;" fill="rgb(0, 0, 0)" stroke="rgb(204, 204, 204)" stroke-width="1px"></line><line x1="60" y1="58.999999999999986" x2="55" y2="58.999999999999986" style="visibility: inherit;" fill="rgb(0, 0, 0)" stroke="rgb(204, 204, 204)" stroke-width="1px"></line><line x1="60" y1="44.25" x2="55" y2="44.25" style="visibility: inherit;" fill="rgb(0, 0, 0)" stroke="rgb(204, 204, 204)" stroke-width="1px"></line><line x1="60" y1="29.500000000000014" x2="55" y2="29.500000000000014" style="visibility: inherit;" fill="rgb(0, 0, 0)" stroke="rgb(204, 204, 204)" stroke-width="1px"></line><line x1="60" y1="14.749999999999988" x2="55" y2="14.749999999999988" style="visibility: inherit;" fill="rgb(0, 0, 0)" stroke="rgb(204, 204, 204)" stroke-width="1px"></line><line x1="60" y1="0" x2="55" y2="0" style="visibility: inherit;" fill="rgb(0, 0, 0)" stroke="rgb(204, 204, 204)" stroke-width="1px"></line></g><g transform="translate(50, 0)"><text x="0" y="177" dx="0em" dy="0.3em" style="text-anchor: end; visibility: hidden; font-family: Roboto, sans-serif; font-size: 12px; font-weight: 200;" fill="rgb(33, 33, 33)" stroke="none" stroke-width="1px">-0.01</text><text x="0" y="162.25" dx="0em" dy="0.3em" style="text-anchor: end; visibility: inherit; font-family: Roboto, sans-serif; font-size: 12px; font-weight: 200;" fill="rgb(33, 33, 33)" stroke="none" stroke-width="1px">0</text><text x="0" y="147.5" dx="0em" dy="0.3em" style="text-anchor: end; visibility: hidden; font-family: Roboto, sans-serif; font-size: 12px; font-weight: 200;" fill="rgb(33, 33, 33)" stroke="none" stroke-width="1px">0.01</text><text x="0" y="132.75" dx="0em" dy="0.3em" style="text-anchor: end; visibility: inherit; font-family: Roboto, sans-serif; font-size: 12px; font-weight: 200;" fill="rgb(33, 33, 33)" stroke="none" stroke-width="1px">0.02</text><text x="0" y="118" dx="0em" dy="0.3em" style="text-anchor: end; visibility: hidden; font-family: Roboto, sans-serif; font-size: 12px; font-weight: 200;" fill="rgb(33, 33, 33)" stroke="none" stroke-width="1px">0.03</text><text x="0" y="103.24999999999999" dx="0em" dy="0.3em" style="text-anchor: end; visibility: inherit; font-family: Roboto, sans-serif; font-size: 12px; font-weight: 200;" fill="rgb(33, 33, 33)" stroke="none" stroke-width="1px">0.04</text><text x="0" y="88.49999999999999" dx="0em" dy="0.3em" style="text-anchor: end; visibility: hidden; font-family: Roboto, sans-serif; font-size: 12px; font-weight: 200;" fill="rgb(33, 33, 33)" stroke="none" stroke-width="1px">0.05</text><text x="0" y="73.75000000000001" dx="0em" dy="0.3em" style="text-anchor: end; visibility: inherit; font-family: Roboto, sans-serif; font-size: 12px; font-weight: 200;" fill="rgb(33, 33, 33)" stroke="none" stroke-width="1px">0.06</text><text x="0" y="58.999999999999986" dx="0em" dy="0.3em" style="text-anchor: end; visibility: hidden; font-family: Roboto, sans-serif; font-size: 12px; font-weight: 200;" fill="rgb(33, 33, 33)" stroke="none" stroke-width="1px">0.07</text><text x="0" y="44.25" dx="0em" dy="0.3em" style="text-anchor: end; visibility: inherit; font-family: Roboto, sans-serif; font-size: 12px; font-weight: 200;" fill="rgb(33, 33, 33)" stroke="none" stroke-width="1px">0.08</text><text x="0" y="29.500000000000014" dx="0em" dy="0.3em" style="text-anchor: end; visibility: hidden; font-family: Roboto, sans-serif; font-size: 12px; font-weight: 200;" fill="rgb(33, 33, 33)" stroke="none" stroke-width="1px">0.09</text><text x="0" y="14.749999999999988" dx="0em" dy="0.3em" style="text-anchor: end; visibility: inherit; font-family: Roboto, sans-serif; font-size: 12px; font-weight: 200;" fill="rgb(33, 33, 33)" stroke="none" stroke-width="1px">0.1</text><text x="0" y="0" dx="0em" dy="0.3em" style="text-anchor: end; visibility: hidden; font-family: Roboto, sans-serif; font-size: 12px; font-weight: 200;" fill="rgb(33, 33, 33)" stroke="none" stroke-width="1px">0.11</text></g><line x1="60" y1="0" x2="60" y2="177" fill="rgb(0, 0, 0)" stroke="rgb(204, 204, 204)" stroke-width="1px"></line></g></g><g transform="translate(60, 0)" clip-path="url(#clip_0)"><clipPath id="clip_0"><rect width="270" height="177"></rect></clipPath><g><g><g><line x1="0" y1="0" x2="0" y2="177" fill="rgb(0, 0, 0)" stroke="rgb(66, 66, 66)" stroke-width="1px" opacity="0.25"></line><line x1="22.5" y1="0" x2="22.5" y2="177" fill="rgb(0, 0, 0)" stroke="rgb(66, 66, 66)" stroke-width="1px" opacity="0.25"></line><line x1="45" y1="0" x2="45" y2="177" fill="rgb(0, 0, 0)" stroke="rgb(66, 66, 66)" stroke-width="1px" opacity="0.25"></line><line x1="67.5" y1="0" x2="67.5" y2="177" fill="rgb(0, 0, 0)" stroke="rgb(66, 66, 66)" stroke-width="1px" opacity="0.25"></line><line x1="90" y1="0" x2="90" y2="177" fill="rgb(0, 0, 0)" stroke="rgb(66, 66, 66)" stroke-width="1px" opacity="0.25"></line><line x1="112.5" y1="0" x2="112.5" y2="177" fill="rgb(0, 0, 0)" stroke="rgb(66, 66, 66)" stroke-width="1px" opacity="0.25"></line><line x1="135" y1="0" x2="135" y2="177" fill="rgb(0, 0, 0)" stroke="rgb(66, 66, 66)" stroke-width="1px" opacity="0.25"></line><line x1="157.5" y1="0" x2="157.5" y2="177" fill="rgb(0, 0, 0)" stroke="rgb(66, 66, 66)" stroke-width="1px" opacity="0.25"></line><line x1="180" y1="0" x2="180" y2="177" fill="rgb(0, 0, 0)" stroke="rgb(66, 66, 66)" stroke-width="1px" opacity="0.25"></line><line x1="202.5" y1="0" x2="202.5" y2="177" fill="rgb(0, 0, 0)" stroke="rgb(66, 66, 66)" stroke-width="1px" opacity="0.25"></line><line x1="225" y1="0" x2="225" y2="177" fill="rgb(0, 0, 0)" stroke="rgb(66, 66, 66)" stroke-width="1px" opacity="0.25"></line><line x1="247.5" y1="0" x2="247.5" y2="177" fill="rgb(0, 0, 0)" stroke="rgb(66, 66, 66)" stroke-width="1px" opacity="0.25"></line><line x1="270" y1="0" x2="270" y2="177" fill="rgb(0, 0, 0)" stroke="rgb(66, 66, 66)" stroke-width="1px" opacity="0.25"></line></g><g><line x1="0" y1="177" x2="270" y2="177" fill="rgb(0, 0, 0)" stroke="rgb(66, 66, 66)" stroke-width="1px" opacity="0.25"></line><line x1="0" y1="162.25" x2="270" y2="162.25" fill="rgb(0, 0, 0)" stroke="rgb(66, 66, 66)" stroke-width="1px" opacity="0.25"></line><line x1="0" y1="147.5" x2="270" y2="147.5" fill="rgb(0, 0, 0)" stroke="rgb(66, 66, 66)" stroke-width="1px" opacity="0.25"></line><line x1="0" y1="132.75" x2="270" y2="132.75" fill="rgb(0, 0, 0)" stroke="rgb(66, 66, 66)" stroke-width="1px" opacity="0.25"></line><line x1="0" y1="118" x2="270" y2="118" fill="rgb(0, 0, 0)" stroke="rgb(66, 66, 66)" stroke-width="1px" opacity="0.25"></line><line x1="0" y1="103.24999999999999" x2="270" y2="103.24999999999999" fill="rgb(0, 0, 0)" stroke="rgb(66, 66, 66)" stroke-width="1px" opacity="0.25"></line><line x1="0" y1="88.49999999999999" x2="270" y2="88.49999999999999" fill="rgb(0, 0, 0)" stroke="rgb(66, 66, 66)" stroke-width="1px" opacity="0.25"></line><line x1="0" y1="73.75000000000001" x2="270" y2="73.75000000000001" fill="rgb(0, 0, 0)" stroke="rgb(66, 66, 66)" stroke-width="1px" opacity="0.25"></line><line x1="0" y1="58.999999999999986" x2="270" y2="58.999999999999986" fill="rgb(0, 0, 0)" stroke="rgb(66, 66, 66)" stroke-width="1px" opacity="0.25"></line><line x1="0" y1="44.25" x2="270" y2="44.25" fill="rgb(0, 0, 0)" stroke="rgb(66, 66, 66)" stroke-width="1px" opacity="0.25"></line><line x1="0" y1="29.500000000000014" x2="270" y2="29.500000000000014" fill="rgb(0, 0, 0)" stroke="rgb(66, 66, 66)" stroke-width="1px" opacity="0.25"></line><line x1="0" y1="14.749999999999988" x2="270" y2="14.749999999999988" fill="rgb(0, 0, 0)" stroke="rgb(66, 66, 66)" stroke-width="1px" opacity="0.25"></line><line x1="0" y1="0" x2="270" y2="0" fill="rgb(0, 0, 0)" stroke="rgb(66, 66, 66)" stroke-width="1px" opacity="0.25"></line></g></g></g><g><g><line x1="0" y1="162.25" x2="270" y2="162.25" fill="rgb(0, 0, 0)" stroke="rgb(153, 153, 153)" stroke-width="1.5px"></line></g></g><g><g><line x1="22.5" y1="0" x2="22.5" y2="177" fill="rgb(0, 0, 0)" stroke="rgb(153, 153, 153)" stroke-width="1.5px"></line></g></g><g><g><g><g><g><path stroke="rgb(255, 112, 67)" stroke-width="2px" d="M23.625,8.429820224642746L24.75,38.94793653767554L25.875,82.03670222190567L27,102.21745217505924L28.125,30.79583005644485L29.25,66.87098441370682L30.375,95.51171773758276L31.5,97.08937130763402L32.625,-111.37798547765696L40.5,-31.498913613135635L41.625,37.13063403881425L42.75,68.22790520337828L43.875,-68.58663441742313L45,22.875033300550793L46.125,50.46815472770929L47.25,85.54894260424454L48.375,112.48735110753819L49.5,37.09515419825595L50.625,8.141353492793177L51.75,46.81607762725808L52.875,86.78543596799777L54,104.19087985728491L55.125,110.64182158470483L56.25,130.19803783037574L57.375,99.86504334036682L58.5,113.25138717481035L59.625,90.35931153708579L60.75,55.1757701545427L61.875,48.9081426651364L63,36.528813493184806L64.125,83.0842800943169L65.25,106.01513773346767L66.375,126.90676400857416L67.5,140.52855103006965L68.625,147.0757959294141L69.75,151.11590963526456L70.875,146.67492597786338L72,129.69506515857117L73.125,139.24635271072748L74.25,147.3983687815482L75.375,144.24088879260017L76.5,146.38559655675692L77.625,152.04034714511593L78.75,153.3495010917311L79.875,76.60367953054194L81,81.86226294204387L82.125,110.13464740901037L83.25,126.03914489443088L84.375,132.39566856828722L85.5,142.78261690636307L86.625,149.1802863591541L87.75,136.32034900195004L88.875,145.27623090101687L90,149.44450531946686L91.125,120.34010821459842L92.25,109.94918055312705L93.375,129.94218446524087L94.5,139.15963738686534L95.625,147.57779752492988L96.75,145.80846579316307L97.875,151.26353368566885L99,154.71756396577817L100.125,157.53182462597803L101.25,158.63827190922336L102.375,159.93238321548372L103.5,2.6199469900468837L104.625,29.527905111690757L105.75,81.99819018711847L106.875,112.95216379717856L108,120.66028491202515L109.125,134.63558504458382L110.25,144.61610766872496L111.375,151.3404668210058L112.5,26.02941285002878L113.625,59.76948625998887L114.75,96.80085463952834L115.875,105.39486223165282L117,123.94351569964194L118.125,116.76430131288589L119.25,131.64021611630005L120.375,105.38044362914015L121.5,116.68258893431097L122.625,105.90933823997301L123.75,128.0777172160828L124.875,131.37381890417242L126,143.1924351239177L127.125,149.02878323232218L128.25,153.91005096787077L129.375,157.08949026593913L130.5,155.9096527455634L131.625,145.81900535946406L132.75,151.84390889024084L133.875,151.94991100547668L135,154.96179673112456L136.125,157.58396023515328L137.25,159.34882835753115L138.375,130.58042718593688L139.5,141.17222254564635L140.625,148.50176120938522L141.75,147.30723582814136L142.875,151.98231642321122L144,142.2765030421339L145.125,142.29869325727358L146.25,150.01352759020295L147.375,151.82101193929773L148.5,152.28218608660288L149.625,155.95918811941692L150.75,153.31922252675622L151.875,156.6327750946485L153,158.75604833204838L154.125,159.57068079556475L155.25,160.29230214675042L156.375,151.04056729537112L157.5,155.45624652665427L158.625,152.90673618785482L159.75,155.90044407741206L160.875,156.41124676610738L162,158.42786241092492L163.125,159.90176841871957L164.25,160.27391734392842L165.375,159.84251566622123L166.5,159.39644130144097L167.625,140.59728334738955L168.75,149.09304219833345L169.875,151.20450568669338L171,143.17819623037158L172.125,149.43059646902373L173.25,154.1250627031871L174.375,156.36880062005548L175.5,152.60019819651023L176.625,155.8008726245439L177.75,158.19823047391992L178.875,157.88065525068296L180,159.32958630240532L181.125,159.85530543672485L182.25,160.2679408786573L183.375,157.01361092111486L184.5,158.72586263290933L185.625,154.88869265956814L186.75,156.8548020106331L187.875,158.82087061481656L189,158.98642653090198L190.125,159.5671191265058L191.25,159.4904422852134L192.375,152.59598204263958L193.5,155.01912447970457L194.625,148.8787468539855L195.75,140.69002678496722L196.875,148.8234661081291L198,152.09322642243174L199.125,156.02940735523717L200.25,156.8452974905733L201.375,154.84877023437105L202.5,157.74879484507028L203.625,159.31303405987427L204.75,159.59153540749486L205.875,131.6484200690337L207,143.75700876124714L208.125,148.37285127272017L209.25,152.2365916121665L210.375,155.99796786471452L211.5,156.7178243406221L212.625,158.8875267393676L213.75,157.94543444252238L214.875,159.58041270823156L216,155.12836395502612L217.125,157.3821243985308L218.25,155.0694452250414L219.375,155.46818202842252L220.5,141.39621524577723L221.625,149.70148193127216L222.75,149.55573459736289L223.875,151.59376371310967L225,155.42920411578717L226.125,156.3748220407331L227.25,158.18271391910065L228.375,159.7529694653638L229.5,160.53126234874932L230.625,160.92448394558969L231.75,161.40406125934464L232.875,161.63328846583133L234,161.8164793579624L235.125,160.2840451961813L236.25,159.92081208697303L237.375,159.50648740594892L238.5,150.72858709269946L239.625,155.06694269870852L240.75,155.2904099736818L241.875,157.04591911799213L243,159.02880163243327L244.125,160.24185543016608L245.25,160.98888065282466L246.375,161.4725776709715L247.5,152.39173667714593" style="fill: none;" fill="none"></path></g></g></g></g><g opacity="0.2"><g><g><g><path stroke="rgb(255, 112, 67)" stroke-width="2px" d="M23.625,8.429820224642746L24.75,57.25880632549524L25.875,123.40191727876663L27,125.9500141199678L28.125,-62.45223978161813L29.25,116.77590994536877L30.375,136.46842464245856L31.5,99.38960535824299L32.625,-418.8268440365792L33.75,153.4787191604264L34.875,-117.76106046140195L38.25,-158.00396600365642L39.375,80.34512851759791L40.5,-33.57430161535743L41.625,140.0459137922153L42.75,114.86591635644436L43.875,-273.7876015305519L45,160.05917491880246L46.125,91.85632359609006L47.25,138.16897007077932L48.375,152.89443201059476L49.5,-75.99224807322028L50.625,-35.28914177417758L51.75,104.8279988989234L52.875,146.73937120847404L54,130.29901896975935L55.125,120.31822823360562L56.25,159.53235139045864L57.375,54.36556166410446L58.5,133.33090026304126L59.625,56.021200813353055L60.75,2.400460600852973L61.875,39.50670170038939L63,17.959820054471486L64.125,152.91747927572578L65.25,140.41142397932708L66.375,158.24420330487192L67.5,160.96123151679058L68.625,156.89666326530278L69.75,157.17608018917963L70.875,140.0134504949674L72,104.22527393698692L73.125,153.5732840364799L74.25,159.62639288650826L75.375,139.50466880947351L76.5,149.60265820287168L77.625,160.522473027464L78.75,155.3132320116274L79.875,-38.51505281031136L81,89.75013805925846L82.125,152.54322410933673L83.25,149.89589112251997L84.375,141.93045407906175L85.5,158.36303941346705L86.625,158.77679053833708L87.75,117.03044296614826L88.875,158.71005374961533L90,155.6969169471413L91.125,76.68351255729795L92.25,94.36278906092048L93.375,159.9316903334111L94.5,152.9858167693019L95.625,160.20503773202654L96.75,143.1544681955129L97.875,159.44613552442752L99,159.8986093859421L100.125,161.75321561627788L101.25,160.29794283409137L102.375,161.87355017487425L103.5,-233.3487073481083L104.625,69.88984229415655L105.75,160.70361780025996L106.875,159.38312421226874L108,132.22246658429503L109.125,155.5985352434218L110.25,159.58689160493668L111.375,161.42700554942712L112.5,-161.93716810643673L113.625,110.37959637492895L114.75,152.34790720883757L115.875,118.28587361983955L117,151.7664959016256L118.125,105.99547973275183L119.25,153.9540883214213L120.375,65.9907848984003L121.5,133.6358068920672L122.625,89.74946219846606L123.75,161.33028568024747L124.875,136.31797143630683L126,160.92035945353564L127.125,157.7833053949289L128.25,161.2319525711937L129.375,161.85864921304164L130.5,154.13989646499977L131.625,130.68303428031504L132.75,160.88126418640604L133.875,152.10891417833045L135,159.47962531959638L136.125,161.51720549119636L137.25,161.99613054109795L138.375,87.42782542854548L139.5,157.05991558521055L140.625,159.49606920499355L141.75,145.51544775627553L142.875,158.99493731581606L144,127.71778297051787L145.125,142.33197857998312L146.25,161.58577908959705L147.375,154.53223846293986L148.5,152.9739473075606L149.625,161.47469116863795L150.75,149.35927413776517L151.875,161.60310394648695L153,161.94095818814822L154.125,160.79262949083932L155.25,161.37473417352885L156.375,137.1629650183022L157.5,162.079765373579L158.625,149.08247067965567L159.75,160.39100591174792L160.875,157.1774507991504L162,161.4527858781512L163.125,162.11262743041152L164.25,160.83214073174167L165.375,159.19541314966045L166.5,158.7273297542706L167.625,112.39854641631246L168.75,161.8366804747493L169.875,154.37170091923326L171,131.1387320458889L172.125,158.80919682700187L173.25,161.16676205443218L174.375,159.73440749535803L175.5,146.9472945611924L176.625,160.60188426659442L177.75,161.79426724798395L178.875,157.4042924158275L180,161.50298287998885L181.125,160.64388413820416L182.25,160.88689404155593L183.375,152.1321159848012L184.5,161.29424020060105L185.625,149.13293769955635L186.75,159.80396603723057L187.875,161.76997352109174L189,159.2347604050301L190.125,160.4381580199115L191.25,159.37542702327482L192.375,142.25429167877883L193.5,158.65383813530207L194.625,139.66818041540682L195.75,128.40694668143988L196.875,161.02362509287195L198,156.99786689388566L199.125,161.93367875444528L200.25,158.06913269357756L201.375,151.85397935006768L202.5,162.09883176111907L203.625,161.65939288208028L204.75,160.00928742892575L205.875,89.733747061342L207,161.91989179956727L208.125,155.29661503992975L209.25,158.032202121336L210.375,161.64003224353655L211.5,157.79760905448347L212.625,162.14208033748582L213.75,156.53229599725455L214.875,162.03288010679535L216,148.45029082521796L217.125,160.7627650637878L218.25,151.60042646480724L219.375,156.06628723349422L220.5,120.28826507180929L221.625,162.15938195951458L222.75,149.33711359649897L223.875,154.65080738672987L225,161.18236471980345L226.125,157.79324892815202L227.25,160.89455173665192L228.375,162.1083527847586L229.5,161.6987016738276L230.625,161.5143163408502L231.75,162.1234272299771L232.875,161.9771292755613L234,162.0912656961591L235.125,157.98539395350963L236.25,159.37596242316067L237.375,158.8850003844127L238.5,137.56173662282526L239.625,161.57447610772215L240.75,155.62561088614166L241.875,159.6791828344576L243,162.00312540409504L244.125,162.06143612676533L245.25,162.1094184868125L246.375,162.19812319819175L247.5,138.77047518640757" style="fill: none;" fill="none"></path></g></g></g></g></g></g><g transform="translate(60, 177)" clip-path="url(#clip_1)"><clipPath id="clip_1"><rect width="270" height="23"></rect></clipPath><g><g><line x1="0" y1="0" x2="0" y2="5" style="visibility: inherit;" fill="rgb(0, 0, 0)" stroke="rgb(204, 204, 204)" stroke-width="1px"></line><line x1="22.5" y1="0" x2="22.5" y2="5" style="visibility: inherit;" fill="rgb(0, 0, 0)" stroke="rgb(204, 204, 204)" stroke-width="1px"></line><line x1="45" y1="0" x2="45" y2="5" style="visibility: inherit;" fill="rgb(0, 0, 0)" stroke="rgb(204, 204, 204)" stroke-width="1px"></line><line x1="67.5" y1="0" x2="67.5" y2="5" style="visibility: inherit;" fill="rgb(0, 0, 0)" stroke="rgb(204, 204, 204)" stroke-width="1px"></line><line x1="90" y1="0" x2="90" y2="5" style="visibility: inherit;" fill="rgb(0, 0, 0)" stroke="rgb(204, 204, 204)" stroke-width="1px"></line><line x1="112.5" y1="0" x2="112.5" y2="5" style="visibility: inherit;" fill="rgb(0, 0, 0)" stroke="rgb(204, 204, 204)" stroke-width="1px"></line><line x1="135" y1="0" x2="135" y2="5" style="visibility: inherit;" fill="rgb(0, 0, 0)" stroke="rgb(204, 204, 204)" stroke-width="1px"></line><line x1="157.5" y1="0" x2="157.5" y2="5" style="visibility: inherit;" fill="rgb(0, 0, 0)" stroke="rgb(204, 204, 204)" stroke-width="1px"></line><line x1="180" y1="0" x2="180" y2="5" style="visibility: inherit;" fill="rgb(0, 0, 0)" stroke="rgb(204, 204, 204)" stroke-width="1px"></line><line x1="202.5" y1="0" x2="202.5" y2="5" style="visibility: inherit;" fill="rgb(0, 0, 0)" stroke="rgb(204, 204, 204)" stroke-width="1px"></line><line x1="225" y1="0" x2="225" y2="5" style="visibility: inherit;" fill="rgb(0, 0, 0)" stroke="rgb(204, 204, 204)" stroke-width="1px"></line><line x1="247.5" y1="0" x2="247.5" y2="5" style="visibility: inherit;" fill="rgb(0, 0, 0)" stroke="rgb(204, 204, 204)" stroke-width="1px"></line><line x1="270" y1="0" x2="270" y2="5" style="visibility: inherit;" fill="rgb(0, 0, 0)" stroke="rgb(204, 204, 204)" stroke-width="1px"></line></g><g transform="translate(0, 8)"><text x="0" y="0" dx="0em" dy="0.95em" style="text-anchor: middle; visibility: hidden; font-family: Roboto, sans-serif; font-size: 12px; font-weight: 200;" fill="rgb(33, 33, 33)" stroke="none" stroke-width="1px">-2k</text><text x="22.5" y="0" dx="0em" dy="0.95em" style="text-anchor: middle; visibility: inherit; font-family: Roboto, sans-serif; font-size: 12px; font-weight: 200;" fill="rgb(33, 33, 33)" stroke="none" stroke-width="1px">0</text><text x="45" y="0" dx="0em" dy="0.95em" style="text-anchor: middle; visibility: hidden; font-family: Roboto, sans-serif; font-size: 12px; font-weight: 200;" fill="rgb(33, 33, 33)" stroke="none" stroke-width="1px">2k</text><text x="67.5" y="0" dx="0em" dy="0.95em" style="text-anchor: middle; visibility: inherit; font-family: Roboto, sans-serif; font-size: 12px; font-weight: 200;" fill="rgb(33, 33, 33)" stroke="none" stroke-width="1px">4k</text><text x="90" y="0" dx="0em" dy="0.95em" style="text-anchor: middle; visibility: hidden; font-family: Roboto, sans-serif; font-size: 12px; font-weight: 200;" fill="rgb(33, 33, 33)" stroke="none" stroke-width="1px">6k</text><text x="112.5" y="0" dx="0em" dy="0.95em" style="text-anchor: middle; visibility: inherit; font-family: Roboto, sans-serif; font-size: 12px; font-weight: 200;" fill="rgb(33, 33, 33)" stroke="none" stroke-width="1px">8k</text><text x="135" y="0" dx="0em" dy="0.95em" style="text-anchor: middle; visibility: hidden; font-family: Roboto, sans-serif; font-size: 12px; font-weight: 200;" fill="rgb(33, 33, 33)" stroke="none" stroke-width="1px">10k</text><text x="157.5" y="0" dx="0em" dy="0.95em" style="text-anchor: middle; visibility: inherit; font-family: Roboto, sans-serif; font-size: 12px; font-weight: 200;" fill="rgb(33, 33, 33)" stroke="none" stroke-width="1px">12k</text><text x="180" y="0" dx="0em" dy="0.95em" style="text-anchor: middle; visibility: hidden; font-family: Roboto, sans-serif; font-size: 12px; font-weight: 200;" fill="rgb(33, 33, 33)" stroke="none" stroke-width="1px">14k</text><text x="202.5" y="0" dx="0em" dy="0.95em" style="text-anchor: middle; visibility: inherit; font-family: Roboto, sans-serif; font-size: 12px; font-weight: 200;" fill="rgb(33, 33, 33)" stroke="none" stroke-width="1px">16k</text><text x="225" y="0" dx="0em" dy="0.95em" style="text-anchor: middle; visibility: hidden; font-family: Roboto, sans-serif; font-size: 12px; font-weight: 200;" fill="rgb(33, 33, 33)" stroke="none" stroke-width="1px">18k</text><text x="247.5" y="0" dx="0em" dy="0.95em" style="text-anchor: middle; visibility: inherit; font-family: Roboto, sans-serif; font-size: 12px; font-weight: 200;" fill="rgb(33, 33, 33)" stroke="none" stroke-width="1px">20k</text><text x="270" y="0" dx="0em" dy="0.95em" style="text-anchor: middle; visibility: hidden; font-family: Roboto, sans-serif; font-size: 12px; font-weight: 200;" fill="rgb(33, 33, 33)" stroke="none" stroke-width="1px">22k</text></g><line x1="0" y1="0" x2="270" y2="0" fill="rgb(0, 0, 0)" stroke="rgb(204, 204, 204)" stroke-width="1px"></line></g></g></g></g></svg>