<svg viewBox="0 0 330 200" xmlns="http://www.w3.org/2000/svg"><g><g><g><g><g><line x1="50" y1="177" x2="45" y2="177" style="visibility: inherit;" fill="rgb(0, 0, 0)" stroke="rgb(204, 204, 204)" stroke-width="1px"></line><line x1="50" y1="159.3" x2="45" y2="159.3" style="visibility: inherit;" fill="rgb(0, 0, 0)" stroke="rgb(204, 204, 204)" stroke-width="1px"></line><line x1="50" y1="141.6" x2="45" y2="141.6" style="visibility: inherit;" fill="rgb(0, 0, 0)" stroke="rgb(204, 204, 204)" stroke-width="1px"></line><line x1="50" y1="123.89999999999999" x2="45" y2="123.89999999999999" style="visibility: inherit;" fill="rgb(0, 0, 0)" stroke="rgb(204, 204, 204)" stroke-width="1px"></line><line x1="50" y1="106.2" x2="45" y2="106.2" style="visibility: inherit;" fill="rgb(0, 0, 0)" stroke="rgb(204, 204, 204)" stroke-width="1px"></line><line x1="50" y1="88.5" x2="45" y2="88.5" style="visibility: inherit;" fill="rgb(0, 0, 0)" stroke="rgb(204, 204, 204)" stroke-width="1px"></line><line x1="50" y1="70.8" x2="45" y2="70.8" style="visibility: inherit;" fill="rgb(0, 0, 0)" stroke="rgb(204, 204, 204)" stroke-width="1px"></line><line x1="50" y1="53.10000000000001" x2="45" y2="53.10000000000001" style="visibility: inherit;" fill="rgb(0, 0, 0)" stroke="rgb(204, 204, 204)" stroke-width="1px"></line><line x1="50" y1="35.39999999999999" x2="45" y2="35.39999999999999" style="visibility: inherit;" fill="rgb(0, 0, 0)" stroke="rgb(204, 204, 204)" stroke-width="1px"></line><line x1="50" y1="17.699999999999996" x2="45" y2="17.699999999999996" style="visibility: inherit;" fill="rgb(0, 0, 0)" stroke="rgb(204, 204, 204)" stroke-width="1px"></line><line x1="50" y1="0" x2="45" y2="0" style="visibility: inherit;" fill="rgb(0, 0, 0)" stroke="rgb(204, 204, 204)" stroke-width="1px"></line></g><g transform="translate(40, 0)"><text x="0" y="177" dx="0em" dy="0.3em" style="text-anchor: end; visibility: hidden; font-family: Roboto, sans-serif; font-size: 12px; font-weight: 200;" fill="rgb(33, 33, 33)" stroke="none" stroke-width="1px">-1</text><text x="0" y="159.3" dx="0em" dy="0.3em" style="text-anchor: end; visibility: inherit; font-family: Roboto, sans-serif; font-size: 12px; font-weight: 200;" fill="rgb(33, 33, 33)" stroke="none" stroke-width="1px">-0.8</text><text x="0" y="141.6" dx="0em" dy="0.3em" style="text-anchor: end; visibility: hidden; font-family: Roboto, sans-serif; font-size: 12px; font-weight: 200;" fill="rgb(33, 33, 33)" stroke="none" stroke-width="1px">-0.6</text><text x="0" y="123.89999999999999" dx="0em" dy="0.3em" style="text-anchor: end; visibility: inherit; font-family: Roboto, sans-serif; font-size: 12px; font-weight: 200;" fill="rgb(33, 33, 33)" stroke="none" stroke-width="1px">-0.4</text><text x="0" y="106.2" dx="0em" dy="0.3em" style="text-anchor: end; visibility: hidden; font-family: Roboto, sans-serif; font-size: 12px; font-weight: 200;" fill="rgb(33, 33, 33)" stroke="none" stroke-width="1px">-0.2</text><text x="0" y="88.5" dx="0em" dy="0.3em" style="text-anchor: end; visibility: inherit; font-family: Roboto, sans-serif; font-size: 12px; font-weight: 200;" fill="rgb(33, 33, 33)" stroke="none" stroke-width="1px">0</text><text x="0" y="70.8" dx="0em" dy="0.3em" style="text-anchor: end; visibility: hidden; font-family: Roboto, sans-serif; font-size: 12px; font-weight: 200;" fill="rgb(33, 33, 33)" stroke="none" stroke-width="1px">0.2</text><text x="0" y="53.10000000000001" dx="0em" dy="0.3em" style="text-anchor: end; visibility: inherit; font-family: Roboto, sans-serif; font-size: 12px; font-weight: 200;" fill="rgb(33, 33, 33)" stroke="none" stroke-width="1px">0.4</text><text x="0" y="35.39999999999999" dx="0em" dy="0.3em" style="text-anchor: end; visibility: hidden; font-family: Roboto, sans-serif; font-size: 12px; font-weight: 200;" fill="rgb(33, 33, 33)" stroke="none" stroke-width="1px">0.6</text><text x="0" y="17.699999999999996" dx="0em" dy="0.3em" style="text-anchor: end; visibility: inherit; font-family: Roboto, sans-serif; font-size: 12px; font-weight: 200;" fill="rgb(33, 33, 33)" stroke="none" stroke-width="1px">0.8</text><text x="0" y="0" dx="0em" dy="0.3em" style="text-anchor: end; visibility: hidden; font-family: Roboto, sans-serif; font-size: 12px; font-weight: 200;" fill="rgb(33, 33, 33)" stroke="none" stroke-width="1px">1</text></g><line x1="50" y1="0" x2="50" y2="177" fill="rgb(0, 0, 0)" stroke="rgb(204, 204, 204)" stroke-width="1px"></line></g></g><g transform="translate(50, 0)" clip-path="url(#clip_0)"><clipPath id="clip_0"><rect width="280" height="177"></rect></clipPath><g><g><g><line x1="0" y1="0" x2="0" y2="177" fill="rgb(0, 0, 0)" stroke="rgb(66, 66, 66)" stroke-width="1px" opacity="0.25"></line><line x1="23.333333333333332" y1="0" x2="23.333333333333332" y2="177" fill="rgb(0, 0, 0)" stroke="rgb(66, 66, 66)" stroke-width="1px" opacity="0.25"></line><line x1="46.666666666666664" y1="0" x2="46.666666666666664" y2="177" fill="rgb(0, 0, 0)" stroke="rgb(66, 66, 66)" stroke-width="1px" opacity="0.25"></line><line x1="70" y1="0" x2="70" y2="177" fill="rgb(0, 0, 0)" stroke="rgb(66, 66, 66)" stroke-width="1px" opacity="0.25"></line><line x1="93.33333333333333" y1="0" x2="93.33333333333333" y2="177" fill="rgb(0, 0, 0)" stroke="rgb(66, 66, 66)" stroke-width="1px" opacity="0.25"></line><line x1="116.66666666666667" y1="0" x2="116.66666666666667" y2="177" fill="rgb(0, 0, 0)" stroke="rgb(66, 66, 66)" stroke-width="1px" opacity="0.25"></line><line x1="140" y1="0" x2="140" y2="177" fill="rgb(0, 0, 0)" stroke="rgb(66, 66, 66)" stroke-width="1px" opacity="0.25"></line><line x1="163.33333333333334" y1="0" x2="163.33333333333334" y2="177" fill="rgb(0, 0, 0)" stroke="rgb(66, 66, 66)" stroke-width="1px" opacity="0.25"></line><line x1="186.66666666666666" y1="0" x2="186.66666666666666" y2="177" fill="rgb(0, 0, 0)" stroke="rgb(66, 66, 66)" stroke-width="1px" opacity="0.25"></line><line x1="210" y1="0" x2="210" y2="177" fill="rgb(0, 0, 0)" stroke="rgb(66, 66, 66)" stroke-width="1px" opacity="0.25"></line><line x1="233.33333333333334" y1="0" x2="233.33333333333334" y2="177" fill="rgb(0, 0, 0)" stroke="rgb(66, 66, 66)" stroke-width="1px" opacity="0.25"></line><line x1="256.66666666666663" y1="0" x2="256.66666666666663" y2="177" fill="rgb(0, 0, 0)" stroke="rgb(66, 66, 66)" stroke-width="1px" opacity="0.25"></line><line x1="280" y1="0" x2="280" y2="177" fill="rgb(0, 0, 0)" stroke="rgb(66, 66, 66)" stroke-width="1px" opacity="0.25"></line></g><g><line x1="0" y1="177" x2="280" y2="177" fill="rgb(0, 0, 0)" stroke="rgb(66, 66, 66)" stroke-width="1px" opacity="0.25"></line><line x1="0" y1="159.3" x2="280" y2="159.3" fill="rgb(0, 0, 0)" stroke="rgb(66, 66, 66)" stroke-width="1px" opacity="0.25"></line><line x1="0" y1="141.6" x2="280" y2="141.6" fill="rgb(0, 0, 0)" stroke="rgb(66, 66, 66)" stroke-width="1px" opacity="0.25"></line><line x1="0" y1="123.89999999999999" x2="280" y2="123.89999999999999" fill="rgb(0, 0, 0)" stroke="rgb(66, 66, 66)" stroke-width="1px" opacity="0.25"></line><line x1="0" y1="106.2" x2="280" y2="106.2" fill="rgb(0, 0, 0)" stroke="rgb(66, 66, 66)" stroke-width="1px" opacity="0.25"></line><line x1="0" y1="88.5" x2="280" y2="88.5" fill="rgb(0, 0, 0)" stroke="rgb(66, 66, 66)" stroke-width="1px" opacity="0.25"></line><line x1="0" y1="70.8" x2="280" y2="70.8" fill="rgb(0, 0, 0)" stroke="rgb(66, 66, 66)" stroke-width="1px" opacity="0.25"></line><line x1="0" y1="53.10000000000001" x2="280" y2="53.10000000000001" fill="rgb(0, 0, 0)" stroke="rgb(66, 66, 66)" stroke-width="1px" opacity="0.25"></line><line x1="0" y1="35.39999999999999" x2="280" y2="35.39999999999999" fill="rgb(0, 0, 0)" stroke="rgb(66, 66, 66)" stroke-width="1px" opacity="0.25"></line><line x1="0" y1="17.699999999999996" x2="280" y2="17.699999999999996" fill="rgb(0, 0, 0)" stroke="rgb(66, 66, 66)" stroke-width="1px" opacity="0.25"></line><line x1="0" y1="0" x2="280" y2="0" fill="rgb(0, 0, 0)" stroke="rgb(66, 66, 66)" stroke-width="1px" opacity="0.25"></line></g></g></g><g><g><line x1="0" y1="88.5" x2="280" y2="88.5" fill="rgb(0, 0, 0)" stroke="rgb(153, 153, 153)" stroke-width="1.5px"></line></g></g><g><g><line x1="23.333333333333332" y1="0" x2="23.333333333333332" y2="177" fill="rgb(0, 0, 0)" stroke="rgb(153, 153, 153)" stroke-width="1.5px"></line></g></g><g><g><g><g><g><path stroke="rgb(255, 112, 67)" stroke-width="2px" d="M24.5,88.5L25.666666666666664,88.5L26.833333333333336,88.5L28,88.5L29.166666666666668,88.5L30.333333333333336,88.5L31.5,88.5L32.666666666666664,88.5L33.833333333333336,88.5L35,88.5L36.16666666666667,88.5L37.333333333333336,88.5L38.5,88.5L39.666666666666664,88.5L40.833333333333336,88.5L42,88.5L43.16666666666667,88.5L44.33333333333333,88.5L45.5,88.5L46.666666666666664,88.5L47.833333333333336,88.5L49,88.5L50.166666666666664,88.5L51.33333333333333,88.5L52.5,88.5L53.66666666666667,88.5L54.833333333333336,88.5L56,88.5L57.166666666666664,88.5L58.333333333333336,88.5L59.5,88.5L60.66666666666667,88.5L61.83333333333333,88.5L63,88.5L64.16666666666666,88.5L65.33333333333333,88.5L66.5,88.5L67.66666666666667,88.5L68.83333333333333,88.5L70,88.5L71.16666666666666,88.5L72.33333333333334,88.5L73.5,88.5L74.66666666666667,88.5L75.83333333333333,88.5L77,88.5L78.16666666666667,88.5L79.33333333333333,88.5L80.5,88.5L81.66666666666667,88.5L82.83333333333333,88.5L84,88.5L85.16666666666666,88.5L86.33333333333334,88.5L87.5,88.5L88.66666666666666,88.5L89.83333333333334,88.5L91,88.5L92.16666666666667,88.5L93.33333333333333,88.5L94.5,88.5L95.66666666666667,88.5L96.83333333333333,88.5L98,88.5L99.16666666666667,88.5L100.33333333333333,88.5L101.5,88.5L102.66666666666666,88.5L103.83333333333334,88.5L105,88.5L106.16666666666666,88.5L107.33333333333334,88.5L108.5,88.5L109.66666666666667,88.5L110.83333333333333,88.5L112,88.5L113.16666666666667,88.5L114.33333333333333,88.5L115.5,88.5L116.66666666666667,88.5L117.83333333333333,88.5L119,88.5L120.16666666666666,88.5L121.33333333333334,88.5L122.5,88.5L123.66666666666666,88.5L124.83333333333334,88.5L126,88.5L127.16666666666667,88.5L128.33333333333331,88.5L129.5,88.5L130.66666666666666,88.5L131.83333333333334,88.5L133,88.5L134.16666666666669,88.5L135.33333333333334,88.5L136.5,88.5L137.66666666666666,88.5L138.83333333333334,88.5L140,88.5L141.16666666666666,88.5L142.33333333333331,88.5L143.5,88.5L144.66666666666669,88.5L145.83333333333334,88.5L147,88.5L148.16666666666666,88.5L149.33333333333334,88.5L150.5,88.5L151.66666666666666,88.5L152.83333333333331,88.5L154,88.5L155.16666666666669,88.5L156.33333333333334,88.5L157.5,88.5L158.66666666666666,88.5L159.83333333333331,88.5L161,88.5L162.16666666666669,88.5L163.33333333333334,88.5L164.5,88.5L165.66666666666666,88.5L166.83333333333334,88.5L168,88.5L169.16666666666666,88.5L170.33333333333331,88.5L171.5,88.5L172.66666666666669,88.5L173.83333333333334,88.5L175,88.5L176.16666666666666,88.5L177.33333333333331,88.5L178.5,88.5L179.66666666666669,88.5L180.83333333333334,88.5L182,88.5L183.16666666666666,88.5L184.33333333333334,88.5L185.5,88.5L186.66666666666666,88.5L187.83333333333331,88.5L189,88.5L190.16666666666669,88.5L191.33333333333334,88.5L192.5,88.5L193.66666666666666,88.5L194.83333333333331,88.5L196,88.5L197.16666666666669,88.5L198.33333333333334,88.5L199.5,88.5L200.66666666666666,88.5L201.83333333333334,88.5L203,88.5L204.16666666666666,88.5L205.33333333333331,88.5L206.5,88.5L207.66666666666669,88.5L208.83333333333334,88.5L210,88.5L211.16666666666666,88.5L212.33333333333331,88.5L213.5,88.5L214.66666666666669,88.5L215.83333333333334,88.5L217,88.5L218.16666666666666,88.5L219.33333333333334,88.5L220.5,88.5L221.66666666666666,88.5L222.83333333333331,88.5L224,88.5L225.16666666666669,88.5L226.33333333333334,88.5L227.5,88.5L228.66666666666666,88.5L229.83333333333331,88.5L231,88.5L232.16666666666669,88.5L233.33333333333334,88.5L234.5,88.5L235.66666666666666,88.5L236.83333333333334,88.5L238,88.5L239.16666666666666,88.5L240.33333333333331,88.5L241.5,88.5L242.66666666666669,88.5L243.83333333333334,88.5L245,88.5L246.16666666666666,88.5L247.33333333333331,88.5L248.5,88.5L249.66666666666669,88.5L250.83333333333334,88.5L252,88.5L253.16666666666666,88.5L254.33333333333334,88.5L255.5,88.5L256.66666666666663,88.5" style="fill: none;" fill="none"></path></g></g></g></g><g opacity="0.2"><g><g><g><path stroke="rgb(255, 112, 67)" stroke-width="2px" d="M24.5,88.5L25.666666666666664,88.5L26.833333333333336,88.5L28,88.5L29.166666666666668,88.5L30.333333333333336,88.5L31.5,88.5L32.666666666666664,88.5L33.833333333333336,88.5L35,88.5L36.16666666666667,88.5L37.333333333333336,88.5L38.5,88.5L39.666666666666664,88.5L40.833333333333336,88.5L42,88.5L43.16666666666667,88.5L44.33333333333333,88.5L45.5,88.5L46.666666666666664,88.5L47.833333333333336,88.5L49,88.5L50.166666666666664,88.5L51.33333333333333,88.5L52.5,88.5L53.66666666666667,88.5L54.833333333333336,88.5L56,88.5L57.166666666666664,88.5L58.333333333333336,88.5L59.5,88.5L60.66666666666667,88.5L61.83333333333333,88.5L63,88.5L64.16666666666666,88.5L65.33333333333333,88.5L66.5,88.5L67.66666666666667,88.5L68.83333333333333,88.5L70,88.5L71.16666666666666,88.5L72.33333333333334,88.5L73.5,88.5L74.66666666666667,88.5L75.83333333333333,88.5L77,88.5L78.16666666666667,88.5L79.33333333333333,88.5L80.5,88.5L81.66666666666667,88.5L82.83333333333333,88.5L84,88.5L85.16666666666666,88.5L86.33333333333334,88.5L87.5,88.5L88.66666666666666,88.5L89.83333333333334,88.5L91,88.5L92.16666666666667,88.5L93.33333333333333,88.5L94.5,88.5L95.66666666666667,88.5L96.83333333333333,88.5L98,88.5L99.16666666666667,88.5L100.33333333333333,88.5L101.5,88.5L102.66666666666666,88.5L103.83333333333334,88.5L105,88.5L106.16666666666666,88.5L107.33333333333334,88.5L108.5,88.5L109.66666666666667,88.5L110.83333333333333,88.5L112,88.5L113.16666666666667,88.5L114.33333333333333,88.5L115.5,88.5L116.66666666666667,88.5L117.83333333333333,88.5L119,88.5L120.16666666666666,88.5L121.33333333333334,88.5L122.5,88.5L123.66666666666666,88.5L124.83333333333334,88.5L126,88.5L127.16666666666667,88.5L128.33333333333331,88.5L129.5,88.5L130.66666666666666,88.5L131.83333333333334,88.5L133,88.5L134.16666666666669,88.5L135.33333333333334,88.5L136.5,88.5L137.66666666666666,88.5L138.83333333333334,88.5L140,88.5L141.16666666666666,88.5L142.33333333333331,88.5L143.5,88.5L144.66666666666669,88.5L145.83333333333334,88.5L147,88.5L148.16666666666666,88.5L149.33333333333334,88.5L150.5,88.5L151.66666666666666,88.5L152.83333333333331,88.5L154,88.5L155.16666666666669,88.5L156.33333333333334,88.5L157.5,88.5L158.66666666666666,88.5L159.83333333333331,88.5L161,88.5L162.16666666666669,88.5L163.33333333333334,88.5L164.5,88.5L165.66666666666666,88.5L166.83333333333334,88.5L168,88.5L169.16666666666666,88.5L170.33333333333331,88.5L171.5,88.5L172.66666666666669,88.5L173.83333333333334,88.5L175,88.5L176.16666666666666,88.5L177.33333333333331,88.5L178.5,88.5L179.66666666666669,88.5L180.83333333333334,88.5L182,88.5L183.16666666666666,88.5L184.33333333333334,88.5L185.5,88.5L186.66666666666666,88.5L187.83333333333331,88.5L189,88.5L190.16666666666669,88.5L191.33333333333334,88.5L192.5,88.5L193.66666666666666,88.5L194.83333333333331,88.5L196,88.5L197.16666666666669,88.5L198.33333333333334,88.5L199.5,88.5L200.66666666666666,88.5L201.83333333333334,88.5L203,88.5L204.16666666666666,88.5L205.33333333333331,88.5L206.5,88.5L207.66666666666669,88.5L208.83333333333334,88.5L210,88.5L211.16666666666666,88.5L212.33333333333331,88.5L213.5,88.5L214.66666666666669,88.5L215.83333333333334,88.5L217,88.5L218.16666666666666,88.5L219.33333333333334,88.5L220.5,88.5L221.66666666666666,88.5L222.83333333333331,88.5L224,88.5L225.16666666666669,88.5L226.33333333333334,88.5L227.5,88.5L228.66666666666666,88.5L229.83333333333331,88.5L231,88.5L232.16666666666669,88.5L233.33333333333334,88.5L234.5,88.5L235.66666666666666,88.5L236.83333333333334,88.5L238,88.5L239.16666666666666,88.5L240.33333333333331,88.5L241.5,88.5L242.66666666666669,88.5L243.83333333333334,88.5L245,88.5L246.16666666666666,88.5L247.33333333333331,88.5L248.5,88.5L249.66666666666669,88.5L250.83333333333334,88.5L252,88.5L253.16666666666666,88.5L254.33333333333334,88.5L255.5,88.5L256.66666666666663,88.5" style="fill: none;" fill="none"></path></g></g></g></g></g></g><g transform="translate(50, 177)" clip-path="url(#clip_1)"><clipPath id="clip_1"><rect width="280" height="23"></rect></clipPath><g><g><line x1="0" y1="0" x2="0" y2="5" style="visibility: inherit;" fill="rgb(0, 0, 0)" stroke="rgb(204, 204, 204)" stroke-width="1px"></line><line x1="23.333333333333332" y1="0" x2="23.333333333333332" y2="5" style="visibility: inherit;" fill="rgb(0, 0, 0)" stroke="rgb(204, 204, 204)" stroke-width="1px"></line><line x1="46.666666666666664" y1="0" x2="46.666666666666664" y2="5" style="visibility: inherit;" fill="rgb(0, 0, 0)" stroke="rgb(204, 204, 204)" stroke-width="1px"></line><line x1="70" y1="0" x2="70" y2="5" style="visibility: inherit;" fill="rgb(0, 0, 0)" stroke="rgb(204, 204, 204)" stroke-width="1px"></line><line x1="93.33333333333333" y1="0" x2="93.33333333333333" y2="5" style="visibility: inherit;" fill="rgb(0, 0, 0)" stroke="rgb(204, 204, 204)" stroke-width="1px"></line><line x1="116.66666666666667" y1="0" x2="116.66666666666667" y2="5" style="visibility: inherit;" fill="rgb(0, 0, 0)" stroke="rgb(204, 204, 204)" stroke-width="1px"></line><line x1="140" y1="0" x2="140" y2="5" style="visibility: inherit;" fill="rgb(0, 0, 0)" stroke="rgb(204, 204, 204)" stroke-width="1px"></line><line x1="163.33333333333334" y1="0" x2="163.33333333333334" y2="5" style="visibility: inherit;" fill="rgb(0, 0, 0)" stroke="rgb(204, 204, 204)" stroke-width="1px"></line><line x1="186.66666666666666" y1="0" x2="186.66666666666666" y2="5" style="visibility: inherit;" fill="rgb(0, 0, 0)" stroke="rgb(204, 204, 204)" stroke-width="1px"></line><line x1="210" y1="0" x2="210" y2="5" style="visibility: inherit;" fill="rgb(0, 0, 0)" stroke="rgb(204, 204, 204)" stroke-width="1px"></line><line x1="233.33333333333334" y1="0" x2="233.33333333333334" y2="5" style="visibility: inherit;" fill="rgb(0, 0, 0)" stroke="rgb(204, 204, 204)" stroke-width="1px"></line><line x1="256.66666666666663" y1="0" x2="256.66666666666663" y2="5" style="visibility: inherit;" fill="rgb(0, 0, 0)" stroke="rgb(204, 204, 204)" stroke-width="1px"></line><line x1="280" y1="0" x2="280" y2="5" style="visibility: inherit;" fill="rgb(0, 0, 0)" stroke="rgb(204, 204, 204)" stroke-width="1px"></line></g><g transform="translate(0, 8)"><text x="0" y="0" dx="0em" dy="0.95em" style="text-anchor: middle; visibility: hidden; font-family: Roboto, sans-serif; font-size: 12px; font-weight: 200;" fill="rgb(33, 33, 33)" stroke="none" stroke-width="1px">-2k</text><text x="23.333333333333332" y="0" dx="0em" dy="0.95em" style="text-anchor: middle; visibility: inherit; font-family: Roboto, sans-serif; font-size: 12px; font-weight: 200;" fill="rgb(33, 33, 33)" stroke="none" stroke-width="1px">0</text><text x="46.666666666666664" y="0" dx="0em" dy="0.95em" style="text-anchor: middle; visibility: hidden; font-family: Roboto, sans-serif; font-size: 12px; font-weight: 200;" fill="rgb(33, 33, 33)" stroke="none" stroke-width="1px">2k</text><text x="70" y="0" dx="0em" dy="0.95em" style="text-anchor: middle; visibility: inherit; font-family: Roboto, sans-serif; font-size: 12px; font-weight: 200;" fill="rgb(33, 33, 33)" stroke="none" stroke-width="1px">4k</text><text x="93.33333333333333" y="0" dx="0em" dy="0.95em" style="text-anchor: middle; visibility: hidden; font-family: Roboto, sans-serif; font-size: 12px; font-weight: 200;" fill="rgb(33, 33, 33)" stroke="none" stroke-width="1px">6k</text><text x="116.66666666666667" y="0" dx="0em" dy="0.95em" style="text-anchor: middle; visibility: inherit; font-family: Roboto, sans-serif; font-size: 12px; font-weight: 200;" fill="rgb(33, 33, 33)" stroke="none" stroke-width="1px">8k</text><text x="140" y="0" dx="0em" dy="0.95em" style="text-anchor: middle; visibility: hidden; font-family: Roboto, sans-serif; font-size: 12px; font-weight: 200;" fill="rgb(33, 33, 33)" stroke="none" stroke-width="1px">10k</text><text x="163.33333333333334" y="0" dx="0em" dy="0.95em" style="text-anchor: middle; visibility: inherit; font-family: Roboto, sans-serif; font-size: 12px; font-weight: 200;" fill="rgb(33, 33, 33)" stroke="none" stroke-width="1px">12k</text><text x="186.66666666666666" y="0" dx="0em" dy="0.95em" style="text-anchor: middle; visibility: hidden; font-family: Roboto, sans-serif; font-size: 12px; font-weight: 200;" fill="rgb(33, 33, 33)" stroke="none" stroke-width="1px">14k</text><text x="210" y="0" dx="0em" dy="0.95em" style="text-anchor: middle; visibility: inherit; font-family: Roboto, sans-serif; font-size: 12px; font-weight: 200;" fill="rgb(33, 33, 33)" stroke="none" stroke-width="1px">16k</text><text x="233.33333333333334" y="0" dx="0em" dy="0.95em" style="text-anchor: middle; visibility: hidden; font-family: Roboto, sans-serif; font-size: 12px; font-weight: 200;" fill="rgb(33, 33, 33)" stroke="none" stroke-width="1px">18k</text><text x="256.66666666666663" y="0" dx="0em" dy="0.95em" style="text-anchor: middle; visibility: inherit; font-family: Roboto, sans-serif; font-size: 12px; font-weight: 200;" fill="rgb(33, 33, 33)" stroke="none" stroke-width="1px">20k</text><text x="280" y="0" dx="0em" dy="0.95em" style="text-anchor: middle; visibility: hidden; font-family: Roboto, sans-serif; font-size: 12px; font-weight: 200;" fill="rgb(33, 33, 33)" stroke="none" stroke-width="1px">22k</text></g><line x1="0" y1="0" x2="280" y2="0" fill="rgb(0, 0, 0)" stroke="rgb(204, 204, 204)" stroke-width="1px"></line></g></g></g></g></svg>