<svg viewBox="0 0 330 200" xmlns="http://www.w3.org/2000/svg"><g><g><g><g><g><line x1="50" y1="177" x2="45" y2="177" style="visibility: inherit;" fill="rgb(0, 0, 0)" stroke="rgb(204, 204, 204)" stroke-width="1px"></line><line x1="50" y1="157.33333333333331" x2="45" y2="157.33333333333331" style="visibility: inherit;" fill="rgb(0, 0, 0)" stroke="rgb(204, 204, 204)" stroke-width="1px"></line><line x1="50" y1="137.66666666666666" x2="45" y2="137.66666666666666" style="visibility: inherit;" fill="rgb(0, 0, 0)" stroke="rgb(204, 204, 204)" stroke-width="1px"></line><line x1="50" y1="118.00000000000001" x2="45" y2="118.00000000000001" style="visibility: inherit;" fill="rgb(0, 0, 0)" stroke="rgb(204, 204, 204)" stroke-width="1px"></line><line x1="50" y1="98.33333333333334" x2="45" y2="98.33333333333334" style="visibility: inherit;" fill="rgb(0, 0, 0)" stroke="rgb(204, 204, 204)" stroke-width="1px"></line><line x1="50" y1="78.66666666666666" x2="45" y2="78.66666666666666" style="visibility: inherit;" fill="rgb(0, 0, 0)" stroke="rgb(204, 204, 204)" stroke-width="1px"></line><line x1="50" y1="59.00000000000001" x2="45" y2="59.00000000000001" style="visibility: inherit;" fill="rgb(0, 0, 0)" stroke="rgb(204, 204, 204)" stroke-width="1px"></line><line x1="50" y1="39.333333333333314" x2="45" y2="39.333333333333314" style="visibility: inherit;" fill="rgb(0, 0, 0)" stroke="rgb(204, 204, 204)" stroke-width="1px"></line><line x1="50" y1="19.666666666666657" x2="45" y2="19.666666666666657" style="visibility: inherit;" fill="rgb(0, 0, 0)" stroke="rgb(204, 204, 204)" stroke-width="1px"></line><line x1="50" y1="0" x2="45" y2="0" style="visibility: inherit;" fill="rgb(0, 0, 0)" stroke="rgb(204, 204, 204)" stroke-width="1px"></line></g><g transform="translate(40, 0)"><text x="0" y="177" dx="0em" dy="0.3em" style="text-anchor: end; visibility: hidden; font-family: Roboto, sans-serif; font-size: 12px; font-weight: 200;" fill="rgb(33, 33, 33)" stroke="none" stroke-width="1px">0</text><text x="0" y="157.33333333333331" dx="0em" dy="0.3em" style="text-anchor: end; visibility: inherit; font-family: Roboto, sans-serif; font-size: 12px; font-weight: 200;" fill="rgb(33, 33, 33)" stroke="none" stroke-width="1px">0.01</text><text x="0" y="137.66666666666666" dx="0em" dy="0.3em" style="text-anchor: end; visibility: hidden; font-family: Roboto, sans-serif; font-size: 12px; font-weight: 200;" fill="rgb(33, 33, 33)" stroke="none" stroke-width="1px">0.02</text><text x="0" y="118.00000000000001" dx="0em" dy="0.3em" style="text-anchor: end; visibility: inherit; font-family: Roboto, sans-serif; font-size: 12px; font-weight: 200;" fill="rgb(33, 33, 33)" stroke="none" stroke-width="1px">0.03</text><text x="0" y="98.33333333333334" dx="0em" dy="0.3em" style="text-anchor: end; visibility: hidden; font-family: Roboto, sans-serif; font-size: 12px; font-weight: 200;" fill="rgb(33, 33, 33)" stroke="none" stroke-width="1px">0.04</text><text x="0" y="78.66666666666666" dx="0em" dy="0.3em" style="text-anchor: end; visibility: inherit; font-family: Roboto, sans-serif; font-size: 12px; font-weight: 200;" fill="rgb(33, 33, 33)" stroke="none" stroke-width="1px">0.05</text><text x="0" y="59.00000000000001" dx="0em" dy="0.3em" style="text-anchor: end; visibility: hidden; font-family: Roboto, sans-serif; font-size: 12px; font-weight: 200;" fill="rgb(33, 33, 33)" stroke="none" stroke-width="1px">0.06</text><text x="0" y="39.333333333333314" dx="0em" dy="0.3em" style="text-anchor: end; visibility: inherit; font-family: Roboto, sans-serif; font-size: 12px; font-weight: 200;" fill="rgb(33, 33, 33)" stroke="none" stroke-width="1px">0.07</text><text x="0" y="19.666666666666657" dx="0em" dy="0.3em" style="text-anchor: end; visibility: hidden; font-family: Roboto, sans-serif; font-size: 12px; font-weight: 200;" fill="rgb(33, 33, 33)" stroke="none" stroke-width="1px">0.08</text><text x="0" y="0" dx="0em" dy="0.3em" style="text-anchor: end; visibility: hidden; font-family: Roboto, sans-serif; font-size: 12px; font-weight: 200;" fill="rgb(33, 33, 33)" stroke="none" stroke-width="1px">0.09</text></g><line x1="50" y1="0" x2="50" y2="177" fill="rgb(0, 0, 0)" stroke="rgb(204, 204, 204)" stroke-width="1px"></line></g></g><g transform="translate(50, 0)" clip-path="url(#clip_0)"><clipPath id="clip_0"><rect width="280" height="177"></rect></clipPath><g><g><g><line x1="0" y1="0" x2="0" y2="177" fill="rgb(0, 0, 0)" stroke="rgb(66, 66, 66)" stroke-width="1px" opacity="0.25"></line><line x1="23.333333333333332" y1="0" x2="23.333333333333332" y2="177" fill="rgb(0, 0, 0)" stroke="rgb(66, 66, 66)" stroke-width="1px" opacity="0.25"></line><line x1="46.666666666666664" y1="0" x2="46.666666666666664" y2="177" fill="rgb(0, 0, 0)" stroke="rgb(66, 66, 66)" stroke-width="1px" opacity="0.25"></line><line x1="70" y1="0" x2="70" y2="177" fill="rgb(0, 0, 0)" stroke="rgb(66, 66, 66)" stroke-width="1px" opacity="0.25"></line><line x1="93.33333333333333" y1="0" x2="93.33333333333333" y2="177" fill="rgb(0, 0, 0)" stroke="rgb(66, 66, 66)" stroke-width="1px" opacity="0.25"></line><line x1="116.66666666666667" y1="0" x2="116.66666666666667" y2="177" fill="rgb(0, 0, 0)" stroke="rgb(66, 66, 66)" stroke-width="1px" opacity="0.25"></line><line x1="140" y1="0" x2="140" y2="177" fill="rgb(0, 0, 0)" stroke="rgb(66, 66, 66)" stroke-width="1px" opacity="0.25"></line><line x1="163.33333333333334" y1="0" x2="163.33333333333334" y2="177" fill="rgb(0, 0, 0)" stroke="rgb(66, 66, 66)" stroke-width="1px" opacity="0.25"></line><line x1="186.66666666666666" y1="0" x2="186.66666666666666" y2="177" fill="rgb(0, 0, 0)" stroke="rgb(66, 66, 66)" stroke-width="1px" opacity="0.25"></line><line x1="210" y1="0" x2="210" y2="177" fill="rgb(0, 0, 0)" stroke="rgb(66, 66, 66)" stroke-width="1px" opacity="0.25"></line><line x1="233.33333333333334" y1="0" x2="233.33333333333334" y2="177" fill="rgb(0, 0, 0)" stroke="rgb(66, 66, 66)" stroke-width="1px" opacity="0.25"></line><line x1="256.66666666666663" y1="0" x2="256.66666666666663" y2="177" fill="rgb(0, 0, 0)" stroke="rgb(66, 66, 66)" stroke-width="1px" opacity="0.25"></line><line x1="280" y1="0" x2="280" y2="177" fill="rgb(0, 0, 0)" stroke="rgb(66, 66, 66)" stroke-width="1px" opacity="0.25"></line></g><g><line x1="0" y1="177" x2="280" y2="177" fill="rgb(0, 0, 0)" stroke="rgb(66, 66, 66)" stroke-width="1px" opacity="0.25"></line><line x1="0" y1="157.33333333333331" x2="280" y2="157.33333333333331" fill="rgb(0, 0, 0)" stroke="rgb(66, 66, 66)" stroke-width="1px" opacity="0.25"></line><line x1="0" y1="137.66666666666666" x2="280" y2="137.66666666666666" fill="rgb(0, 0, 0)" stroke="rgb(66, 66, 66)" stroke-width="1px" opacity="0.25"></line><line x1="0" y1="118.00000000000001" x2="280" y2="118.00000000000001" fill="rgb(0, 0, 0)" stroke="rgb(66, 66, 66)" stroke-width="1px" opacity="0.25"></line><line x1="0" y1="98.33333333333334" x2="280" y2="98.33333333333334" fill="rgb(0, 0, 0)" stroke="rgb(66, 66, 66)" stroke-width="1px" opacity="0.25"></line><line x1="0" y1="78.66666666666666" x2="280" y2="78.66666666666666" fill="rgb(0, 0, 0)" stroke="rgb(66, 66, 66)" stroke-width="1px" opacity="0.25"></line><line x1="0" y1="59.00000000000001" x2="280" y2="59.00000000000001" fill="rgb(0, 0, 0)" stroke="rgb(66, 66, 66)" stroke-width="1px" opacity="0.25"></line><line x1="0" y1="39.333333333333314" x2="280" y2="39.333333333333314" fill="rgb(0, 0, 0)" stroke="rgb(66, 66, 66)" stroke-width="1px" opacity="0.25"></line><line x1="0" y1="19.666666666666657" x2="280" y2="19.666666666666657" fill="rgb(0, 0, 0)" stroke="rgb(66, 66, 66)" stroke-width="1px" opacity="0.25"></line><line x1="0" y1="0" x2="280" y2="0" fill="rgb(0, 0, 0)" stroke="rgb(66, 66, 66)" stroke-width="1px" opacity="0.25"></line></g></g></g><g><g><line x1="0" y1="177" x2="280" y2="177" fill="rgb(0, 0, 0)" stroke="rgb(153, 153, 153)" stroke-width="1.5px"></line></g></g><g><g><line x1="23.333333333333332" y1="0" x2="23.333333333333332" y2="177" fill="rgb(0, 0, 0)" stroke="rgb(153, 153, 153)" stroke-width="1.5px"></line></g></g><g><g><g><g><g><path stroke="rgb(255, 112, 67)" stroke-width="2px" d="M25.666666666666664,-74.7064830288291L26.833333333333336,9.256436598848325L28,9.345524792303816L29.166666666666668,24.500828851687377L30.333333333333336,53.7609635193929L31.5,-25.56089278148474L32.666666666666664,34.25898182848899L33.833333333333336,30.415936417577683L35,79.05460715260506L36.16666666666667,65.67304617383107L37.333333333333336,80.41164259615732L38.5,-1.589169186243236L39.666666666666664,21.48372523931213L40.833333333333336,17.496806683510727L42,16.988088570557224L43.16666666666667,39.93173976832373L44.33333333333333,88.31190522714076L45.5,102.35608322157984L46.666666666666664,103.41485659440748L47.833333333333336,41.68946657643429L49,-15.952102410898757L50.166666666666664,-0.7296628348711665L51.33333333333333,6.332164561768185L52.5,42.75114201366083L53.66666666666667,54.97675214026393L54.833333333333336,86.07684088513932L56,103.18555652662691L57.166666666666664,96.15242170969083L58.333333333333336,123.69456406515147L59.5,85.12138576709825L60.66666666666667,102.14362766856956L61.83333333333333,99.73397976285358L63,86.56105577432474L64.16666666666666,85.26797783625503L65.33333333333333,112.6082729601703L66.5,118.85862935102818L67.66666666666667,103.55961764049134L68.83333333333333,119.99916791421026L70,123.13889272931809L71.16666666666666,83.3380750650243L72.33333333333334,95.21110249936194L73.5,108.11802934311739L74.66666666666667,109.15782075365266L75.83333333333333,106.94073875269025L77,126.82852188137468L78.16666666666667,121.84616178685039L79.33333333333333,127.32337586145147L80.5,121.27771740186341L81.66666666666667,127.05761587442537L82.83333333333333,99.02613703687254L84,95.45369633402936L85.16666666666666,96.23051613390491L86.33333333333334,112.96312592619451L87.5,40.708514612035984L88.66666666666666,69.05616865027046L89.83333333333334,60.865274211572306L91,89.45635939884974L92.16666666666667,73.63648263562862L93.33333333333333,68.29732955067816L94.5,83.16158286871236L95.66666666666667,35.3545619655147L96.83333333333333,39.3124109352725L98,84.48026292642567L99.16666666666667,111.9897442526855L100.33333333333333,75.22605033321598L101.5,104.73863602689956L102.66666666666666,88.55569858756893L103.83333333333334,122.76319494664014L105,132.7047783786218L106.16666666666666,148.03254320261343L107.33333333333334,130.16978095196166L108.5,114.99409159951892L109.66666666666667,120.51322122772626L110.83333333333333,126.29981918152228L112,121.30595079669986L113.16666666666667,115.90845059122424L114.33333333333333,136.86040500685044L115.5,148.38244609143018L116.66666666666667,121.30471673670817L117.83333333333333,95.48509161708795L119,104.34321159047708L120.16666666666666,115.23308305098311L121.33333333333334,135.37558679846146L122.5,122.88037087361344L123.66666666666666,131.72115943634705L124.83333333333334,98.88890707376122L126,109.26058263708661L127.16666666666667,92.5856646346818L128.33333333333331,115.25813403712337L129.5,134.10072223188453L130.66666666666666,140.33845992689515L131.83333333333334,122.18809079014372L133,107.49694250355031L134.16666666666669,131.03864645285327L135.33333333333334,126.8570700535551L136.5,131.92770701941106L137.66666666666666,78.94278417207549L138.83333333333334,76.4191831341053L140,105.51007769201188L141.16666666666666,130.4923054098228L142.33333333333331,148.27452467111087L143.5,130.97068887488447L144.66666666666669,135.92836866499823L145.83333333333334,112.71002046896122L147,109.17237757027013L148.16666666666666,131.32242957704185L149.33333333333334,125.72406345875808L150.5,97.68002435925654L151.66666666666666,126.25828353084952L152.83333333333331,143.0778520659675L154,104.9990251753372L155.16666666666669,133.2060071773452L156.33333333333334,128.18410184962286L157.5,137.95680667201322L158.66666666666666,142.32858903401876L159.83333333333331,147.25415462370984L161,158.42128438615316L162.16666666666669,157.43172392267095L163.33333333333334,161.10508073057596L164.5,132.61945226799963L165.66666666666666,114.7510865748615L166.83333333333334,122.1248643430486L168,124.00856552317231L169.16666666666666,141.4723363466729L170.33333333333331,134.70034704591848L171.5,149.5882413637301L172.66666666666669,149.22723817735874L173.83333333333334,155.4550242354073L175,162.38815347914982L176.16666666666666,164.90200869753014L177.33333333333331,159.47322035142216L178.5,151.3307156402375L179.66666666666669,140.68820347618097L180.83333333333334,152.46691635376334L182,159.80240659950348L183.16666666666666,147.2735397370945L184.33333333333334,156.90689422477027L185.5,157.41559971842412L186.66666666666666,142.98167576376545L187.83333333333331,146.75871976256738L189,157.97563502719473L190.16666666666669,160.23363649242404L191.33333333333334,139.24597526029714L192.5,147.1025691947498L193.66666666666666,155.28910636580935L194.83333333333331,156.84109645193985L196,141.69438940349917L197.16666666666669,154.34599316033942L198.33333333333334,159.92097329942317L199.5,166.31991415581987L200.66666666666666,164.28404557374247L201.83333333333334,157.2903677463559L203,145.30163777013786L204.16666666666666,130.2182331192901L205.33333333333331,142.31751270692013L206.5,154.38866165265716L207.66666666666669,154.41047959020898L208.83333333333334,144.93484382127423L210,156.80705608056803L211.16666666666666,160.99249423147333L212.33333333333331,149.23799705664968L213.5,151.47716992940897L214.66666666666669,159.43998941513732L215.83333333333334,164.24105544986529L217,163.1354023626578L218.16666666666666,160.36988563305928L219.33333333333334,165.54989906442736L220.5,168.08714744623052L221.66666666666666,143.00795270110495L222.83333333333331,150.5543701975365L224,146.1961367038182L225.16666666666669,122.72510843121759L226.33333333333334,130.61222972260168L227.5,148.48937862161424L228.66666666666666,143.1826866480328L229.83333333333331,151.07743871883258L231,136.08673911696098L232.16666666666669,141.85248459521188L233.33333333333334,153.7091117303665L234.5,146.67899314569007L235.66666666666666,121.81504154407921L236.83333333333334,133.05530171664918L238,141.00979372306088L239.16666666666666,149.22750853713404L240.33333333333331,160.20155962443235L241.5,164.39298489671478L242.66666666666669,167.47390369513548L243.83333333333334,152.0290264811451L245,158.90343729042024L246.16666666666666,142.55149051874682L247.33333333333331,134.80624976752085L248.5,141.75621640531946L249.66666666666669,139.130999668531L250.83333333333334,138.90308254207713L252,152.56352189056403L253.16666666666666,161.95366039165876L254.33333333333334,164.39023807022383L255.5,168.18323779993054L256.66666666666663,155.2124232414929" style="fill: none;" fill="none"></path></g></g></g></g><g opacity="0.2"><g><g><g><path stroke="rgb(255, 112, 67)" stroke-width="2px" d="M25.666666666666664,-13.987841784954071L26.833333333333336,89.86083944141865L28,9.45029250780741L29.166666666666668,44.287593831618615L30.333333333333336,94.23826341331004L31.5,-138.99241644144058L32.666666666666664,121.47693328062694L33.833333333333336,24.748190909624093L35,151.27736464887857L36.16666666666667,45.722074478864656L37.333333333333336,102.43933043877281L38.5,-124.32263998190564L39.666666666666664,56.04786467552184L40.833333333333336,11.52111532290775L42,16.225370188554113L43.16666666666667,74.3375075807174L44.33333333333333,160.86986969659725L45.5,123.42021072407563L46.666666666666664,105.00291987756889L47.833333333333336,-50.895233283440284L49,-102.41255917151771L50.166666666666664,22.103695988655083L51.33333333333333,16.9248220026493L52.5,97.37934934099515L53.66666666666667,73.31511519352594L54.833333333333336,132.7268944258491L56,128.84860372294983L57.166666666666664,85.60272596279779L58.333333333333336,165.00776237621903L59.5,27.26163111130396L60.66666666666667,127.67698713392018L61.83333333333333,96.11950819194317L63,66.80167073508103L64.16666666666666,83.32836098472278L65.33333333333333,153.61871494104466L66.5,128.23416384061179L67.66666666666667,80.6111002167066L68.83333333333333,144.65849323322374L70,127.84847994148731L71.16666666666666,23.636848648389172L72.33333333333334,113.02064363658428L73.5,127.47841959943375L74.66666666666667,110.7175078690052L75.83333333333333,103.61511575182278L77,156.66019657130042L78.16666666666667,114.37262164553007L79.33333333333333,135.53919697304568L80.5,112.20922971268494L81.66666666666667,135.7274635831515L82.83333333333333,56.978918780883156L84,90.09503527979057L85.16666666666666,97.3957458337148L86.33333333333334,138.06204061458507L87.5,-67.67340235908827L88.66666666666666,111.57764970759551L89.83333333333334,48.57893255352974L91,132.34298717975616L92.16666666666667,49.90666749080021L93.33333333333333,60.28859992325306L94.5,105.45796284576257L95.66666666666667,-36.3559693892797L96.83333333333333,45.249184389909104L98,152.23204091315466L99.16666666666667,153.25396624207497L100.33333333333333,20.080509454011903L101.5,149.00751456742486L102.66666666666666,64.28129242857297L103.83333333333334,174.07443948524696L105,147.61715352659425L106.16666666666666,171.02419043860087L107.33333333333334,103.37563757598399L108.5,92.23055757085483L109.66666666666667,128.79191567003727L110.83333333333333,134.97971611221632L112,113.8151482194662L113.16666666666667,107.8122002830108L114.33333333333333,168.28833663028976L115.5,165.6655077182998L116.66666666666667,80.68812270462513L117.83333333333333,56.75565393765768L119,117.63039155056079L120.16666666666666,131.56789024174213L121.33333333333334,165.58934241967896L122.5,104.13754698634146L123.66666666666666,144.98234228044748L124.83333333333334,49.64052852988243L126,124.81809598207472L127.16666666666667,67.57328763107459L128.33333333333331,149.2668381407857L129.5,162.3646045240263L130.66666666666666,149.69506646941105L131.83333333333334,94.96253708501656L133,85.46022007366022L134.16666666666669,166.35120237680772L135.33333333333334,120.58470545460781L136.5,139.53366246819496L137.66666666666666,-0.534600098927807L138.83333333333334,72.63378157715002L140,149.14641952887177L141.16666666666666,167.96564698653918L142.33333333333331,174.947853563043L143.5,105.01493518054485L144.66666666666669,143.36488835016885L145.83333333333334,77.88249817490576L147,103.86591322223346L148.16666666666666,164.54750758719942L149.33333333333334,117.32651428133249L150.5,55.61396571000416L151.66666666666666,169.125672288239L152.83333333333331,168.30720486864448L154,47.88078483939171L155.16666666666669,175.5164801803573L156.33333333333334,120.65124385803938L157.5,152.6158639055987L158.66666666666666,148.88626257702708L159.83333333333331,154.64250300824642L161,175.17197902981812L162.16666666666669,155.9473832274477L163.33333333333334,166.61511594243348L164.5,89.89100957413514L165.66666666666666,87.94853803515433L166.83333333333334,133.18553099532923L168,126.83411729335785L169.16666666666666,167.66799258192378L170.33333333333331,124.5423630947868L171.5,171.92008284044763L172.66666666666669,148.6857333978017L173.83333333333334,164.7967033224801L175,172.78784734476358L176.16666666666666,168.67279152510065L177.33333333333331,151.33003783226013L178.5,139.11695857346058L179.66666666666669,124.72443523009619L180.83333333333334,170.1349856701369L182,170.8056419681137L183.16666666666666,128.48023944348097L184.33333333333334,171.35692595628402L185.5,158.1786579589049L186.66666666666666,121.33078983177742L187.83333333333331,152.42428576077026L189,174.80100792413577L190.16666666666669,163.620638690268L191.33333333333334,107.76448341210684L192.5,158.8874600964288L193.66666666666666,167.56891212239861L194.83333333333331,159.1690815811356L196,118.9743288308382L197.16666666666669,173.32339879559973L198.33333333333334,168.28344350804886L199.5,175.91832544041486L200.66666666666666,161.23024270062646L201.83333333333334,146.79985100527603L203,127.31854280581076L204.16666666666666,107.5931261430184L205.33333333333331,160.46643208836514L206.5,172.49538507126272L207.66666666666669,154.44320649653673L208.83333333333334,130.72139016787213L210,174.61537446950874L211.16666666666666,167.27065145783126L212.33333333333331,131.6062512944142L213.5,154.8359292385479L214.66666666666669,171.3842186437299L215.83333333333334,171.44265450195718L217,161.47692273184657L218.16666666666666,156.22161053866148L219.33333333333334,173.31991921147954L220.5,171.8930200189352L221.66666666666666,105.38916058341661L222.83333333333331,161.87399644218385L224,139.65878646324077L225.16666666666669,87.51856602231662L226.33333333333334,142.44291165967783L227.5,175.30510197013305L228.66666666666666,135.2226486876607L229.83333333333331,162.91956682503223L231,113.60068971415362L232.16666666666669,150.50110281258821L233.33333333333334,171.49405243309837L234.5,136.1338152686755L235.66666666666666,84.51911414166291L236.83333333333334,149.91569197550416L238,152.9415317326784L239.16666666666666,161.5540807582438L240.33333333333331,176.66263625537977L241.5,170.6801228051384L242.66666666666669,172.09528189276656L243.83333333333334,128.8617106601596L245,169.2150535043329L246.16666666666666,118.02357036123672L247.33333333333331,123.18838864068191L248.5,152.1811663620174L249.66666666666669,135.1931745633483L250.83333333333334,138.5612068523963L252,173.05418091329435L253.16666666666666,176.03886814330085L254.33333333333334,168.0451045880715L255.5,173.8727373944906L256.66666666666663,135.7562014038364" style="fill: none;" fill="none"></path></g></g></g></g></g></g><g transform="translate(50, 177)" clip-path="url(#clip_1)"><clipPath id="clip_1"><rect width="280" height="23"></rect></clipPath><g><g><line x1="0" y1="0" x2="0" y2="5" style="visibility: inherit;" fill="rgb(0, 0, 0)" stroke="rgb(204, 204, 204)" stroke-width="1px"></line><line x1="23.333333333333332" y1="0" x2="23.333333333333332" y2="5" style="visibility: inherit;" fill="rgb(0, 0, 0)" stroke="rgb(204, 204, 204)" stroke-width="1px"></line><line x1="46.666666666666664" y1="0" x2="46.666666666666664" y2="5" style="visibility: inherit;" fill="rgb(0, 0, 0)" stroke="rgb(204, 204, 204)" stroke-width="1px"></line><line x1="70" y1="0" x2="70" y2="5" style="visibility: inherit;" fill="rgb(0, 0, 0)" stroke="rgb(204, 204, 204)" stroke-width="1px"></line><line x1="93.33333333333333" y1="0" x2="93.33333333333333" y2="5" style="visibility: inherit;" fill="rgb(0, 0, 0)" stroke="rgb(204, 204, 204)" stroke-width="1px"></line><line x1="116.66666666666667" y1="0" x2="116.66666666666667" y2="5" style="visibility: inherit;" fill="rgb(0, 0, 0)" stroke="rgb(204, 204, 204)" stroke-width="1px"></line><line x1="140" y1="0" x2="140" y2="5" style="visibility: inherit;" fill="rgb(0, 0, 0)" stroke="rgb(204, 204, 204)" stroke-width="1px"></line><line x1="163.33333333333334" y1="0" x2="163.33333333333334" y2="5" style="visibility: inherit;" fill="rgb(0, 0, 0)" stroke="rgb(204, 204, 204)" stroke-width="1px"></line><line x1="186.66666666666666" y1="0" x2="186.66666666666666" y2="5" style="visibility: inherit;" fill="rgb(0, 0, 0)" stroke="rgb(204, 204, 204)" stroke-width="1px"></line><line x1="210" y1="0" x2="210" y2="5" style="visibility: inherit;" fill="rgb(0, 0, 0)" stroke="rgb(204, 204, 204)" stroke-width="1px"></line><line x1="233.33333333333334" y1="0" x2="233.33333333333334" y2="5" style="visibility: inherit;" fill="rgb(0, 0, 0)" stroke="rgb(204, 204, 204)" stroke-width="1px"></line><line x1="256.66666666666663" y1="0" x2="256.66666666666663" y2="5" style="visibility: inherit;" fill="rgb(0, 0, 0)" stroke="rgb(204, 204, 204)" stroke-width="1px"></line><line x1="280" y1="0" x2="280" y2="5" style="visibility: inherit;" fill="rgb(0, 0, 0)" stroke="rgb(204, 204, 204)" stroke-width="1px"></line></g><g transform="translate(0, 8)"><text x="0" y="0" dx="0em" dy="0.95em" style="text-anchor: middle; visibility: hidden; font-family: Roboto, sans-serif; font-size: 12px; font-weight: 200;" fill="rgb(33, 33, 33)" stroke="none" stroke-width="1px">-2k</text><text x="23.333333333333332" y="0" dx="0em" dy="0.95em" style="text-anchor: middle; visibility: inherit; font-family: Roboto, sans-serif; font-size: 12px; font-weight: 200;" fill="rgb(33, 33, 33)" stroke="none" stroke-width="1px">0</text><text x="46.666666666666664" y="0" dx="0em" dy="0.95em" style="text-anchor: middle; visibility: hidden; font-family: Roboto, sans-serif; font-size: 12px; font-weight: 200;" fill="rgb(33, 33, 33)" stroke="none" stroke-width="1px">2k</text><text x="70" y="0" dx="0em" dy="0.95em" style="text-anchor: middle; visibility: inherit; font-family: Roboto, sans-serif; font-size: 12px; font-weight: 200;" fill="rgb(33, 33, 33)" stroke="none" stroke-width="1px">4k</text><text x="93.33333333333333" y="0" dx="0em" dy="0.95em" style="text-anchor: middle; visibility: hidden; font-family: Roboto, sans-serif; font-size: 12px; font-weight: 200;" fill="rgb(33, 33, 33)" stroke="none" stroke-width="1px">6k</text><text x="116.66666666666667" y="0" dx="0em" dy="0.95em" style="text-anchor: middle; visibility: inherit; font-family: Roboto, sans-serif; font-size: 12px; font-weight: 200;" fill="rgb(33, 33, 33)" stroke="none" stroke-width="1px">8k</text><text x="140" y="0" dx="0em" dy="0.95em" style="text-anchor: middle; visibility: hidden; font-family: Roboto, sans-serif; font-size: 12px; font-weight: 200;" fill="rgb(33, 33, 33)" stroke="none" stroke-width="1px">10k</text><text x="163.33333333333334" y="0" dx="0em" dy="0.95em" style="text-anchor: middle; visibility: inherit; font-family: Roboto, sans-serif; font-size: 12px; font-weight: 200;" fill="rgb(33, 33, 33)" stroke="none" stroke-width="1px">12k</text><text x="186.66666666666666" y="0" dx="0em" dy="0.95em" style="text-anchor: middle; visibility: hidden; font-family: Roboto, sans-serif; font-size: 12px; font-weight: 200;" fill="rgb(33, 33, 33)" stroke="none" stroke-width="1px">14k</text><text x="210" y="0" dx="0em" dy="0.95em" style="text-anchor: middle; visibility: inherit; font-family: Roboto, sans-serif; font-size: 12px; font-weight: 200;" fill="rgb(33, 33, 33)" stroke="none" stroke-width="1px">16k</text><text x="233.33333333333334" y="0" dx="0em" dy="0.95em" style="text-anchor: middle; visibility: hidden; font-family: Roboto, sans-serif; font-size: 12px; font-weight: 200;" fill="rgb(33, 33, 33)" stroke="none" stroke-width="1px">18k</text><text x="256.66666666666663" y="0" dx="0em" dy="0.95em" style="text-anchor: middle; visibility: inherit; font-family: Roboto, sans-serif; font-size: 12px; font-weight: 200;" fill="rgb(33, 33, 33)" stroke="none" stroke-width="1px">20k</text><text x="280" y="0" dx="0em" dy="0.95em" style="text-anchor: middle; visibility: hidden; font-family: Roboto, sans-serif; font-size: 12px; font-weight: 200;" fill="rgb(33, 33, 33)" stroke="none" stroke-width="1px">22k</text></g><line x1="0" y1="0" x2="280" y2="0" fill="rgb(0, 0, 0)" stroke="rgb(204, 204, 204)" stroke-width="1px"></line></g></g></g></g></svg>