<svg viewBox="0 0 330 200" xmlns="http://www.w3.org/2000/svg"><g><g><g><g><g><line x1="50" y1="177" x2="45" y2="177" style="visibility: inherit;" fill="rgb(0, 0, 0)" stroke="rgb(204, 204, 204)" stroke-width="1px"></line><line x1="50" y1="160.9090909090909" x2="45" y2="160.9090909090909" style="visibility: inherit;" fill="rgb(0, 0, 0)" stroke="rgb(204, 204, 204)" stroke-width="1px"></line><line x1="50" y1="144.8181818181818" x2="45" y2="144.8181818181818" style="visibility: inherit;" fill="rgb(0, 0, 0)" stroke="rgb(204, 204, 204)" stroke-width="1px"></line><line x1="50" y1="128.72727272727272" x2="45" y2="128.72727272727272" style="visibility: inherit;" fill="rgb(0, 0, 0)" stroke="rgb(204, 204, 204)" stroke-width="1px"></line><line x1="50" y1="112.63636363636364" x2="45" y2="112.63636363636364" style="visibility: inherit;" fill="rgb(0, 0, 0)" stroke="rgb(204, 204, 204)" stroke-width="1px"></line><line x1="50" y1="96.54545454545453" x2="45" y2="96.54545454545453" style="visibility: inherit;" fill="rgb(0, 0, 0)" stroke="rgb(204, 204, 204)" stroke-width="1px"></line><line x1="50" y1="80.45454545454547" x2="45" y2="80.45454545454547" style="visibility: inherit;" fill="rgb(0, 0, 0)" stroke="rgb(204, 204, 204)" stroke-width="1px"></line><line x1="50" y1="64.36363636363635" x2="45" y2="64.36363636363635" style="visibility: inherit;" fill="rgb(0, 0, 0)" stroke="rgb(204, 204, 204)" stroke-width="1px"></line><line x1="50" y1="48.272727272727266" x2="45" y2="48.272727272727266" style="visibility: inherit;" fill="rgb(0, 0, 0)" stroke="rgb(204, 204, 204)" stroke-width="1px"></line><line x1="50" y1="32.181818181818194" x2="45" y2="32.181818181818194" style="visibility: inherit;" fill="rgb(0, 0, 0)" stroke="rgb(204, 204, 204)" stroke-width="1px"></line><line x1="50" y1="16.090909090909076" x2="45" y2="16.090909090909076" style="visibility: inherit;" fill="rgb(0, 0, 0)" stroke="rgb(204, 204, 204)" stroke-width="1px"></line><line x1="50" y1="0" x2="45" y2="0" style="visibility: inherit;" fill="rgb(0, 0, 0)" stroke="rgb(204, 204, 204)" stroke-width="1px"></line></g><g transform="translate(40, 0)"><text x="0" y="177" dx="0em" dy="0.3em" style="text-anchor: end; visibility: hidden; font-family: Roboto, sans-serif; font-size: 12px; font-weight: 200;" fill="rgb(33, 33, 33)" stroke="none" stroke-width="1px">0</text><text x="0" y="160.9090909090909" dx="0em" dy="0.3em" style="text-anchor: end; visibility: inherit; font-family: Roboto, sans-serif; font-size: 12px; font-weight: 200;" fill="rgb(33, 33, 33)" stroke="none" stroke-width="1px">0.01</text><text x="0" y="144.8181818181818" dx="0em" dy="0.3em" style="text-anchor: end; visibility: hidden; font-family: Roboto, sans-serif; font-size: 12px; font-weight: 200;" fill="rgb(33, 33, 33)" stroke="none" stroke-width="1px">0.02</text><text x="0" y="128.72727272727272" dx="0em" dy="0.3em" style="text-anchor: end; visibility: inherit; font-family: Roboto, sans-serif; font-size: 12px; font-weight: 200;" fill="rgb(33, 33, 33)" stroke="none" stroke-width="1px">0.03</text><text x="0" y="112.63636363636364" dx="0em" dy="0.3em" style="text-anchor: end; visibility: hidden; font-family: Roboto, sans-serif; font-size: 12px; font-weight: 200;" fill="rgb(33, 33, 33)" stroke="none" stroke-width="1px">0.04</text><text x="0" y="96.54545454545453" dx="0em" dy="0.3em" style="text-anchor: end; visibility: inherit; font-family: Roboto, sans-serif; font-size: 12px; font-weight: 200;" fill="rgb(33, 33, 33)" stroke="none" stroke-width="1px">0.05</text><text x="0" y="80.45454545454547" dx="0em" dy="0.3em" style="text-anchor: end; visibility: hidden; font-family: Roboto, sans-serif; font-size: 12px; font-weight: 200;" fill="rgb(33, 33, 33)" stroke="none" stroke-width="1px">0.06</text><text x="0" y="64.36363636363635" dx="0em" dy="0.3em" style="text-anchor: end; visibility: inherit; font-family: Roboto, sans-serif; font-size: 12px; font-weight: 200;" fill="rgb(33, 33, 33)" stroke="none" stroke-width="1px">0.07</text><text x="0" y="48.272727272727266" dx="0em" dy="0.3em" style="text-anchor: end; visibility: hidden; font-family: Roboto, sans-serif; font-size: 12px; font-weight: 200;" fill="rgb(33, 33, 33)" stroke="none" stroke-width="1px">0.08</text><text x="0" y="32.181818181818194" dx="0em" dy="0.3em" style="text-anchor: end; visibility: inherit; font-family: Roboto, sans-serif; font-size: 12px; font-weight: 200;" fill="rgb(33, 33, 33)" stroke="none" stroke-width="1px">0.09</text><text x="0" y="16.090909090909076" dx="0em" dy="0.3em" style="text-anchor: end; visibility: hidden; font-family: Roboto, sans-serif; font-size: 12px; font-weight: 200;" fill="rgb(33, 33, 33)" stroke="none" stroke-width="1px">0.1</text><text x="0" y="0" dx="0em" dy="0.3em" style="text-anchor: end; visibility: hidden; font-family: Roboto, sans-serif; font-size: 12px; font-weight: 200;" fill="rgb(33, 33, 33)" stroke="none" stroke-width="1px">0.11</text></g><line x1="50" y1="0" x2="50" y2="177" fill="rgb(0, 0, 0)" stroke="rgb(204, 204, 204)" stroke-width="1px"></line></g></g><g transform="translate(50, 0)" clip-path="url(#clip_0)"><clipPath id="clip_0"><rect width="280" height="177"></rect></clipPath><g><g><g><line x1="0" y1="0" x2="0" y2="177" fill="rgb(0, 0, 0)" stroke="rgb(66, 66, 66)" stroke-width="1px" opacity="0.25"></line><line x1="23.333333333333332" y1="0" x2="23.333333333333332" y2="177" fill="rgb(0, 0, 0)" stroke="rgb(66, 66, 66)" stroke-width="1px" opacity="0.25"></line><line x1="46.666666666666664" y1="0" x2="46.666666666666664" y2="177" fill="rgb(0, 0, 0)" stroke="rgb(66, 66, 66)" stroke-width="1px" opacity="0.25"></line><line x1="70" y1="0" x2="70" y2="177" fill="rgb(0, 0, 0)" stroke="rgb(66, 66, 66)" stroke-width="1px" opacity="0.25"></line><line x1="93.33333333333333" y1="0" x2="93.33333333333333" y2="177" fill="rgb(0, 0, 0)" stroke="rgb(66, 66, 66)" stroke-width="1px" opacity="0.25"></line><line x1="116.66666666666667" y1="0" x2="116.66666666666667" y2="177" fill="rgb(0, 0, 0)" stroke="rgb(66, 66, 66)" stroke-width="1px" opacity="0.25"></line><line x1="140" y1="0" x2="140" y2="177" fill="rgb(0, 0, 0)" stroke="rgb(66, 66, 66)" stroke-width="1px" opacity="0.25"></line><line x1="163.33333333333334" y1="0" x2="163.33333333333334" y2="177" fill="rgb(0, 0, 0)" stroke="rgb(66, 66, 66)" stroke-width="1px" opacity="0.25"></line><line x1="186.66666666666666" y1="0" x2="186.66666666666666" y2="177" fill="rgb(0, 0, 0)" stroke="rgb(66, 66, 66)" stroke-width="1px" opacity="0.25"></line><line x1="210" y1="0" x2="210" y2="177" fill="rgb(0, 0, 0)" stroke="rgb(66, 66, 66)" stroke-width="1px" opacity="0.25"></line><line x1="233.33333333333334" y1="0" x2="233.33333333333334" y2="177" fill="rgb(0, 0, 0)" stroke="rgb(66, 66, 66)" stroke-width="1px" opacity="0.25"></line><line x1="256.66666666666663" y1="0" x2="256.66666666666663" y2="177" fill="rgb(0, 0, 0)" stroke="rgb(66, 66, 66)" stroke-width="1px" opacity="0.25"></line><line x1="280" y1="0" x2="280" y2="177" fill="rgb(0, 0, 0)" stroke="rgb(66, 66, 66)" stroke-width="1px" opacity="0.25"></line></g><g><line x1="0" y1="177" x2="280" y2="177" fill="rgb(0, 0, 0)" stroke="rgb(66, 66, 66)" stroke-width="1px" opacity="0.25"></line><line x1="0" y1="160.9090909090909" x2="280" y2="160.9090909090909" fill="rgb(0, 0, 0)" stroke="rgb(66, 66, 66)" stroke-width="1px" opacity="0.25"></line><line x1="0" y1="144.8181818181818" x2="280" y2="144.8181818181818" fill="rgb(0, 0, 0)" stroke="rgb(66, 66, 66)" stroke-width="1px" opacity="0.25"></line><line x1="0" y1="128.72727272727272" x2="280" y2="128.72727272727272" fill="rgb(0, 0, 0)" stroke="rgb(66, 66, 66)" stroke-width="1px" opacity="0.25"></line><line x1="0" y1="112.63636363636364" x2="280" y2="112.63636363636364" fill="rgb(0, 0, 0)" stroke="rgb(66, 66, 66)" stroke-width="1px" opacity="0.25"></line><line x1="0" y1="96.54545454545453" x2="280" y2="96.54545454545453" fill="rgb(0, 0, 0)" stroke="rgb(66, 66, 66)" stroke-width="1px" opacity="0.25"></line><line x1="0" y1="80.45454545454547" x2="280" y2="80.45454545454547" fill="rgb(0, 0, 0)" stroke="rgb(66, 66, 66)" stroke-width="1px" opacity="0.25"></line><line x1="0" y1="64.36363636363635" x2="280" y2="64.36363636363635" fill="rgb(0, 0, 0)" stroke="rgb(66, 66, 66)" stroke-width="1px" opacity="0.25"></line><line x1="0" y1="48.272727272727266" x2="280" y2="48.272727272727266" fill="rgb(0, 0, 0)" stroke="rgb(66, 66, 66)" stroke-width="1px" opacity="0.25"></line><line x1="0" y1="32.181818181818194" x2="280" y2="32.181818181818194" fill="rgb(0, 0, 0)" stroke="rgb(66, 66, 66)" stroke-width="1px" opacity="0.25"></line><line x1="0" y1="16.090909090909076" x2="280" y2="16.090909090909076" fill="rgb(0, 0, 0)" stroke="rgb(66, 66, 66)" stroke-width="1px" opacity="0.25"></line><line x1="0" y1="0" x2="280" y2="0" fill="rgb(0, 0, 0)" stroke="rgb(66, 66, 66)" stroke-width="1px" opacity="0.25"></line></g></g></g><g><g><line x1="0" y1="177" x2="280" y2="177" fill="rgb(0, 0, 0)" stroke="rgb(153, 153, 153)" stroke-width="1.5px"></line></g></g><g><g><line x1="23.333333333333332" y1="0" x2="23.333333333333332" y2="177" fill="rgb(0, 0, 0)" stroke="rgb(153, 153, 153)" stroke-width="1.5px"></line></g></g><g><g><g><g><g><path stroke="rgb(255, 112, 67)" stroke-width="2px" d="M26.833333333333336,-81.89266479159107L28,4.0841815359492255L29.166666666666668,42.140133710455544L30.333333333333336,53.23971112655125L31.5,35.53029758636678L32.666666666666664,71.80265199395234L33.833333333333336,66.40614254623722L35,53.33531290377945L36.16666666666667,25.91125762499511L37.333333333333336,40.96450148981629L38.5,40.15148137335866L39.666666666666664,28.85096014993124L40.833333333333336,29.395172969998345L42,-3.742436271536879L45.5,-5.914215844811638L46.666666666666664,39.62738472105701L47.833333333333336,28.898274753303035L49,-60.176490242642316L50.166666666666664,16.24648633128497L51.33333333333333,6.146623045739978L52.5,38.19599842483064L53.66666666666667,67.75163050475322L54.833333333333336,98.86722908852003L56,96.27280058022437L57.166666666666664,86.25875450574465L58.333333333333336,71.97652049629137L59.5,21.221335340017326L60.66666666666667,63.90125989020069L61.83333333333333,91.5473041815846L63,72.43719906411606L64.16666666666666,78.99612279637647L65.33333333333333,97.97290501549617L66.5,86.0067662512366L67.66666666666667,74.7773994866882L68.83333333333333,107.48832756282013L70,99.1183877188314L71.16666666666666,111.60441333505236L72.33333333333334,107.11726982105587L73.5,123.913136845419L74.66666666666667,127.98273475736339L75.83333333333333,99.61639322043983L77,111.06744147622305L78.16666666666667,119.8311112516176L79.33333333333333,122.66804587399592L80.5,138.92937624888867L81.66666666666667,138.9219623542968L82.83333333333333,130.62619168596459L84,135.56627398725718L85.16666666666666,126.12643337191759L86.33333333333334,107.82508909069537L87.5,82.18327883209082L88.66666666666666,103.0024386547331L89.83333333333334,110.9094188371891L91,123.81588572348173L92.16666666666667,119.66053017320121L93.33333333333333,125.80797798105873L94.5,129.0051009648805L95.66666666666667,114.05381145060804L96.83333333333333,117.42119990142274L98,109.96774187622985L99.16666666666667,124.54726266905602L100.33333333333333,117.11299514580546L101.5,116.58435594596462L102.66666666666666,127.35380584144482L103.83333333333334,136.02900229588573L105,122.41265171367995L106.16666666666666,139.96412769134196L107.33333333333334,132.73659832094413L108.5,136.36115376946998L109.66666666666667,138.397691339674L110.83333333333333,143.16423669049126L112,131.94593624010886L113.16666666666667,130.95064094179722L114.33333333333333,141.66826058851174L115.5,144.02885563085914L116.66666666666667,139.9832719857123L117.83333333333333,140.68159723439484L119,135.75224068421957L120.16666666666666,141.07575992223738L121.33333333333334,147.56368068524293L122.5,142.98867368012614L123.66666666666666,141.17128736561503L124.83333333333334,148.23485738182373L126,149.40449548476792L127.16666666666667,153.70590153762018L128.33333333333331,153.1106166504792L129.5,150.40805831087008L130.66666666666666,150.82840575974427L131.83333333333334,138.57793526444308L133,141.20155277064075L134.16666666666669,149.62189038765263L135.33333333333334,150.85801508271703L136.5,150.07655383331348L137.66666666666666,152.97935266034736L138.83333333333334,149.4921472690898L140,146.09391112515263L141.16666666666666,155.06172510000968L142.33333333333331,162.43757942055677L143.5,155.57801507905677L144.66666666666669,156.24193042974642L145.83333333333334,149.80416621840578L147,146.59426153781328L148.16666666666666,148.36192943015175L149.33333333333334,153.230491117425L150.5,155.63105646987717L151.66666666666666,155.38180963799064L152.83333333333331,153.7346367446681L154,156.1560546026398L155.16666666666669,161.16745565390568L156.33333333333334,166.6625366112506L157.5,163.35827996478878L158.66666666666666,163.9310414409694L159.83333333333331,165.59154519487038L161,166.75073739109243L162.16666666666669,165.85675850179837L163.33333333333334,168.2338574856994L164.5,165.22605946624955L165.66666666666666,164.80930979542381L166.83333333333334,159.92273327216068L168,157.03050099830745L169.16666666666666,160.33743711051892L170.33333333333331,160.29195824718641L171.5,162.56396193302103L172.66666666666669,156.00916813284738L173.83333333333334,158.41235820308404L175,160.92859118860193L176.16666666666666,162.3802698922393L177.33333333333331,161.2492419754625L178.5,163.32510382730456L179.66666666666669,149.50191793755272L180.83333333333334,154.57836714255342L182,157.98263890014064L183.16666666666666,158.54532397612968L184.33333333333334,163.19583711635008L185.5,162.00007300036617L186.66666666666666,162.72108007589912L187.83333333333331,163.0619566743045L189,166.31184482682377L190.16666666666669,163.60725721551339L191.33333333333334,161.6936351438365L192.5,160.36768143992543L193.66666666666666,160.87149609887064L194.83333333333331,163.54767774202503L196,163.0346251850718L197.16666666666669,164.02441010660382L198.33333333333334,164.91320902605003L199.5,165.19692041114817L200.66666666666666,167.35802303532003L201.83333333333334,162.47813489373252L203,163.09255836101715L204.16666666666666,164.9314002845725L205.33333333333331,161.61792578816113L206.5,163.75735322086197L207.66666666666669,164.99929633163865L208.83333333333334,167.6474837309775L210,169.37600023750272L211.16666666666666,169.00241168506682L212.33333333333331,169.13596574554126L213.5,165.20695640037388L214.66666666666669,166.0034909971271L215.83333333333334,165.46875619254251L217,167.29092781684838L218.16666666666666,166.74924381002106L219.33333333333334,168.37396950764682L220.5,170.76162679931343L221.66666666666666,168.24008539493735L222.83333333333331,168.3847068977949L224,167.7257457909723L225.16666666666669,163.68964940358367L226.33333333333334,166.13207987142738L227.5,164.9042631657961L228.66666666666666,164.47523216831397L229.83333333333331,167.34560380548498L231,164.31286168227027L232.16666666666669,165.65523816891624L233.33333333333334,167.78548773488768L234.5,163.20451169893147L235.66666666666666,164.06874488844656L236.83333333333334,166.57308099938848L238,167.48879752322088L239.16666666666666,166.69518354563797L240.33333333333331,168.2400682115109L241.5,169.5529943489436L242.66666666666669,170.3418786140257L243.83333333333334,166.66140905486841L245,166.8646393881008L246.16666666666666,165.45609726755953L247.33333333333331,161.51526821322904L248.5,163.87773966408278L249.66666666666669,164.85279327009567L250.83333333333334,166.39414627592345L252,169.03892758706556L253.16666666666666,170.52337289261564L254.33333333333334,169.72363056140065L255.5,171.90218715577498L256.66666666666663,169.8078037341486" style="fill: none;" fill="none"></path></g></g></g></g><g opacity="0.2"><g><g><g><path stroke="rgb(255, 112, 67)" stroke-width="2px" d="M25.666666666666664,-195.87120629440653L26.833333333333336,96.00913457978855L28,105.19295281713659L29.166666666666668,91.82598486949097L30.333333333333336,68.59442254088141L31.5,10.20555287328634L32.666666666666664,124.68809293481438L33.833333333333336,58.447339328852564L35,33.92665421149947L36.16666666666667,-14.976091130213296L37.333333333333336,63.46244819868695L38.5,38.93460585041479L39.666666666666664,11.922317212278202L40.833333333333336,30.210852498357937L42,-53.42547892440447L43.16666666666667,-384.42489422451365L44.33333333333333,26.05398792841218L45.5,109.99627598713745L46.666666666666664,107.93562288717791L47.833333333333336,12.805198211561551L49,-193.78570669347587L50.166666666666664,130.87944235381752L51.33333333333333,-9.003052240068252L52.5,86.26983370022342L53.66666666666667,112.08495258336717L54.833333333333336,145.54054734788158L56,92.38116180083968L57.166666666666664,71.23769461837682L58.333333333333336,50.55317737568509L59.5,-54.91142556342213L60.66666666666667,127.9211382235993L61.83333333333333,133.01636731827801L63,43.77204275673087L64.16666666666666,88.83450811288573L65.33333333333333,126.43807785483925L66.5,68.05755828998305L67.66666666666667,57.93334944410757L68.83333333333333,156.55471949482506L70,86.56347798081961L71.16666666666666,130.3334517343478L72.33333333333334,100.38655455545947L73.5,149.1069373698397L74.66666666666667,134.0871316235174L75.83333333333333,57.066880922425874L77,128.2440138581124L78.16666666666667,132.97661591388962L79.33333333333333,126.92344780740412L80.5,163.3213718106801L81.66666666666667,138.91084151240912L82.83333333333333,118.18253568356687L84,142.97639743916014L85.16666666666666,111.96667244894937L86.33333333333334,80.37307266891003L87.5,43.72056344422427L88.66666666666666,134.23117838867685L89.83333333333334,122.76988911086863L91,143.17558605291626L92.16666666666667,113.42749684778126L93.33333333333333,135.02914969284427L94.5,133.8007854406129L95.66666666666667,91.6268771792L96.83333333333333,122.47228257764469L98,98.78755483844064L99.16666666666667,146.41654385829514L100.33333333333333,105.96159386092967L101.5,115.7913971462033L102.66666666666666,143.5079806846651L103.83333333333334,149.04179697754708L105,101.98812584037131L106.16666666666666,166.29134165783498L107.33333333333334,121.8953042653474L108.5,141.79798694225875L109.66666666666667,141.45249769498002L110.83333333333333,150.31405471671712L112,115.11848556453532L113.16666666666667,129.45769799432972L114.33333333333333,157.74469005858356L115.5,147.56974819438025L116.66666666666667,133.91489651799202L117.83333333333333,141.72908510741863L119,128.3582058589567L120.16666666666666,149.06103877926415L121.33333333333334,157.2955618297512L122.5,136.12616317245093L123.66666666666666,138.44520789384842L124.83333333333334,158.83021240613678L126,151.1589526391842L127.16666666666667,160.15801061689854L128.33333333333331,152.21768931976774L129.5,146.35422080145642L130.66666666666666,151.45892693305558L131.83333333333334,120.2022295214913L133,145.13697902993724L134.16666666666669,162.25239681317046L135.33333333333334,152.7122021253136L136.5,148.90436195920813L137.66666666666666,157.3335509008982L138.83333333333334,144.26133918220347L140,140.9965569092469L141.16666666666666,168.5134460622953L142.33333333333331,173.5013609013774L143.5,145.28866856680676L144.66666666666669,157.23780345578086L145.83333333333334,140.14751990139484L147,141.7794045169245L148.16666666666666,151.0134312686595L149.33333333333334,160.53333364833486L150.5,159.23190449855545L151.66666666666666,155.00793939016083L152.83333333333331,151.26387740468437L154,159.78818138959733L155.16666666666669,168.68455723080444L156.33333333333334,174.905158047268L157.5,158.40189499509606L158.66666666666666,164.79018365524033L159.83333333333331,168.08230082572183L161,168.48952568542552L162.16666666666669,164.5157901678573L163.33333333333334,171.79950596155092L164.5,160.71436243707484L165.66666666666666,164.18418528918517L166.83333333333334,152.59286848726597L168,152.69215258752757L169.16666666666666,165.29784127883613L170.33333333333331,160.22373995218766L171.5,165.97196746177295L172.66666666666669,146.17697743258694L173.83333333333334,162.01714330843905L175,164.70294066687876L176.16666666666666,164.55778794769537L177.33333333333331,159.55270010029727L178.5,166.43889660506764L179.66666666666669,128.76713910292494L180.83333333333334,162.19304095005447L182,163.08904653652147L183.16666666666666,159.3893515901132L184.33333333333334,170.17160682668063L185.5,160.20642682639036L186.66666666666666,163.80259068919852L187.83333333333331,163.57327157191256L189,171.18667705560273L190.16666666666669,159.5503757985478L191.33333333333334,158.82320203632116L192.5,158.3787508840588L193.66666666666666,161.62721808728847L194.83333333333331,167.5619502067566L196,162.26504634964195L197.16666666666669,165.50908748890188L198.33333333333334,166.2464074052193L199.5,165.6224874887954L200.66666666666666,170.5996769715778L201.83333333333334,155.15830268135124L203,164.0141935619441L204.16666666666666,167.68966316990554L205.33333333333331,156.64771404354408L206.5,166.96649436991322L207.66666666666669,166.86221099780366L208.83333333333334,171.6197648299858L210,171.96877499729055L211.16666666666666,168.44202885641292L212.33333333333331,169.33629683625293L213.5,159.31344238262284L214.66666666666669,167.19829289225692L215.83333333333334,164.6666539856656L217,170.02418525330722L218.16666666666666,165.93671779978004L219.33333333333334,170.8110580540855L220.5,174.3431127368134L221.66666666666666,164.45777328837323L222.83333333333331,168.60163915208116L224,166.73730413073844L225.16666666666669,157.63550482250074L226.33333333333334,169.79572557319295L227.5,163.06253810734913L228.66666666666666,163.8316856720908L229.83333333333331,171.65116126124155L231,159.76374849744818L232.16666666666669,167.66880289888516L233.33333333333334,170.98086208384484L234.5,156.33304764499718L235.66666666666666,165.36509467271918L236.83333333333334,170.32958516580138L238,168.8623723089695L239.16666666666666,165.5047625792636L240.33333333333331,170.5573952103203L241.5,171.5223835550926L242.66666666666669,171.5252050116489L243.83333333333334,161.14070471613243L245,167.16948488794944L246.16666666666666,163.34328408674762L247.33333333333331,155.60402463173324L248.5,167.42144684036347L249.66666666666669,166.31537367911503L250.83333333333334,168.70617578466508L252,173.00609955377877L253.16666666666666,172.75004085094076L254.33333333333334,168.52401706457815L255.5,175.17002204733646L256.66666666666663,166.666228601709" style="fill: none;" fill="none"></path></g></g></g></g></g></g><g transform="translate(50, 177)" clip-path="url(#clip_1)"><clipPath id="clip_1"><rect width="280" height="23"></rect></clipPath><g><g><line x1="0" y1="0" x2="0" y2="5" style="visibility: inherit;" fill="rgb(0, 0, 0)" stroke="rgb(204, 204, 204)" stroke-width="1px"></line><line x1="23.333333333333332" y1="0" x2="23.333333333333332" y2="5" style="visibility: inherit;" fill="rgb(0, 0, 0)" stroke="rgb(204, 204, 204)" stroke-width="1px"></line><line x1="46.666666666666664" y1="0" x2="46.666666666666664" y2="5" style="visibility: inherit;" fill="rgb(0, 0, 0)" stroke="rgb(204, 204, 204)" stroke-width="1px"></line><line x1="70" y1="0" x2="70" y2="5" style="visibility: inherit;" fill="rgb(0, 0, 0)" stroke="rgb(204, 204, 204)" stroke-width="1px"></line><line x1="93.33333333333333" y1="0" x2="93.33333333333333" y2="5" style="visibility: inherit;" fill="rgb(0, 0, 0)" stroke="rgb(204, 204, 204)" stroke-width="1px"></line><line x1="116.66666666666667" y1="0" x2="116.66666666666667" y2="5" style="visibility: inherit;" fill="rgb(0, 0, 0)" stroke="rgb(204, 204, 204)" stroke-width="1px"></line><line x1="140" y1="0" x2="140" y2="5" style="visibility: inherit;" fill="rgb(0, 0, 0)" stroke="rgb(204, 204, 204)" stroke-width="1px"></line><line x1="163.33333333333334" y1="0" x2="163.33333333333334" y2="5" style="visibility: inherit;" fill="rgb(0, 0, 0)" stroke="rgb(204, 204, 204)" stroke-width="1px"></line><line x1="186.66666666666666" y1="0" x2="186.66666666666666" y2="5" style="visibility: inherit;" fill="rgb(0, 0, 0)" stroke="rgb(204, 204, 204)" stroke-width="1px"></line><line x1="210" y1="0" x2="210" y2="5" style="visibility: inherit;" fill="rgb(0, 0, 0)" stroke="rgb(204, 204, 204)" stroke-width="1px"></line><line x1="233.33333333333334" y1="0" x2="233.33333333333334" y2="5" style="visibility: inherit;" fill="rgb(0, 0, 0)" stroke="rgb(204, 204, 204)" stroke-width="1px"></line><line x1="256.66666666666663" y1="0" x2="256.66666666666663" y2="5" style="visibility: inherit;" fill="rgb(0, 0, 0)" stroke="rgb(204, 204, 204)" stroke-width="1px"></line><line x1="280" y1="0" x2="280" y2="5" style="visibility: inherit;" fill="rgb(0, 0, 0)" stroke="rgb(204, 204, 204)" stroke-width="1px"></line></g><g transform="translate(0, 8)"><text x="0" y="0" dx="0em" dy="0.95em" style="text-anchor: middle; visibility: hidden; font-family: Roboto, sans-serif; font-size: 12px; font-weight: 200;" fill="rgb(33, 33, 33)" stroke="none" stroke-width="1px">-2k</text><text x="23.333333333333332" y="0" dx="0em" dy="0.95em" style="text-anchor: middle; visibility: inherit; font-family: Roboto, sans-serif; font-size: 12px; font-weight: 200;" fill="rgb(33, 33, 33)" stroke="none" stroke-width="1px">0</text><text x="46.666666666666664" y="0" dx="0em" dy="0.95em" style="text-anchor: middle; visibility: hidden; font-family: Roboto, sans-serif; font-size: 12px; font-weight: 200;" fill="rgb(33, 33, 33)" stroke="none" stroke-width="1px">2k</text><text x="70" y="0" dx="0em" dy="0.95em" style="text-anchor: middle; visibility: inherit; font-family: Roboto, sans-serif; font-size: 12px; font-weight: 200;" fill="rgb(33, 33, 33)" stroke="none" stroke-width="1px">4k</text><text x="93.33333333333333" y="0" dx="0em" dy="0.95em" style="text-anchor: middle; visibility: hidden; font-family: Roboto, sans-serif; font-size: 12px; font-weight: 200;" fill="rgb(33, 33, 33)" stroke="none" stroke-width="1px">6k</text><text x="116.66666666666667" y="0" dx="0em" dy="0.95em" style="text-anchor: middle; visibility: inherit; font-family: Roboto, sans-serif; font-size: 12px; font-weight: 200;" fill="rgb(33, 33, 33)" stroke="none" stroke-width="1px">8k</text><text x="140" y="0" dx="0em" dy="0.95em" style="text-anchor: middle; visibility: hidden; font-family: Roboto, sans-serif; font-size: 12px; font-weight: 200;" fill="rgb(33, 33, 33)" stroke="none" stroke-width="1px">10k</text><text x="163.33333333333334" y="0" dx="0em" dy="0.95em" style="text-anchor: middle; visibility: inherit; font-family: Roboto, sans-serif; font-size: 12px; font-weight: 200;" fill="rgb(33, 33, 33)" stroke="none" stroke-width="1px">12k</text><text x="186.66666666666666" y="0" dx="0em" dy="0.95em" style="text-anchor: middle; visibility: hidden; font-family: Roboto, sans-serif; font-size: 12px; font-weight: 200;" fill="rgb(33, 33, 33)" stroke="none" stroke-width="1px">14k</text><text x="210" y="0" dx="0em" dy="0.95em" style="text-anchor: middle; visibility: inherit; font-family: Roboto, sans-serif; font-size: 12px; font-weight: 200;" fill="rgb(33, 33, 33)" stroke="none" stroke-width="1px">16k</text><text x="233.33333333333334" y="0" dx="0em" dy="0.95em" style="text-anchor: middle; visibility: hidden; font-family: Roboto, sans-serif; font-size: 12px; font-weight: 200;" fill="rgb(33, 33, 33)" stroke="none" stroke-width="1px">18k</text><text x="256.66666666666663" y="0" dx="0em" dy="0.95em" style="text-anchor: middle; visibility: inherit; font-family: Roboto, sans-serif; font-size: 12px; font-weight: 200;" fill="rgb(33, 33, 33)" stroke="none" stroke-width="1px">20k</text><text x="280" y="0" dx="0em" dy="0.95em" style="text-anchor: middle; visibility: hidden; font-family: Roboto, sans-serif; font-size: 12px; font-weight: 200;" fill="rgb(33, 33, 33)" stroke="none" stroke-width="1px">22k</text></g><line x1="0" y1="0" x2="280" y2="0" fill="rgb(0, 0, 0)" stroke="rgb(204, 204, 204)" stroke-width="1px"></line></g></g></g></g></svg>